<svg width="292" height="460" viewBox="0 0 292 460" fill="none" xmlns="http://www.w3.org/2000/svg">
<path d="M222.4 210.479C221.058 199.028 217.452 187.995 211.833 177.881C206.214 167.767 198.834 158.907 189.777 151.635C180.468 144.112 169.818 138.596 158.161 135.252C146.588 131.909 134.595 130.989 122.687 132.41C121.932 132.494 121.093 132.578 120.339 132.745L136.692 175.958L138.788 181.559C140.633 181.809 142.562 182.227 144.407 182.729C165.708 188.831 177.952 210.981 171.83 232.128L165.96 252.439C174.514 268.989 193.551 277.515 211.665 272.75L219.465 245.752C222.819 234.301 223.826 222.348 222.4 210.479Z" fill="#EE7D50"/>
<path d="M51.9902 269.156C65.1567 272.918 74.7171 279.688 73.3753 284.285L94.8442 209.978C95.0958 209.142 95.3474 208.306 95.6828 207.47L90.3156 193.261L75.1364 153.14C71.0271 156.65 67.1694 160.579 63.6472 164.842C56.0995 174.12 50.5645 184.735 47.21 196.353L25.7411 270.661C27.0829 266.064 38.8237 265.395 51.9902 269.156Z" fill="#EE7D50"/>
<path d="M171.83 321.564C159.586 318.054 150.445 311.952 150.278 307.438C150.194 307.438 150.194 307.355 150.11 307.355L128.893 380.743C122.771 401.973 100.547 414.177 79.3296 408.075C58.0284 401.973 45.7844 379.823 51.9064 358.676L73.3753 284.285C72.0335 288.882 60.2927 289.551 47.1262 285.706C33.9597 281.945 24.3993 275.174 25.7411 270.577L4.27219 344.968C0.917671 356.503 -0.0048219 368.456 1.42085 380.325C2.76266 391.776 6.36877 402.809 11.9876 412.923C17.6064 423.037 24.9864 431.897 34.0436 439.169C43.3523 446.692 54.0029 452.208 65.6599 455.552C77.233 458.895 89.2254 459.815 101.134 458.394C112.623 457.056 123.609 453.462 133.841 447.862C143.988 442.262 152.877 434.823 160.174 425.879C167.721 416.601 173.256 405.986 176.611 394.367L197.157 323.32C196.151 323.236 195.228 323.236 194.222 323.152C189.442 324.657 180.972 324.239 171.83 321.564Z" fill="#F0512D"/>
<path d="M150.278 307.438C150.445 311.952 159.586 318.054 171.83 321.564C180.972 324.156 189.442 324.657 194.222 323.153C183.991 322.317 174.095 319.725 164.702 315.546C159.586 313.289 154.806 310.531 150.278 307.438Z" fill="#F0512D"/>
<path d="M51.9902 269.157C38.8237 265.395 27.0829 266.064 25.7411 270.578L73.3753 284.286C74.7171 279.772 65.1567 272.918 51.9902 269.157Z" fill="#F0512D"/>
<path d="M47.21 285.79C60.3765 289.551 72.1173 288.882 73.4591 284.369L25.825 270.661C24.3993 275.258 34.0435 282.028 47.21 285.79Z" fill="#F0512D"/>
<path d="M73.3753 284.285L25.7411 270.661L73.3753 284.285Z" fill="#F0512D"/>
<path d="M230.702 57.936C226.425 46.652 220.052 36.5382 211.833 27.8453C203.866 19.4867 194.39 12.7999 183.823 8.03553C173.256 3.27116 162.019 0.596427 150.362 0.1785C138.369 -0.323013 126.544 1.59945 115.223 5.86231C103.901 10.1252 93.7541 16.4777 85.0323 24.7526C76.646 32.6932 69.937 42.1384 65.1568 52.6702C60.3766 63.2019 57.693 74.4024 57.2737 86.0207C56.7705 97.9735 58.6993 109.759 62.9763 121.043L75.1365 153.223L90.3157 193.344C88.6384 188.914 97.6118 181.392 110.443 176.544C123.274 171.696 135.015 171.445 136.692 175.875L120.339 132.661L109.353 103.49C101.553 82.8445 111.952 59.8585 132.75 52.0015C153.465 44.228 176.527 54.5926 184.41 75.3218L211.749 147.707C210.072 143.277 219.045 135.754 231.876 130.906C244.707 126.058 256.448 125.807 258.126 130.237L230.702 57.936Z" fill="#6EA99E"/>
<path d="M165.96 252.523L150.361 306.436C151.703 301.838 163.444 301.17 176.611 305.015C189.777 308.776 199.337 315.546 197.996 320.144L211.665 272.834C193.635 277.515 174.598 269.073 165.96 252.523Z" fill="#EE7D50"/>
<path d="M194.138 323.236C195.144 323.319 196.067 323.403 197.073 323.403L197.996 320.143C197.66 321.564 196.235 322.567 194.138 323.236Z" fill="#F0512D"/>
<path d="M150.362 306.436L150.11 307.355C150.194 307.355 150.194 307.439 150.278 307.439C150.278 307.104 150.278 306.77 150.362 306.436Z" fill="#F0512D"/>
<path d="M150.361 306.436L197.996 320.144L150.361 306.436Z" fill="#F0512D"/>
<path d="M176.611 305.014C163.444 301.253 151.703 301.922 150.361 306.435L197.996 320.143C199.337 315.546 189.777 308.776 176.611 305.014Z" fill="#F0512D"/>
<path d="M150.278 307.439C154.806 310.531 159.586 313.29 164.618 315.546C174.011 319.809 183.907 322.317 194.138 323.153C196.235 322.484 197.576 321.481 197.996 320.06L150.362 306.352C150.278 306.77 150.278 307.104 150.278 307.439Z" fill="#F0512D"/>
<path d="M211.665 147.707L258.042 130.321L211.665 147.707Z" fill="#F0512D"/>
<path d="M231.793 130.906C218.962 135.754 209.988 143.276 211.665 147.706L258.042 130.237C256.364 125.807 244.624 126.141 231.793 130.906Z" fill="#262262"/>
<path d="M138.872 181.559L136.776 175.959C135.098 171.529 123.358 171.779 110.527 176.627C97.6956 181.475 88.7222 188.998 90.3995 193.428L95.7667 207.638L117.739 265.813C122.016 277.097 128.389 287.211 136.608 295.904C140.717 300.25 145.246 304.095 150.11 307.522L150.362 306.603L165.96 252.523C165.289 251.186 164.618 249.765 164.031 248.26L138.872 181.559Z" fill="#262262"/>
<path d="M285.465 202.622L258.125 130.237L211.749 147.707L239.089 220.092C246.888 240.737 236.489 263.723 215.691 271.58C214.349 272.082 213.007 272.5 211.665 272.834L197.996 320.143L197.073 323.403C197.409 323.403 197.744 323.403 198.08 323.487C210.072 323.988 221.897 322.066 233.218 317.803C244.54 313.54 254.687 307.188 263.409 298.913C271.795 290.972 278.504 281.527 283.284 270.995C288.065 260.463 290.748 249.263 291.167 237.645C291.671 225.692 289.742 213.906 285.465 202.622Z" fill="#262262"/>
</svg>
