<svg xmlns="http://www.w3.org/2000/svg" viewBox="0 0 2560 1440"><defs><style>.cls-1{fill:#dcf4f3;}.cls-2{fill:#e2e2e2;}.cls-3{fill:#fbfbfb;}.cls-10,.cls-11,.cls-4{fill:none;stroke-miterlimit:10;}.cls-4{stroke:#fbfbfb;}.cls-11,.cls-4{stroke-width:3px;}.cls-5{fill:#c6c6c6;}.cls-6{fill:#4f4f4f;}.cls-7{fill:#8e8e8e;}.cls-8{fill:#aaa;}.cls-9{fill:#6d6d6d;}.cls-10{stroke:#6d6d6d;stroke-width:1.52px;}.cls-11{stroke:#c6c6c6;}.cls-12{fill:#775b45;}.cls-13,.cls-21{fill:#232323;}.cls-13{fill-opacity:0.2;}.cls-14{fill:#b28b67;}.cls-15{fill:#493f38;}.cls-16{fill:#997659;}.cls-17{fill-opacity:0.1;}.cls-18{fill:#c4a490;}.cls-19{fill:#d8b59c;}.cls-20{fill:#303030;}</style></defs><title>junction-website-illustrations</title><g id="a1_our_story" data-name="a1/our story"><path id="shape" class="cls-1" d="M702.71,432.39C659.28,449.09,588.28,473.2,553.4,539c-7.83,14.76-16.94,37.34-21.4,100-5.2,73-10.3,144.73,17.39,235.17,16.92,55.25,52.79,161.32,153.61,230.75,22.81,15.71,42.71,22.9,56.54,28.32,84.59,33.13,128.18,12.38,293.46,19.76,45,2,88.65,5.64,117,8,25.25,2.1,66.93,5.6,114.81,11.34,72.72,8.72,122.48,18.13,139.51,20.92,76.08,12.46,285.94,21.59,385.68-86.26,71.74-77.57,8.27-131.07,82-299,66.54-151.57,146.1-171.44,140.27-264.48-5.37-85.69-81.75-171.62-159.13-191.41-98.89-25.29-139.7,62.87-267.3,77C1472.93,443.85,1455.5,355,1281.66,314.24,1080.4,267,915.25,350.67,702.71,432.39Z"/><g id="trophy"><path class="cls-2" d="M1873,894.4c18.12,4.72,32.55,16.76,34.8,30.66,3.25,20.05-18.4,46.92-53.86,48.06l9.95-17.4c20.24-3.23,30.81-18.78,28.17-29-1.79-7-9.86-12.12-19.06-14.09Z"/><path class="cls-2" d="M1738.74,894.4c-18.12,4.72-32.56,16.76-34.81,30.66-3.24,20.05,18.41,46.92,53.86,48.06l-9.94-17.4c-20.24-3.23-30.81-18.78-28.17-29,1.79-7,9.86-12.12,19.06-14.09Z"/><path class="cls-2" d="M1737.91,865.4a347,347,0,0,0,130.92,0c2.23,8.85,17.88,75-22,117.25a92.52,92.52,0,0,1-24.55,18.47.5.5,0,0,0,.07.92,7.85,7.85,0,0,1,.14,14.89.31.31,0,0,0,.07.59c3.67.63,6.2,3.76,6,6.56s-3,5.66-6.85,5.85a1.25,1.25,0,0,0-1.12,1.59,11.24,11.24,0,0,0,4.66,6.65,11,11,0,0,0,4.4,1.63,3.57,3.57,0,0,1,3,3.55v2.32a1.61,1.61,0,0,0,1.61,1.61h4.83a5.23,5.23,0,0,1,5.23,5.17l.7,54.06a4.63,4.63,0,0,0,4.63,4.57h5.59a3.1,3.1,0,0,1,3.1,3.1v7.44a4.38,4.38,0,0,1-4.38,4.38h-98.33a4.18,4.18,0,0,1-4.18-4.18v-6.75a4,4,0,0,1,4-4h5.3a4,4,0,0,0,4-4l.71-54a5.09,5.09,0,0,1,5.08-5h4.25a1.35,1.35,0,0,0,1.34-1.5l-.22-2a4.12,4.12,0,0,1,3.14-4.48,18.33,18.33,0,0,0,11.4-8.13.82.82,0,0,0-.64-1.26,7.12,7.12,0,0,1-6.88-6.7,7,7,0,0,1,5.61-6.53.46.46,0,0,0,.09-.86,8.37,8.37,0,0,1-.09-15.16.84.84,0,0,0,0-1.52,91.48,91.48,0,0,1-23.85-16.53C1722.67,942.77,1736,874.49,1737.91,865.4Z"/><rect class="cls-3" x="1784.31" y="1060.95" width="45.57" height="38.95" rx="3.57" ry="3.57"/><path class="cls-4" d="M1752.82,886.94a154,154,0,0,0,18.23,84.52"/><path class="cls-4" d="M1764.42,905.17a133.08,133.08,0,0,0,9.95,51.38"/></g><g id="book"><rect class="cls-5" x="1402" y="724" width="72" height="406" rx="9.27" ry="9.27"/><rect class="cls-6" x="1409" y="746" width="58" height="7" rx="1.57" ry="1.57"/><rect class="cls-6" x="1409" y="759" width="58" height="7" rx="1.57" ry="1.57"/><rect class="cls-6" x="1409" y="773" width="58" height="7" rx="1.57" ry="1.57"/></g><g id="book-2" data-name="book"><rect class="cls-7" x="1475" y="674" width="77" height="456" rx="10.15" ry="10.15"/><rect class="cls-6" x="1401.5" y="895.5" width="224" height="13" rx="4.21" ry="4.21" transform="translate(611.5 2415.5) rotate(-90)"/><rect class="cls-6" x="1485" y="692" width="58" height="7" rx="1.57" ry="1.57"/><rect class="cls-6" x="1485" y="706" width="58" height="7" rx="1.57" ry="1.57"/></g><g id="book-3" data-name="book"><rect class="cls-2" x="1552" y="745" width="72" height="385" rx="9.02" ry="9.02"/><rect class="cls-5" x="1553.5" y="761" width="69" height="11" rx="1.75" ry="1.75"/><rect class="cls-5" x="1554" y="776" width="69" height="11" rx="1.75" ry="1.75"/><rect class="cls-5" x="1559" y="1062" width="58" height="58" rx="3.68" ry="3.68"/></g><g id="book-4" data-name="book"><rect class="cls-5" x="1635.67" y="765.88" width="72" height="362.99" rx="8.77" ry="8.77" transform="matrix(1, -0.07, 0.07, 1, -59.23, 113.11)"/><rect class="cls-2" x="1655.05" y="864.74" width="34.15" height="172.17" rx="4.16" ry="4.16" transform="translate(-59.45 113.15) rotate(-3.81)"/></g><g id="book-5" data-name="book"><rect class="cls-5" x="1191.83" y="930.83" width="56.69" height="341.66" rx="7.54" ry="7.54" transform="translate(118.52 2321.83) rotate(-90)"/><rect class="cls-8" x="1047.97" y="1098.71" width="45.67" height="5.89" rx="1.28" ry="1.28" transform="translate(-30.85 2172.46) rotate(-90)"/><rect class="cls-8" x="1058.91" y="1098.71" width="45.67" height="5.89" rx="1.28" ry="1.28" transform="translate(-19.91 2183.4) rotate(-90)"/><rect class="cls-8" x="1070.69" y="1098.71" width="45.67" height="5.89" rx="1.28" ry="1.28" transform="translate(-8.13 2195.18) rotate(-90)"/></g><g id="book-6" data-name="book"><rect class="cls-8" x="1105.53" y="827.16" width="60.62" height="431.68" rx="8.77" ry="8.77" transform="translate(92.84 2178.84) rotate(-90)"/><rect class="cls-5" x="1029.81" y="1037.88" width="212.05" height="10.24" rx="3.63" ry="3.63" transform="translate(2271.68 2086) rotate(-180)"/><rect class="cls-5" x="917.52" y="1039.29" width="45.67" height="6.63" rx="1.36" ry="1.36" transform="translate(-102.25 1982.96) rotate(-90)"/><rect class="cls-5" x="930.77" y="1039.29" width="45.67" height="6.63" rx="1.36" ry="1.36" transform="translate(-89 1996.21) rotate(-90)"/></g><g id="book-7" data-name="book"><rect class="cls-2" x="1159.96" y="832.78" width="56.69" height="303.12" rx="7.1" ry="7.1" transform="translate(203.96 2172.65) rotate(-90)"/><rect class="cls-5" x="1026.51" y="980.01" width="54.33" height="8.66" rx="1.38" ry="1.38" transform="translate(69.33 2038.02) rotate(-90)"/><rect class="cls-5" x="1038.32" y="979.62" width="54.33" height="8.66" rx="1.38" ry="1.38" transform="translate(81.53 2049.43) rotate(-90)"/><rect class="cls-5" x="1286.33" y="961.51" width="45.67" height="45.67" rx="2.9" ry="2.9" transform="translate(324.82 2293.51) rotate(-90)"/></g><g id="plant1"><path class="cls-9" d="M1155.25,901.36l-7.36,52.91a3.81,3.81,0,0,1-3.73,3.35h-52.59a3.81,3.81,0,0,1-3.73-3.35l-7.36-52.91a3.87,3.87,0,0,1,3.73-4.48h67.31A3.87,3.87,0,0,1,1155.25,901.36Z"/><path class="cls-9" d="M1166.27,888.83v9.68a2.61,2.61,0,0,1-2.74,2.46h-92a2.61,2.61,0,0,1-2.74-2.46v-9.68a2.61,2.61,0,0,1,2.74-2.46h92A2.61,2.61,0,0,1,1166.27,888.83Z"/><path class="cls-8" d="M1112.67,749.4c9.07-.81,15.21,7.64,15.59,8.18.65.92,1.86,2.84,3.25,13.43,1.12,8.54,1.73,13.25,1.3,19.86-.49,7.43-1.6,6.47-2.6,15.77-1.21,11.25.28,13.89-2.6,18.69s-8.66,9.35-12.34,8.18c-3-.94-3.71-5.3-4.55-10.52-1.31-8.14,0-11.89,0-18.69a59,59,0,0,0-3.9-19.86c-4.53-13.14-9.63-15-8.45-21.61C1099.45,756.83,1105.11,750.07,1112.67,749.4Z"/><path class="cls-8" d="M1140,840.52c-4.07.69-9.6.2-11-2.34-1.15-2,.78-4.51,3.25-8.76,4-6.84,1.65-5,7.15-15.77,6.51-12.73,9.77-19.09,14.94-22.2,5.45-3.27,14.49-5.81,18.84-2.33s2.11,11.15,1.3,14c-1.58,5.62-4.16,7.87-13.64,18.69C1148.72,835.54,1146.28,839.43,1140,840.52Z"/><path class="cls-8" d="M1142.55,855.12c1.19-5.51,5.07-8,13.65-15.77,13.5-12.18,10.51-11.9,16.24-15.77,3.35-2.27,18.48-12.49,35.74-8.76,3.13.67,17,3.66,20.14,14,1.64,5.35.4,12.51-4.55,16.36s-9.6,1.18-25.34,3.5c-7,1-11.67,1.73-17.54,4.09-6.52,2.63-9.07,5.14-22.74,12.27-6.56,3.41-8.84,4.33-11.05,3.5C1143,867,1141.44,860.33,1142.55,855.12Z"/><path class="cls-8" d="M1105.2,836.72c1.36,3.71,2.57,6,1.94,9.35-.86,4.55-4.86,9.17-7.79,8.76s-2.34-6.05-7.15-12.85c-3.21-4.54-5.4-4.69-13.64-11.1-11.34-8.83-9.42-10.29-17.54-15.77-10.17-6.86-14.1-5.21-19.5-10.51s-11.2-15.38-7.14-21.62c4.66-7.16,20.39-6.79,30.53-2.92,6.32,2.42,11.36,8,21.44,19.28,8.48,9.45,12.76,14.31,15,21C1103.26,826.4,1102.1,828.3,1105.2,836.72Z"/><path class="cls-8" d="M1047.05,825.91c5.09-2.8,12.37,1.23,17.54,4.09,4.72,2.62,7.6,5.4,11.69,9.35,5.64,5.44,8.46,8.16,10.4,12.26,4,8.45,2.79,18.63,0,19.28-1.21.28-2.13-1.37-6.5-5.84-2.56-2.63-5.82-5.45-12.34-11.1-7-6-10.43-9-13-10.51-6.78-3.92-10.25-3.76-11.69-7C1041.6,832.93,1043.45,827.9,1047.05,825.91Z"/><path class="cls-10" d="M1130.53,920.24a98,98,0,0,1-3.89-62.49c8.44-31,29.79-49.33,37.68-55.49"/><path class="cls-10" d="M1108.77,917.62a450.39,450.39,0,0,0,11.69-118c-.41-12.17-1.32-23.86-2.6-35"/><path class="cls-10" d="M1108.77,917.62c2.34-13.68,6.4-49.87-15.59-87.62a143.93,143.93,0,0,0-40.29-43.8"/><path class="cls-10" d="M1126,929.59c-1.16-4.46-8.53-35.33,14.29-63.08,25.18-30.62,65.36-31,69.52-31"/><path class="cls-10" d="M1099,919.37a85.85,85.85,0,0,0-11-52c-11.18-19.45-27.13-30.32-35.09-35"/></g><g id="kasvi"><path class="cls-2" d="M735.61,1065.14c16.61-9.09,25.78-27.82,44.1-65.28,4.63-9.48,8.52-18.23,5.35-27.34-3.09-8.92-12.35-16.47-17.66-14.61-5.72,2-2.44,13.4-12,27.19-4.41,6.37-10.81,12.18-12.56,11.08-3.65-2.3,16.93-32,16.69-67.8,0-4.07-.36-13.57-6.1-22.87-4.72-7.63-13.42-15.67-17.69-13.66-3.64,1.72-1.36,9.5-2.45,24.57-1,14.57-5.09,33.72-9.29,33.88-3.89.14-8.34-15.93-9.77-28.63-3.75-33.51,21.84-52,13.77-64.08-4.83-7.22-19.41-9.72-28.31-4.43-24.48,14.56-2,85.89-12.43,88.73-5,1.35-15.16-13.51-19.23-28.85-3.6-13.56-.1-18.76,1.08-47.32,1.51-36.65-3.58-44.19-8.39-47.54-1-.71-7.09-5.15-12.24-3.12-17.81,7-.43,81.77-7.1,83.17-3.19.67-10.12-15.8-13.52-30.14-.67-2.84-2-9.15-3.55-31.33-1.85-27.45-.89-34.73-3.92-35.6-4.22-1.19-13.65,10.77-15.7,23.79-1.68,10.7,2.2,18.44,0,19.42s-10.16-6.17-13.37-15.93c-5.27-16,6.83-24.22,3.81-42.53-2.46-14.87-13.28-26.71-16.94-25.48-4.83,1.63,2.17,26.19-3.49,28.33-4,1.52-13.28-8.61-18-20.29-7.51-18.6.13-32.23-5.82-35.64-6.46-3.71-24.56,7.12-25.53,19.3-.83,10.36,11.37,13.71,23.81,35.58,7.69,13.52,11,26.28,9.32,27.2-1.43.77-5.5-7.4-16.24-14.57-3.47-2.33-13.55-9.06-17.38-6.08s-1.31,16.09,5.61,24.27c3.26,3.86,8.92,7.56,20.25,15,2.56,1.67,2.29,1.44,4.9,3.14,13.58,8.86,21.28,13.89,20.45,17-.61,2.27-5.66,3.6-10,3.09-12.84-1.52-16-18.65-23.73-18.06-6.46.49-13.53,13.13-10.42,21.07,2.27,5.79,8.61,5.58,28.53,15.32,6.86,3.36,11.22,5.49,16.37,8.9,11.52,7.63,26.87,21.6,24,27.53-1.64,3.37-9.2,4.21-14.72,2-9-3.53-7-12.84-16.59-20.26-10.85-8.42-25.13-5.54-28.29-4.9-4.55.91-11.44,2.3-12.94,6.8-1.86,5.58,5.29,13.78,12.38,17.8,9,5.11,14.62,1.67,24.44,7.66,4.53,2.76,6,5.12,9.29,8.26,11.49,11,22.26,9.6,42.69,17.07,13.62,5,33.83,14.73,32.71,19.21-1,3.81-17.46,4.34-31.74.7-8.21-2.1-10.33-4.2-30-13.47-23.14-10.9-27-11.18-30.56-9.69-8.11,3.4-13.17,15.4-10.5,24.38,1.7,5.73,6.63,10.53,23.76,17.11,2.83,1.09,46.67,17.66,88.09,19.53a41.08,41.08,0,0,1,19.29,5.64c6.1,3.68,12.89,10.18,11.54,13-1,2.11-6.1,1.59-31.18-3.08-26.26-4.88-39.39-7.33-40.07-7.54a77.33,77.33,0,0,0-25.48-3.89c-6.33.15-10.06.28-11.42,2.58-3.52,5.93,9.26,25.39,27.65,33.3,16,6.88,20.74-1.67,48.17,5.36,8.11,2.07,16.87,4.39,26.75,10.55,9.2,5.74,10.52,9.29,16.77,11.74C714.41,1076.74,729.51,1068.48,735.61,1065.14Z"/><path class="cls-11" d="M726.75,1121.75c3.54-64.48-13.2-104.14-29.28-128.5-24.18-36.65-51.59-45.85-84.08-91.87a291.65,291.65,0,0,1-41.57-87.12"/></g><g id="collegepants_ball" data-name="collegepants &amp; ball"><path id="Skin" class="cls-12" d="M1731,852.58c-16.18-26.61-28.43-50-33.69-62.44-9.09-21.35-16.25-40.21-18.35-47.41-5-17,20.07-21.12,24.41-12.89,6.67,12.38,20.7,54.28,39.3,117.68Zm-158.37-70.13c11.14-6,50.15-25.53,69.4-32,5.51-1.89,10.83-3.65,15.87-5.28,15-4.88,26.37,21.83,11.85,25.84-36.17,9.8-87.6,21.69-92,22.93C1571.6,795.47,1565.63,786.23,1572.62,782.45Z"/><path id="Leg-Back" class="cls-9" d="M1664,735.51l-62-22.47a4.59,4.59,0,0,1-3.06-3.56,4.34,4.34,0,0,1,3.82-5l2.58-.32a9.85,9.85,0,0,0,1.1,0c11.85.46,21.63,1.37,28.67,2.11,14.41,1.65,29.19,5.47,58.75,13.11a33,33,0,0,1,11.78,5.6,22.56,22.56,0,0,1,4.58,4.47,22.79,22.79,0,0,1,3.93,8.18c.22,1,.44,2,.76,2.93,3.63,12.25,8.19,24.68,11.89,37.53.68,2.23,1.34,4.36,2.11,6.49,4.94,13.09,7.18,23.9,10.1,36.13a2.32,2.32,0,0,1-1.58,2.71l-16.77,5.4a5.83,5.83,0,0,1-7.11-3.76,129.77,129.77,0,0,0-6.45-15.53c-7.09-14.14-14-20.94-20.91-30.67a140.41,140.41,0,0,1-19.12-39c0-.2-.14-.38-.17-.58l-.06-.5A4.37,4.37,0,0,0,1664,735.51Z"/><path id="Leg-Front" class="cls-7" d="M1610.86,762.52c-5.9-.49-11.38-.82-16-1-29.61-1.48-40.24-15.79-39.7-49.81a1.62,1.62,0,0,1,1.41-1.59l51.61-6.36a4.89,4.89,0,0,1,1.21-.05,8.05,8.05,0,0,1,1.22.15c29.64,5.81,48.61,11.74,48.61,11.74,19.81,6.22,33.35,10.59,39.53,18.29a17.55,17.55,0,0,1,4.21,9.56c.1,1.7.12,5.12-2.75,10.42-4.84,9-12.83,13.57-15.28,15-9.51,5.4-20.27,8.85-38.84,11.84-1.28.26-44.36,7.19-44.23,8.18l0,.2c-.17.22-1.35-.34-1.62-.91l-7.32-16a.83.83,0,0,1,.37-1.06Z"/><g id="Accessories_Shoe_Flat-Sneaker" data-name="Accessories/Shoe/Flat-Sneaker"><path id="shoe" class="cls-3" d="M1576.17,779a22.35,22.35,0,0,0-6.54,2.23,51,51,0,0,0-6.13,5.06,144,144,0,0,0,11.36,22.43,141.89,141.89,0,0,0,19.38,24.85c.75-.13,5-1.19,5.54-3.95a3.28,3.28,0,0,0-.42-2.48c-1.4-2.9-2.57-5.24-3.46-7.17l-4.48-28.34a1,1,0,0,0-1.12-.82h0l-4.37.81a17.17,17.17,0,0,1-5.55-4.86,16.88,16.88,0,0,1-1.87-6.18h0a2,2,0,0,0-2.31-1.72C1576.31,779,1576.31,779,1576.17,779Z"/></g><g id="Accessories_Shoe_Flat-Sneaker-2" data-name="Accessories/Shoe/Flat-Sneaker"><path id="shoe-2" data-name="shoe" class="cls-3" d="M1724.59,848a22.5,22.5,0,0,0-.87,6.86,51.17,51.17,0,0,0,1.86,7.73,133.92,133.92,0,0,0,56-6.9c.21-.73,1.1-5-1.13-6.71a3.29,3.29,0,0,0-2.41-.72c-3.22,0-5.84,0-8,0l-27.43-8.4a1,1,0,0,0-1.23.65h0l-1.19,4.28a17.16,17.16,0,0,1-6.8,2.85,16.31,16.31,0,0,1-6.37-1,2,2,0,0,0-2.56,1.33A.09.09,0,0,1,1724.59,848Z"/></g></g><g id="turban"><path class="cls-12" d="M1585,600l6.19-38.89c-4.89-5.15-8.35-11.57-8.26-19.08.34-21.45,30.35-18.38,36.73-7.92s7.17,37.87-.21,40.17c-3,1-9.35-.59-16-4.13l5.56,28.54"/><path class="cls-6" d="M1616.58,527.36a6,6,0,0,1,1.84,4.31,10.58,10.58,0,0,1-.44,2.93c-1.65,6.39-8.18,9.66-11.38,11.63-5.14,3.19-11.41,9.34-16.11,22.31a2.64,2.64,0,0,1-1.51,1.59,41.84,41.84,0,0,1-5,1.38,28.05,28.05,0,0,1-6,.32c-5.62-.19-9-.21-12.14-2.34a14.85,14.85,0,0,1-5-6,6.05,6.05,0,0,1-.48-1.38,37.93,37.93,0,0,1-.57-12.29c.44-3,.72-5.24,2.09-7.62,2.38-4,5.65-4.72,10.08-8.06a33.92,33.92,0,0,0,7.86-8.24,13.43,13.43,0,0,1,3.42-3.3,26.73,26.73,0,0,1,10.92-3.7C1605,517.78,1613.1,524.15,1616.58,527.36Z"/><path class="cls-13" d="M1569.47,535.74l-2.42,1.54a33.51,33.51,0,0,0,5.29,14.33A34.82,34.82,0,0,0,1585,562.94a42.26,42.26,0,0,1-10.7-12.44A41.57,41.57,0,0,1,1569.47,535.74Z"/><path class="cls-13" d="M1565.6,538.16l-2.86,2.66a45.17,45.17,0,0,0,8.87,15.84,47.21,47.21,0,0,0,18.14,13c.19-.21.37-.52.56-.74-5.57-3-16.66-9.9-22.29-23.11A42.63,42.63,0,0,1,1565.6,538.16Z"/></g><g id="bomber_jacket" data-name="bomber jacket"><path id="Skin-2" data-name="Skin" class="cls-12" d="M1668,667.24l36.16-16a85.9,85.9,0,0,1,18.36-14.44c1.8-.61,4.8-.72,1.61,4s-6.37,9.82-5.07,11.51,5-.21,6.51,2.49c1,1.79-5.29,3.91-18.88,6.45l-27,20.86ZM1521.53,672l20.51,4q-30.75,57.68-33,61.19c-3.39,5.2-.17,14.7,1,19.69-7.3,1.72-4.43-9.29-13.62-7-8.4,2.12-15.48,7.44-23.4.26-1-.9-1.71-3.7,1.59-5.11,8.19-3.52,20.27-10.25,22.16-12.85Q1500.88,727,1521.53,672Z"/><path id="Coat-Back" class="cls-2" d="M1599,594.92l6-1a2.24,2.24,0,0,1,1.91.6c18.34,18.65,26,61.43,38.47,67.1,11.51,5.27,27.6.43,46.78-6.42a2.19,2.19,0,0,1,2.7,1.1c2.11,4.69,4.33,9.28,6.44,14a2,2,0,0,1-.5,2.4,86.54,86.54,0,0,1-33.85,20c-4.19,1.31-24.58,7.66-39.29,2.4-23.62-8.44-38.42-48.81-30.45-98.33A2.12,2.12,0,0,1,1599,594.92Z"/><path id="Shirt" class="cls-6" d="M1560.11,703.92c15.22,8.76,26.43,9.23,34,7.91,10.4-1.83,13.59-7,26-7.07,8.2,0,15,2.27,17.89-1.44,1.9-2.41,1.19-5.8.88-7.2-5.67-28.39-27.25-58.93-28.75-98.73a5.11,5.11,0,0,0-4.21-4.79l-13.1-2.07a7.08,7.08,0,0,0-7.3,3.52C1569.21,622.69,1563.4,657.71,1560.11,703.92Z"/><path id="Coat-Front" class="cls-3" d="M1551,665.94a155.08,155.08,0,0,1-16.88,49,152.77,152.77,0,0,1-12.75,19.53,3.11,3.11,0,0,1-3,1.11l-18.21-3.25a3.05,3.05,0,0,1-2.5-3.5,198.81,198.81,0,0,1,14.46-51.93c18.1-41.85,45.74-65.82,53.72-72.34a195.84,195.84,0,0,1,20.76-14.85h.3l6.4,0a3.23,3.23,0,0,1,2.91,1.89,255.17,255.17,0,0,1,16.43,130.56,3.1,3.1,0,0,1-2.89,2.71c-18,1-36.1,1.89-54.1,2.94a3.12,3.12,0,0,1-3.1-2.09A95.49,95.49,0,0,1,1547.3,699,94.34,94.34,0,0,1,1551,665.94Z"/></g><g id="surfer_guy" data-name="surfer guy"><g id="Head_Front_Rad" data-name="Head/Front/Rad"><g id="Head"><path class="cls-14" d="M875,699.69c-5.37-4.64-9.44-10.69-10.08-18.18-1.78-21.38,28.39-21.27,35.77-11.48s10.85,37,3.72,40c-2.84,1.25-9.35.33-16.37-2.54l8.43,27.84L872.72,739Z"/></g></g><path class="cls-15" d="M874.73,696.18a9.07,9.07,0,0,1,.85,2.91c.23,1.48.52,3.36-.38,4.1-.53.49-1.66.36-1.85,1.1h0c-.11.62-1,1.46-2.21,2.06a7.51,7.51,0,0,1-3.43.73,4.75,4.75,0,0,1-1.82-2,4.46,4.46,0,0,1-.3-2.58,2.85,2.85,0,0,0-.46-2.36h0a6.75,6.75,0,0,0-4.41-2.36,10.82,10.82,0,0,1-8.9-11.78,36.76,36.76,0,0,1,2.44-10.49c1-2.38,1.34-2.44,3.87-7.68,2.69-5.58,2.69-6.18,3.88-7.68a16.37,16.37,0,0,1,8.29-5.32,30.56,30.56,0,0,1,5.78-1.91,31.32,31.32,0,0,1,8.6-.61,7.21,7.21,0,0,0,2.5-.18,10,10,0,0,1,7.14,1,8.89,8.89,0,0,1,2.67,2.22,3.58,3.58,0,0,0,2.72,1.2,5,5,0,0,1,3.53,1.28c.88,1.08.42,2.06,1.6,3.8s2.26,1.57,2.43,2.66c.26,1.68-2.55,2.52-2.36,4.41.1,1.3,1.48,1.7,1.45,2.81s-1.52,2-2.66,2.44a18.26,18.26,0,0,1-4,.61,15.26,15.26,0,0,1-6.37-1.35,7,7,0,0,0-2.44-.74c-1.15-.22-2.29-.35-3.43-.58a1.08,1.08,0,0,0-1.25,1.1,5.59,5.59,0,0,1-1.32,4c-.79.73-1.57,1-3.8,1.59a37.38,37.38,0,0,0-3.56,1.16.68.68,0,0,0,0,1.31c.95.26,2,.41,3,.65.84.18,1.56.27,2.3.46a1,1,0,0,1,.87,1.08,4.11,4.11,0,0,1-3.31,4.15,2.06,2.06,0,0,1-.72-.09c-3.64-2-7-1.75-8.4,0-1.1,1.39-.58,3.43-.38,4.11C871.38,693.46,873.39,693.35,874.73,696.18Z"/></g><g id="pants"><path id="Leg" class="cls-14" d="M852.64,826.42a2.11,2.11,0,0,0-1.77,2.86c11.2,26,124.54,84.75,125.4,86.68q.56,1.32-29.26,88.31l10.48,3.08q48.81-93.44,45.26-102.73-5.28-13.27-97-82.14Z"/><g id="Accessories_Shoe_Flat-Sneaker-3" data-name="Accessories/Shoe/Flat-Sneaker"><path id="shoe-3" data-name="shoe" class="cls-6" d="M943.12,1002.62a22.11,22.11,0,0,0-3.42,6,50.36,50.36,0,0,0-1.23,7.85A137.13,137.13,0,0,0,965.75,1027a143.37,143.37,0,0,0,27.08,4.47c.48-.6,2.92-4.18,1.52-6.64a3.26,3.26,0,0,0-2-1.57c-3-1.24-5.4-2.22-7.35-3.07L962.91,1002a1,1,0,0,0-1.39.14h0l-2.73,3.5a17,17,0,0,1-7.37,0,16.54,16.54,0,0,1-5.5-3.39h0a2,2,0,0,0-2.87.25C943.25,1002.55,943.15,1002.52,943.12,1002.62Z"/></g><polygon id="Leg-2" data-name="Leg" class="cls-16" points="863.41 825.56 821.76 953.49 779.4 1062.31 791.36 1061.35 903.98 822.32 863.41 825.56"/><path id="shoe-4" data-name="shoe" class="cls-6" d="M777.15,1064.29a51,51,0,0,0,1.52,7.81,140.68,140.68,0,0,0,26.26.91,134.24,134.24,0,0,0,30-5.41c.24-.72,1.31-4.92-.84-6.75a3.3,3.3,0,0,0-2.38-.81c-3.22-.15-5.83-.24-7.95-.37l-27.05-9.58a1,1,0,0,0-1.26.6h0l-1.36,4.23a17.36,17.36,0,0,1-6.92,2.56,16.67,16.67,0,0,1-6.33-1.3,2,2,0,0,0-2.61,1.21.1.1,0,0,1,.11.09,22.09,22.09,0,0,0-1.16,6.81"/><path id="Pant" class="cls-6" d="M950.53,991.85l13.13,3.67a2.47,2.47,0,0,0,2.55-.81c9.11-11.56,19.77-30.07,29.66-54.33,7.22-17.63,10.72-26.64,8.64-36.3-3.86-18.15-21.19-24.19-58.83-52-14.82-11-26.53-20.66-34.39-27.45a9.85,9.85,0,0,0-7.11-2.34l-51.44,4.11a3.82,3.82,0,0,0-3.35,4.48c11.25,54.17,117.65,81.29,119.23,83.57s-11.24,31.29-19.78,75A2.33,2.33,0,0,0,950.53,991.85Z"/><path id="Pant-2" data-name="Pant" class="cls-9" d="M785.18,1040.48l22.46,2.42a2.3,2.3,0,0,0,2.31-1.19c8.52-15.23,18.07-31.24,28.81-47.55,6.17-9.42,12.36-18.54,18.49-27.16a124.21,124.21,0,0,0,16.54-32.82c4.69-14.22,9.36-28.53,13.9-43.24q10.44-33.35,19.64-65.57a2.38,2.38,0,0,0-2.44-3l-51.34,4.1a6.13,6.13,0,0,0-5.54,4.76Q835.73,884.55,823.54,938a49.21,49.21,0,0,1-2.74,8.44l-37.56,91.08A2.31,2.31,0,0,0,785.18,1040.48Z"/></g><g id="shirt_wide" data-name="shirt wide"><path class="cls-16" d="M947.9,781.15l39-8.45c7.53-5,14.57-8.56,21-10.57,1.88-.25,4.83.23.73,4.26s-8.27,8.47-7.32,10.3,5,.81,5.92,3.85c.65,2-6,2.77-19.86,2.55l-30.92,15.15Z"/><path class="cls-16" d="M784.86,902.7c7-5.56,16.87-15.26,18-18.26,1.67-4.24,9-32.3,22.09-84.57l21.84-1.61q-29.6,83.57-30.89,87.57c-1.85,5.86,3.72,14.25,6.18,18.78-6.54,3.62-6.72-7.8-15-3.05-7.59,4.31-13,11.34-22.46,6.47"/><path id="Clothes-Back" class="cls-5" d="M882.24,725l11.93-.13a2.86,2.86,0,0,1,2.77,2.19c7.43,34.83,30.53,55.7,76.08,46.93a6.56,6.56,0,0,1,7.61,4.92l7.61,34.52a7.6,7.6,0,0,1-6.22,9.11c-44.31,6.66-83.85-10.32-95.85-58.73-3.06-12.2-5.65-24.83-6.51-35.9A2.55,2.55,0,0,1,882.24,725Z"/><path id="Clothes" class="cls-2" d="M870.47,720.69l23.24,3.5a4.06,4.06,0,0,1,3.39,3.55c3.82,41.33,18.82,67.74,28.49,97.88a2.62,2.62,0,0,1-2.24,3.39l-66.7,5.2q-.1,16,.75,32.74a2.35,2.35,0,0,1-2.21,2.48l-46,3.58a3.35,3.35,0,0,1-3.6-3.73q11-92.17,62-147.07a3.62,3.62,0,0,1,2.79-1.52Z"/><path id="Shade" class="cls-17" d="M862.66,769.75c.37,27.85,3.12,49,8.14,63.26l-14.25,1.11C856.79,811.53,858.63,790.12,862.66,769.75Z"/></g><g id="shorts"><path id="Leg-3" data-name="Leg" class="cls-18" d="M1340.48,711.84c-17.9,36.22-35.94,72.49-53.84,108.71q-22.17,48.71-44.39,97.51l13.49,4.75,50.89-91.22a24.85,24.85,0,0,1,2.69-4l78.85-98.22Z"/><path id="Leg-4" data-name="Leg" class="cls-19" d="M1347.73,714.15c-9.18,65.56-17.13,104.56-17.15,114.28s-.09,45.37,3,120.27L1346,958.92c9.18-76.89,12-116.85,13.71-122.73s14.88-39.81,41.09-102.07Z"/><g id="Accessories_Shoe_Flat-Sneaker-4" data-name="Accessories/Shoe/Flat-Sneaker"><path id="shoe-5" data-name="shoe" class="cls-8" d="M1347.91,953.87a2.06,2.06,0,0,0-2.18-1.89,16.68,16.68,0,0,1-6.44-.5,17.11,17.11,0,0,1-5.94-4.37l-.14-4.44h0a1,1,0,0,0-1-.92l-28.65,1.72c-2.07-.46-4.61-1.09-7.74-1.85a3.28,3.28,0,0,0-2.51.13c-2.57,1.17-2.71,5.5-2.67,6.26a194.45,194.45,0,0,0,28.59,12.89,183.43,183.43,0,0,0,24.19,7,51.06,51.06,0,0,0,3.63-7.07,22.26,22.26,0,0,0,.77-6.87A.09.09,0,0,1,1347.91,953.87Z"/></g><g id="Accessories_Shoe_Flat-Sneaker-5" data-name="Accessories/Shoe/Flat-Sneaker"><path id="shoe-6" data-name="shoe" class="cls-8" d="M1257.75,918.87c-2.32-1.19-4.28.31-6.43-.5a17,17,0,0,1-5.94-4.37l-.15-4.44h0a1,1,0,0,0-1-.92l-28.64,1.72c-2.07-.46-4.61-1.09-7.75-1.85a3.25,3.25,0,0,0-2.5.13c-2.58,1.17-2.71,5.5-2.68,6.26a171.61,171.61,0,0,0,18.3,9,181.21,181.21,0,0,0,34.49,10.84,50.75,50.75,0,0,0,3.62-7.07c1.8-4.78,1.1-6.32.77-6.87A4.3,4.3,0,0,0,1257.75,918.87Z"/></g><path id="Bottom" class="cls-7" d="M1340.9,711.57a2.79,2.79,0,0,0-3.19.83A141,141,0,0,0,1320,740.05a150.48,150.48,0,0,0-9.26,24.3,3.11,3.11,0,0,0,1.73,3.64c4.7,2,9.82,4,15.09,5.89a259.05,259.05,0,0,0,26.91,8c12.77-16.88,25.57-33.86,38.34-50.75Z"/><path id="Bottom-2" data-name="Bottom" class="cls-8" d="M1344.55,713a114,114,0,0,0-9.54,32.73,112.4,112.4,0,0,0,.07,28.77,4.47,4.47,0,0,0,1.9,3.18,92.23,92.23,0,0,0,27.1,13.19,90.11,90.11,0,0,0,22.1,3.72,2.38,2.38,0,0,0,2.36-2c1.82-12.24,4.25-25.22,7.56-38.82,1.47-6.18,3.09-12.2,4.73-18a1.61,1.61,0,0,0-1-2Z"/></g><g id="high_bun" data-name="high bun"><g id="Head_Front_Chongo" data-name="Head/Front/Chongo"><g id="Head-2" data-name="Head"><path class="cls-19" d="M1362.55,602.55l-23.63,4.19-1.08-29.06c-5.72,5-11.59,8-14.69,7.68-7.71-.56-13.18-27.42-9.35-39.06s32.35-21.48,37.56-.66c1.8,7.29-.1,14.33-3.69,20.45Z"/></g></g><path class="cls-20" d="M1345.38,554.31c-2.28-1.42-6.6-.56-9.67,2.73a12.81,12.81,0,0,0-4-5.39,15,15,0,0,0-7.59-2.71c-4.56-.52-6.42,1-9.21-.4a8.21,8.21,0,0,1-3.08-3c.75-2.07,3.91-10,12.28-13.86a21.39,21.39,0,0,1,8.28-2,14.67,14.67,0,0,1-2.44-5.16,15.65,15.65,0,0,1,.17-7.64c1.39-4.21,4.85-7,8.4-7.07a8.22,8.22,0,0,1,4.86,1.67,5,5,0,0,1,2-2.89c2.47-1.56,6.87-.21,10.31,3.75a8.66,8.66,0,0,1,8.17,3.13,8.41,8.41,0,0,1,1.63,6.31,16.8,16.8,0,0,1-4.92,9.5,15.28,15.28,0,0,1-6.95,3.77,26.66,26.66,0,0,1,7.42,10.37,27.81,27.81,0,0,1,.57,18.69c-4.12,5.4-9.82,7.63-13.47,5.94a7,7,0,0,1-3.07-3C1349.32,562.24,1348.24,556.14,1345.38,554.31Z"/></g><g id="collage"><g id="Body_Pointing-Forward" data-name="Body/Pointing-Forward"><path id="Skin-3" data-name="Skin" class="cls-19" d="M1307.89,657.11l-26.63-21.43c-13.51-2.74-19.67-5-18.68-6.82,1.54-2.6,5.26-.74,6.57-2.32s-1.74-6.81-4.86-11.61-.09-4.51,1.65-3.92A86,86,0,0,1,1284,625.88l35.85,16.73Zm-41.09,20.18c-6.9-4.36-13.18-7.07-19-8.3-11-2.3-15.52-4.41-21.24-10.76-3-3.41-5.88-10.44-3.34-13,1.69-1.71,12.78,5.49,17.13,6.12s-.31-9.4,2.06-8.45c3-.1,5.86,3.83,8.47,11.78l15.71,7.4Z"/></g><path class="cls-21" d="M1313.4,633.81a131.5,131.5,0,0,0,26.74,2.79,13.77,13.77,0,0,1-7.38,25.53,86.21,86.21,0,0,1-24.33-4.45s-15.06-5-23.1-14.75a3.74,3.74,0,0,1-1.23-2,13.13,13.13,0,0,1,.3-6.24,13.55,13.55,0,0,1,5-7.23,2,2,0,0,1,2-.23A130.52,130.52,0,0,0,1313.4,633.81Z"/><path class="cls-20" d="M1335.27,598.33c-.6,0-1.53,1.11-2.66,2.18-7.83,7.72-3.79,20.59-4.58,34.87A68.68,68.68,0,0,1,1321.8,660a3.19,3.19,0,0,1-2.08,1.83,61.36,61.36,0,0,1-14.37,2.53c-7.09.36-12.17-.72-21.21-2.64-12.1-2.63-21.25-4.65-26.94-5.89a2,2,0,0,0-2.13,1.14,104.29,104.29,0,0,0-6,21c-.51,2.94-.84,5.67-1.07,8.29a4.75,4.75,0,0,0,2.28,4.36,106.44,106.44,0,0,0,66.18,14.58c-3,29,5.36,36.63,9,39,7.53,4.93,16.29.86,42.85-3.76,14.07-2.4,25.91-3.77,34.47-4.62a2.35,2.35,0,0,0,2.07-2,94.48,94.48,0,0,0-.81-29.71c-2.88-15.24-7.31-17.16-14.41-37.15-8.21-23.22-5.42-29.71-14.06-47.19A106.16,106.16,0,0,0,1362,598.72a3.87,3.87,0,0,0-3.2-1.4C1350.86,597.63,1343.07,598,1335.27,598.33Z"/></g></g></svg>