<svg width="563" height="762" viewBox="0 0 563 762" fill="none" xmlns="http://www.w3.org/2000/svg">
<g clip-path="url(#clip0)">
<path d="M479.526 201.932C473.198 211.846 466.8 214.3 457.135 212.877C450.038 211.159 442.227 208.036 436.059 194.329L448.051 115.521C451.681 98.7529 443 77.5723 420.541 74.9076C400.861 73.1019 388.555 88.7617 385.625 100.704L372.728 185.648C366.257 195.787 358.174 197.974 349.41 196.564C346.441 196.004 333.412 191.731 329.656 178.086L344.076 87.6833C356.488 39.159 405.52 24.6556 429.451 29.8415C477.762 36.9855 498.793 87.3123 492.918 116.706L479.526 201.932Z" fill="#6EA99E"/>
<path d="M421.09 343.253C432.895 317.679 432.274 293.031 423.518 276.688L436.06 194.33C442.228 208.037 450.039 211.159 457.136 212.877C466.801 214.301 473.199 211.847 479.527 201.932L468.31 273.326C463.531 322.892 432.177 337.676 421.09 343.253Z" fill="#262262"/>
<path d="M365.615 345.139C355.554 340.44 347.204 335.146 340.409 329.333C327.395 318.18 320.056 304.991 317.178 290.079C315.262 280.245 315.273 269.638 316.887 258.332L329.672 178.062C333.429 191.706 346.458 195.98 349.427 196.539C358.19 197.95 366.29 195.738 372.745 185.623L362.131 255.469L360.395 266.803C358.507 282.434 363.294 291.886 370.593 297.95C375.062 301.646 380.45 304.065 385.852 305.861C384.167 320.954 379.255 327.554 365.615 345.139Z" fill="#262262"/>
<path d="M340.384 329.317L300.526 381.73C301.901 378.424 301.839 375.503 299.377 373.053C291.905 366.491 281.06 376.406 267.551 367.784C264.516 365.846 263.439 362.102 265.161 359.404L317.153 290.064C320.056 304.991 327.37 318.164 340.384 329.317Z" fill="#EF4136"/>
<path d="M300.526 381.73L266.056 427.071C249.358 418.453 229.803 416.341 220.592 419.143C220.99 418.519 221.252 418.053 222.315 416.553L265.129 359.454C263.407 362.152 264.484 365.896 267.519 367.833C281.029 376.456 291.889 366.516 299.345 373.103C301.839 375.503 301.901 378.424 300.526 381.73Z" fill="#EE7D50"/>
<path d="M406.298 365.058L354.368 432.436C355.352 429.303 355.463 426.386 352.886 424.39C347.032 419.846 329.042 427.625 318.265 419.165C314.956 417.053 313.649 413.231 315.298 410.593L363.989 347.194C364.542 346.492 365.079 345.816 365.59 345.123C379.23 327.538 384.167 320.954 385.892 305.852C386.137 303.548 386.733 298.445 382.958 295.966C379.765 293.893 373.594 296.21 370.633 297.941C363.319 291.902 358.548 282.425 360.435 266.794L362.172 255.461C376.393 251.392 394.689 248.729 413.989 264.737C417.784 267.897 421.005 271.956 423.518 276.688C432.258 293.057 432.895 317.679 421.09 343.253C412.128 357.954 409.605 360.315 406.298 365.058Z" fill="#EF4136"/>
<path d="M354.368 432.436L308.724 491.664C306.92 493.887 305.09 495.987 303.2 498.015C289.523 512.588 273.498 521.622 257.43 522.824C245.741 523.694 234.001 520.419 223.071 512.143C210.589 502.349 206.551 486.732 205.286 477.138C212.077 464.743 227.744 455.446 247.198 464.629C246.195 470.315 247.785 476.602 249.671 477.981C252.144 480.086 255.29 479.985 258.928 478.125C264.312 475.34 270.829 468.639 277.898 459.373L288.059 446.14L315.339 410.584C313.665 413.207 314.997 417.044 318.306 419.156C329.083 427.616 347.073 419.837 352.926 424.381C355.463 426.386 355.368 429.278 354.368 432.436Z" fill="#EE7D50"/>
<path d="M288.018 446.149L277.858 459.382C270.788 468.648 264.287 475.324 258.887 478.134C257.72 474.366 256.75 470.127 247.158 464.637C227.703 455.455 212.036 464.752 205.246 477.147C203.628 480.121 202.496 483.266 201.954 486.364L187.429 574.627C181.126 583.187 176.175 586.775 166.155 585.687C147.791 582.367 148.322 563.375 145.209 563.426L160.053 477.406C169.741 435.509 203.119 422.437 220.608 419.118C229.819 416.316 249.374 418.428 266.072 427.046C274.794 431.594 282.736 437.858 288.018 446.149Z" fill="#6EA99E"/>
<path d="M269.003 598.888C255.364 596.228 251.179 576.617 248.426 577.53L257.43 522.824C273.523 521.638 289.523 512.588 303.2 498.015C303.326 500.836 296.359 546.369 289.662 589.122C285.431 597.176 277.935 600.968 269.003 598.888Z" fill="#6EA99E"/>
<path d="M187.182 731.26C141.191 722.784 126.364 680.951 130.448 649.535L145.265 563.393C148.363 563.366 147.848 582.333 166.212 585.653C176.232 586.741 181.183 583.153 187.486 574.593L175.309 648.643C170.674 677.247 187.338 685.809 198.548 687.445C208.936 688.944 230.367 683.783 235.256 657.415L248.417 577.49C251.17 576.576 255.355 596.188 268.994 598.847C277.95 600.943 285.447 597.152 289.653 589.081C284.212 623.884 278.968 656.843 277.874 663.385C267.589 724.76 213.918 737.041 187.182 731.26Z" fill="#262262"/>
</g>
<defs>
<clipPath id="clip0">
<rect width="265.662" height="733.51" fill="white" transform="translate(395.045 0.361969) rotate(32.5469)"/>
</clipPath>
</defs>
</svg>
