<svg width="511" height="676" viewBox="0 0 511 676" fill="none" xmlns="http://www.w3.org/2000/svg">
<g clip-path="url(#clip0)">
<path d="M190.45 223.08C193.771 229.697 197.934 235.474 202.524 240.452C218.506 257.758 239.802 265.496 249.808 265.759C254.605 246.332 259.137 227.745 257.349 222.121C246.941 221.165 237.625 215.024 231.877 206.721C222.502 193.162 222.702 173.866 243.414 162.106L309.05 122.802C310.16 122.084 309.995 121.36 309.995 121.36C310.002 120.662 307.794 119.934 307.335 119.729C305.266 118.767 303.179 117.856 301.148 116.817C296.416 114.392 292.126 111.479 289.237 106.921C285.257 100.604 284.2 92.2446 286.721 85.1829C286.968 84.4787 286.503 84.4178 285.936 84.6823L218.886 125.236C192.731 139.347 182.741 164.77 182.172 187.382C181.806 201.522 185.133 214.578 190.45 223.08Z" fill="#262262"/>
<path d="M298.765 255.758L367.698 212.549C368.193 212.378 368.453 211.876 367.906 211.73C367.854 211.796 354.272 207.34 348.994 199.422C343.011 191.534 342.414 183.104 344.515 175.952C344.732 175.203 343.89 175.575 343.859 175.615L298.759 203.278C304.162 220.071 303.299 238.876 298.765 255.758Z" fill="#262262"/>
<path d="M150.604 318.617C161.139 320.097 178.636 308.94 182.206 311.297C183.411 312.08 184.068 313.27 184.72 314.797L202.537 240.462C197.934 235.474 193.784 229.707 190.463 223.09C185.123 214.591 181.819 201.532 182.172 187.382C178.86 191.36 165.568 208.157 161.276 225.801L140.177 311.211C140.002 315.102 144.581 317.835 150.604 318.617Z" fill="#F0512D"/>
<path d="M173.792 356.559L184.733 314.807C184.071 313.294 183.414 312.104 182.219 311.307C178.65 308.951 161.139 320.098 150.618 318.627C144.591 317.821 140.016 315.113 140.188 311.198L128.708 357.668C145.25 352.568 160.459 352.744 173.792 356.559Z" fill="#EE7D50"/>
<path d="M31.6851 446.749C38.4519 454.753 51.9394 456.494 58.8366 453.585L115.882 416.349C117.308 415.386 118.691 414.453 120.032 413.573C141.263 399.573 152.612 395.207 164.416 400.502C164.416 400.502 164.416 400.502 164.426 400.489C164.426 400.489 164.426 400.489 164.416 400.502C167.768 402.009 171.174 404.303 174.847 407.379C182.364 415.708 183.786 421.282 184.668 429.868C189.341 430.053 194.074 429.198 198.531 427.404C209.377 422.777 217.773 411.759 220.644 394.465C210.847 377.235 194.581 362.5 173.791 356.559C160.449 352.757 145.25 352.568 128.711 357.692C116.216 361.555 102.966 368.435 89.1483 379.051L36.4807 413.686C25.4171 426.39 24.3799 438.669 31.6851 446.749Z" fill="#6EA99E"/>
<path d="M231.891 206.732C238.691 204.003 246.572 205.689 250.824 209.533C254.87 212.982 256.277 216.84 257.362 222.132C259.15 227.755 254.618 246.343 249.821 265.769L237.24 321.294C237.335 323.818 240.116 327.716 243.992 329.181C257.829 334.217 277.689 319.923 281.158 321.776C282.822 322.297 283.435 324.177 283.308 326.188L298.778 255.768C303.299 238.876 304.175 220.081 298.762 203.302C295.831 194.196 291.044 185.699 283.983 178.405C271.573 167.612 260.019 162.573 243.441 162.127C222.725 173.863 222.525 193.16 231.891 206.732Z" fill="#F0512D"/>
<path d="M267.089 400.054L283.318 326.174C283.432 324.153 282.833 322.283 281.168 321.762C277.699 319.91 257.839 334.204 244.002 329.167C240.126 327.703 237.345 323.804 237.251 321.281L220.641 394.441C217.77 411.735 209.374 422.754 198.528 427.38C194.232 429.213 189.544 430.039 184.665 429.844C175.911 429.699 164.628 422.931 164.413 400.479C152.609 395.183 141.274 399.559 120.029 413.549C123.012 442.232 138.884 459.517 155.646 468.542C165.594 473.894 175.855 476.335 183.917 476.52C194.109 477.396 207.408 474.559 220.427 467.565C241.273 456.378 261.437 434.5 267.089 400.054Z" fill="#EE7D50"/>
<path d="M183.907 476.534C175.845 476.348 165.584 473.907 155.636 468.555L98.7025 506.197C80.0196 522.083 89.2823 535.981 96.1685 542.288C101.91 548.008 111.693 549.716 120.849 546.146L195.198 497.369C202.841 492.118 218.532 477.454 220.441 467.575C207.398 474.572 194.099 477.409 183.907 476.534Z" fill="#6EA99E"/>
<path d="M96.1448 542.291C89.2719 535.994 80.9031 521.382 98.6789 506.2L33.5577 549.247C17.4867 560.848 -5.31184 563.153 -18.9595 545.501C-26.7644 537.929 -32.7052 510.921 -6.90587 496.471L58.7997 453.577C51.9026 456.487 38.4151 454.746 31.6483 446.741C24.7232 438.721 25.3802 426.383 36.4439 413.679L-33.6521 459.823C-81.7212 490.58 -76.666 542.704 -63.2667 563.488C-39.8679 606.281 12.3651 618.798 53.3729 590.419L120.849 546.146C111.683 549.73 101.897 547.997 96.1448 542.291Z" fill="#262262"/>
<path d="M433.159 173.195L367.708 212.536C362.841 214.31 354.048 207.188 347.506 199.251C342.939 193.226 339.462 181.822 343.458 175.858L408.986 135.619C413.377 133.029 417.121 130.365 420.266 126.299C430.948 112.491 428.408 92.6296 414.594 81.9433C403.273 73.1859 388.379 73.7869 376.736 81.2062L309.05 122.802C309.05 122.802 294.927 118.907 287.774 106.663C283.546 100.282 281.111 90.9202 285.947 84.669L340.381 51.6346C383.911 23.4383 427.335 28.1397 455.324 67.8367C478.358 99.6951 473.457 145.651 433.159 173.195Z" fill="#6EA99E"/>
</g>
<defs>
<clipPath id="clip0">
<rect width="224.35" height="720.639" fill="white" transform="translate(332.989 -32.1025) rotate(37.7244)"/>
</clipPath>
</defs>
</svg>
