<svg width="637" height="63" viewBox="0 0 637 63" fill="none" xmlns="http://www.w3.org/2000/svg">
<path d="M31.4325 0H58.6308V17.4149H31.4325C23.6699 17.4149 17.3775 23.7208 17.3775 31.5C17.3775 39.2792 23.6699 45.5851 31.4325 45.5851H58.6308V63H31.4325C27.1983 63 23.0818 62.1749 19.2006 60.5248C15.4369 58.9336 12.0849 56.6646 9.20333 53.7769C6.32178 50.8891 4.0577 47.5299 2.4699 43.7582C0.823301 39.8686 0 35.7432 0 31.5C0 27.2568 0.823301 23.1314 2.4699 19.2418C4.0577 15.4701 6.32178 12.1109 9.20333 9.22311C12.0849 6.33536 15.4369 4.06642 19.2006 2.47521C23.0818 0.82507 27.1983 0 31.4325 0Z" fill="#262262"/>
<path d="M58.6309 0H85.8292C90.0633 0 94.1798 0.82507 98.0611 2.47521C101.825 4.06642 105.177 6.33536 108.058 9.22311C110.94 12.1109 113.204 15.4701 114.792 19.2418C115.115 19.9785 115.38 20.7152 115.644 21.4813H95.7088C93.1801 18.9766 89.6811 17.4149 85.8586 17.4149H58.6603V0H58.6309Z" fill="#6EA99E"/>
<path d="M95.7088 41.5187H115.644C115.38 42.2848 115.115 43.0215 114.792 43.7582C113.204 47.5004 110.94 50.8891 108.058 53.7769C105.177 56.6646 101.825 58.9335 98.0611 60.5248C94.1798 62.1749 90.0633 63 85.8292 63H58.6309V45.5851H85.8292C89.6811 45.5851 93.1507 44.0234 95.7088 41.5187Z" fill="#6EA99E"/>
<path d="M87.4757 21.4813H95.7088C98.2963 24.0155 99.8841 27.5809 99.8841 31.5C99.8841 35.4191 98.2963 38.9846 95.7088 41.5187H87.4757C81.9773 41.5187 77.4785 37.0103 77.4785 31.5C77.4785 28.7302 78.5959 26.2255 80.4189 24.428C82.2125 22.6011 84.7118 21.4813 87.4757 21.4813Z" fill="#F0512D"/>
<path d="M95.7087 21.4813H115.644C116.732 24.6932 117.262 28.0524 117.262 31.5C117.262 34.9476 116.703 38.3069 115.644 41.5187H95.7087C98.2963 38.9551 99.8841 35.4191 99.8841 31.5C99.8841 27.5515 98.2669 24.0155 95.7087 21.4813Z" fill="#F0512D"/>
<path d="M115.644 21.4813H146.401V41.5482H115.644C116.732 38.3363 117.262 34.9476 117.262 31.5295C117.262 28.0524 116.703 24.6932 115.644 21.4813Z" fill="#F0512D"/>
<path d="M146.401 21.4813H174.863C173.775 24.6932 173.246 28.0524 173.246 31.5C173.246 34.9476 173.805 38.3069 174.863 41.5187H146.401V21.4813Z" fill="#EE7D50"/>
<path d="M174.863 41.5187H194.799C197.328 44.0234 200.827 45.5851 204.649 45.5851H231.848V63H204.649C200.415 63 196.299 62.1749 192.417 60.5248C188.654 58.9335 185.302 56.6646 182.42 53.7769C179.539 50.8891 177.274 47.5299 175.687 43.7582C175.393 43.0215 175.128 42.2848 174.863 41.5187Z" fill="#262262"/>
<path d="M204.679 0H231.877V17.4149H204.679C200.827 17.4149 197.357 18.9471 194.828 21.4813H174.893C175.157 20.7152 175.422 19.9785 175.745 19.2418C177.333 15.4701 179.597 12.1109 182.479 9.22311C185.36 6.33536 188.712 4.06642 192.476 2.47521C196.328 0.82507 200.444 0 204.679 0Z" fill="#262262"/>
<path d="M174.863 21.4813H194.799C192.212 24.0155 190.624 27.5809 190.624 31.5C190.624 35.4191 192.212 38.9846 194.799 41.5187H174.863C173.775 38.3069 173.246 34.9182 173.246 31.5C173.246 28.0524 173.775 24.6932 174.863 21.4813Z" fill="#EE7D50"/>
<path d="M194.799 21.4813H198.033C203.532 21.4813 208.031 25.9897 208.031 31.5C208.031 37.0103 203.532 41.5187 198.033 41.5187H194.799C192.211 38.9551 190.624 35.4191 190.624 31.5C190.624 27.5515 192.211 24.0155 194.799 21.4813Z" fill="#EE7D50"/>
<path d="M377.925 0H405.123V17.4149H377.925C370.162 17.4149 363.87 23.7208 363.87 31.5C363.87 39.2792 370.162 45.5851 377.925 45.5851H405.123V63H377.925C373.691 63 369.574 62.1749 365.693 60.5248C361.929 58.9336 358.577 56.6646 355.696 53.7769C352.814 50.8891 350.55 47.5299 348.962 43.7582C347.316 39.8686 346.492 35.7432 346.492 31.5C346.492 27.2568 347.316 23.1314 348.962 19.2418C350.55 15.4701 352.814 12.1109 355.696 9.22311C358.577 6.33536 361.929 4.06642 365.693 2.47521C369.574 0.82507 373.691 0 377.925 0Z" fill="#262262"/>
<path d="M405.123 0H432.322C436.556 0 440.672 0.82507 444.553 2.47521C448.317 4.06642 451.669 6.33536 454.551 9.22311C457.432 12.1109 459.696 15.4701 461.284 19.2418C461.608 19.9785 461.872 20.7152 462.137 21.4813H442.201C439.672 18.9766 436.173 17.4149 432.351 17.4149H405.153V0H405.123Z" fill="#6EA99E"/>
<path d="M442.201 41.5187H462.137C461.872 42.2848 461.608 43.0215 461.284 43.7582C459.696 47.5004 457.432 50.8891 454.551 53.7769C451.669 56.6646 448.317 58.9335 444.553 60.5248C440.672 62.1749 436.556 63 432.322 63H405.123V45.5851H432.322C436.173 45.5851 439.643 44.0234 442.201 41.5187Z" fill="#6EA99E"/>
<path d="M433.968 21.4813H442.201C444.789 24.0155 446.376 27.5809 446.376 31.5C446.376 35.4191 444.789 38.9846 442.201 41.5187H433.968C428.47 41.5187 423.971 37.0103 423.971 31.5C423.971 28.7302 425.088 26.2255 426.911 24.428C428.705 22.6011 431.204 21.4813 433.968 21.4813Z" fill="#F0512D"/>
<path d="M442.201 21.4813H462.137C463.225 24.6932 463.754 28.0524 463.754 31.5C463.754 34.9476 463.195 38.3069 462.137 41.5187H442.201C444.789 38.9551 446.376 35.4191 446.376 31.5C446.376 27.5515 444.789 24.0155 442.201 21.4813Z" fill="#F0512D"/>
<path d="M462.137 21.4813H492.893V41.5482H462.137C463.225 38.3363 463.754 34.9476 463.754 31.5295C463.754 28.0524 463.195 24.6932 462.137 21.4813Z" fill="#F0512D"/>
<path d="M492.893 21.4813H521.356C520.268 24.6932 519.739 28.0524 519.739 31.5C519.739 34.9476 520.297 38.3069 521.356 41.5187H492.893V21.4813Z" fill="#EE7D50"/>
<path d="M521.356 41.5187H541.291C543.82 44.0234 547.319 45.5851 551.141 45.5851H578.34V63H551.141C546.907 63 542.791 62.1749 538.91 60.5248C535.146 58.9335 531.794 56.6646 528.912 53.7769C526.031 50.8891 523.767 47.5299 522.179 43.7582C521.885 43.0215 521.62 42.2848 521.356 41.5187Z" fill="#262262"/>
<path d="M551.171 0H578.369V17.4149H551.171C547.319 17.4149 543.849 18.9471 541.321 21.4813H521.385C521.65 20.7152 521.914 19.9785 522.238 19.2418C523.826 15.4701 526.09 12.1109 528.971 9.22311C531.853 6.33536 535.205 4.06642 538.968 2.47521C542.82 0.82507 546.937 0 551.171 0Z" fill="#262262"/>
<path d="M521.356 21.4813H541.291C538.704 24.0155 537.116 27.5809 537.116 31.5C537.116 35.4191 538.704 38.9846 541.291 41.5187H521.356C520.268 38.3069 519.738 34.9182 519.738 31.5C519.738 28.0524 520.268 24.6932 521.356 21.4813Z" fill="#EE7D50"/>
<path d="M541.291 21.4813H544.526C550.024 21.4813 554.523 25.9897 554.523 31.5C554.523 37.0103 550.024 41.5187 544.526 41.5187H541.291C538.704 38.9551 537.116 35.4191 537.116 31.5C537.116 27.5515 538.704 24.0155 541.291 21.4813Z" fill="#EE7D50"/>
<path d="M259.075 63H231.877V45.5851H259.075C266.838 45.5851 273.13 39.2792 273.13 31.5C273.13 23.7208 266.838 17.4149 259.075 17.4149H231.877V0H259.075C263.309 0 267.426 0.82507 271.307 2.47521C275.071 4.06642 278.423 6.33536 281.304 9.22311C284.186 12.1109 286.45 15.4701 288.038 19.2418C289.684 23.1314 290.508 27.2568 290.508 31.5C290.508 35.7432 289.684 39.8686 288.038 43.7582C286.45 47.5299 284.186 50.8891 281.304 53.7769C278.423 56.6646 275.071 58.9336 271.307 60.5248C267.426 62.1455 263.309 63 259.075 63Z" fill="#6EA99E"/>
<path d="M260.692 21.4813H268.925C271.513 24.0155 273.101 27.5809 273.101 31.5C273.101 35.4191 271.513 38.9846 268.925 41.5187H260.692C255.194 41.5187 250.695 37.0103 250.695 31.5C250.695 28.7302 251.813 26.2255 253.636 24.428C255.429 22.6011 257.928 21.4813 260.692 21.4813Z" fill="#F0512D"/>
<path d="M268.896 21.4813H288.832C289.92 24.6932 290.449 28.0524 290.449 31.5C290.449 34.9476 289.89 38.3069 288.832 41.5187H268.896C271.484 38.9551 273.071 35.4191 273.071 31.5C273.101 27.5515 271.484 24.0155 268.896 21.4813Z" fill="#F0512D"/>
<path d="M288.861 21.4813H319.617V41.5482H288.861C289.949 38.3363 290.478 34.9476 290.478 31.5295C290.478 28.0524 289.92 24.6932 288.861 21.4813Z" fill="#F0512D"/>
<path d="M319.617 21.4813H348.08C346.992 24.6932 346.463 28.0524 346.463 31.5C346.463 34.9476 347.022 38.3069 348.08 41.5187H319.617V21.4813Z" fill="#EE7D50"/>
<path d="M348.08 21.4813H368.016C365.428 24.0155 363.84 27.5809 363.84 31.5C363.84 35.4191 365.428 38.9846 368.016 41.5187H348.08C346.992 38.3069 346.463 34.9182 346.463 31.5C346.463 28.0524 346.992 24.6932 348.08 21.4813Z" fill="#EE7D50"/>
<path d="M368.016 21.4813H371.25C376.749 21.4813 381.247 25.9897 381.247 31.5C381.247 37.0103 376.749 41.5187 371.25 41.5187H368.016C365.428 38.9551 363.84 35.4191 363.84 31.5C363.84 27.5515 365.428 24.0155 368.016 21.4813Z" fill="#EE7D50"/>
<path d="M578.369 17.4443C579.977 17.4443 581.28 13.5393 581.28 8.72217C581.28 3.90505 579.977 0 578.369 0C576.762 0 575.458 3.90505 575.458 8.72217C575.458 13.5393 576.762 17.4443 578.369 17.4443Z" fill="#262262"/>
<path d="M578.369 63C579.977 63 581.28 59.0949 581.28 54.2778C581.28 49.4607 579.977 45.5557 578.369 45.5557C576.762 45.5557 575.458 49.4607 575.458 54.2778C575.458 59.0949 576.762 63 578.369 63Z" fill="#262262"/>
</svg>
