<svg width="530" height="63" viewBox="0 0 530 63" fill="none" xmlns="http://www.w3.org/2000/svg">
<path d="M41.4781 0H68.8248C73.082 0 77.2209 0.82507 81.1233 2.47521C84.9075 4.06642 88.2778 6.33536 91.1751 9.22311C94.0723 12.1109 96.3488 15.4701 97.9452 19.2418C98.2704 19.9785 98.5365 20.7152 98.8026 21.4813H78.7582C76.2157 18.9766 72.6976 17.4149 68.8543 17.4149H41.5077V0H41.4781Z" fill="#6EA99E"/>
<path d="M78.7286 41.5187H98.773C98.5069 42.2848 98.2408 43.0215 97.9156 43.7582C96.3192 47.5004 94.0427 50.8891 91.1455 53.7769C88.2482 56.6646 84.8779 58.9335 81.0937 60.5248C77.1913 62.1749 73.0524 63 68.7952 63H41.4485V45.5851H68.7952C72.6976 45.5851 76.1861 44.0234 78.7286 41.5187Z" fill="#6EA99E"/>
<path d="M70.4803 21.4813H78.7582C81.3598 24.0155 82.9563 27.5809 82.9563 31.5C82.9563 35.4191 81.3598 38.9846 78.7582 41.5187H70.4803C64.9519 41.5187 60.4286 37.0103 60.4286 31.5C60.4286 28.7302 61.552 26.2255 63.385 24.428C65.1884 22.6011 67.7013 21.4813 70.4803 21.4813Z" fill="#F0512D"/>
<path d="M78.7286 21.4813H98.773C99.8668 24.6932 100.399 28.0524 100.399 31.5C100.399 34.9476 99.8373 38.3069 98.773 41.5187H78.7286C81.3303 38.9551 82.9267 35.4191 82.9267 31.5C82.9563 27.5515 81.3303 24.0155 78.7286 21.4813Z" fill="#F0512D"/>
<path d="M98.8026 21.4813H129.726V41.5482H98.8026C99.8964 38.3363 100.429 34.9476 100.429 31.5295C100.429 28.0524 99.8669 24.6932 98.8026 21.4813Z" fill="#F0512D"/>
<path d="M129.726 21.4813H158.344C157.25 24.6932 156.718 28.0524 156.718 31.5C156.718 34.9476 157.28 38.3069 158.344 41.5187H129.726V21.4813Z" fill="#EE7D50"/>
<path d="M158.344 41.5187H178.389C180.931 44.0234 184.449 45.5851 188.292 45.5851H215.639V63H188.322C184.065 63 179.926 62.1749 176.023 60.5248C172.239 58.9335 168.869 56.6646 165.972 53.7769C163.074 50.8891 160.798 47.5299 159.202 43.7582C158.876 43.0215 158.61 42.2848 158.344 41.5187Z" fill="#262262"/>
<path d="M188.322 0H215.669V17.4149H188.322C184.449 17.4149 180.961 18.9471 178.418 21.4813H158.374C158.64 20.7152 158.906 19.9785 159.231 19.2418C160.828 15.4701 163.104 12.1109 166.001 9.22311C168.899 6.33536 172.269 4.06642 176.053 2.47521C179.926 0.82507 184.065 0 188.322 0Z" fill="#262262"/>
<path d="M158.344 21.4813H178.389C175.787 24.0155 174.19 27.5809 174.19 31.5C174.19 35.4191 175.787 38.9846 178.389 41.5187H158.344C157.25 38.3069 156.718 34.9182 156.718 31.5C156.718 28.0524 157.25 24.6932 158.344 21.4813Z" fill="#EE7D50"/>
<path d="M178.389 21.4813H181.641C187.169 21.4813 191.692 25.9897 191.692 31.5C191.692 37.0103 187.169 41.5187 181.641 41.5187H178.389C175.787 38.9551 174.19 35.4191 174.19 31.5C174.19 27.5515 175.787 24.0155 178.389 21.4813Z" fill="#EE7D50"/>
<path d="M362.512 0H389.859V17.4149H362.512C354.708 17.4149 348.381 23.7208 348.381 31.5C348.381 39.2792 354.708 45.5851 362.512 45.5851H389.859V63H362.512C358.255 63 354.116 62.1749 350.214 60.5248C346.43 58.9336 343.059 56.6646 340.162 53.7769C337.265 50.8891 334.988 47.5299 333.392 43.7582C331.736 39.8686 330.909 35.7432 330.909 31.5C330.909 27.2568 331.736 23.1314 333.392 19.2418C334.988 15.4701 337.265 12.1109 340.162 9.22311C343.059 6.33536 346.43 4.06642 350.214 2.47521C354.116 0.82507 358.255 0 362.512 0Z" fill="#262262"/>
<path d="M389.859 0H417.206C421.463 0 425.602 0.82507 429.504 2.47521C433.288 4.06642 436.659 6.33536 439.556 9.22311C442.453 12.1109 444.73 15.4701 446.326 19.2418C446.651 19.9785 446.917 20.7152 447.183 21.4813H427.139C424.597 18.9766 421.079 17.4149 417.235 17.4149H389.889V0H389.859Z" fill="#6EA99E"/>
<path d="M427.139 41.5187H447.183C446.917 42.2848 446.651 43.0215 446.326 43.7582C444.73 47.5004 442.453 50.8891 439.556 53.7769C436.659 56.6646 433.288 58.9335 429.504 60.5248C425.602 62.1749 421.463 63 417.206 63H389.859V45.5851H417.206C421.079 45.5851 424.567 44.0234 427.139 41.5187Z" fill="#6EA99E"/>
<path d="M418.861 21.4813H427.139C429.741 24.0155 431.337 27.5809 431.337 31.5C431.337 35.4191 429.741 38.9846 427.139 41.5187H418.861C413.333 41.5187 408.81 37.0103 408.81 31.5C408.81 28.7302 409.933 26.2255 411.766 24.428C413.569 22.6011 416.082 21.4813 418.861 21.4813Z" fill="#F0512D"/>
<path d="M427.139 21.4813H447.183C448.277 24.6932 448.809 28.0524 448.809 31.5C448.809 34.9476 448.248 38.3069 447.183 41.5187H427.139C429.741 38.9551 431.337 35.4191 431.337 31.5C431.337 27.5515 429.711 24.0155 427.139 21.4813Z" fill="#F0512D"/>
<path d="M447.183 21.4813H478.107V41.5482H447.183C448.277 38.3363 448.809 34.9476 448.809 31.5295C448.809 28.0524 448.248 24.6932 447.183 21.4813Z" fill="#F0512D"/>
<path d="M478.107 21.4813H506.725C505.631 24.6932 505.099 28.0524 505.099 31.5C505.099 34.9476 505.661 38.3069 506.725 41.5187H478.107V21.4813Z" fill="#EE7D50"/>
<path d="M506.725 41.5187H526.77C529.312 44.0234 532.83 45.5851 536.673 45.5851H564.02V63H536.673C532.416 63 528.277 62.1749 524.375 60.5248C520.591 58.9335 517.22 56.6646 514.323 53.7769C511.426 50.8891 509.149 47.5299 507.553 43.7582C507.257 43.0215 506.991 42.2848 506.725 41.5187Z" fill="#262262"/>
<path d="M536.703 0H564.05V17.4149H536.703C532.83 17.4149 529.342 18.9471 526.799 21.4813H506.725C506.991 20.7152 507.257 19.9785 507.583 19.2418C509.179 15.4701 511.455 12.1109 514.353 9.22311C517.25 6.33536 520.62 4.06642 524.404 2.47521C528.307 0.82507 532.446 0 536.703 0Z" fill="#262262"/>
<path d="M506.725 21.4813H526.769C524.168 24.0155 522.571 27.5809 522.571 31.5C522.571 35.4191 524.168 38.9846 526.769 41.5187H506.725C505.631 38.3069 505.099 34.9182 505.099 31.5C505.099 28.0524 505.631 24.6932 506.725 21.4813Z" fill="#EE7D50"/>
<path d="M526.77 21.4813H530.022C535.55 21.4813 540.073 25.9897 540.073 31.5C540.073 37.0103 535.55 41.5187 530.022 41.5187H526.77C524.168 38.9551 522.571 35.4191 522.571 31.5C522.571 27.5515 524.168 24.0155 526.77 21.4813Z" fill="#EE7D50"/>
<path d="M243.015 63H215.669V45.5851H243.015C250.82 45.5851 257.147 39.2792 257.147 31.5C257.147 23.7208 250.82 17.4149 243.015 17.4149H215.669V0H243.015C247.272 0 251.411 0.82507 255.314 2.47521C259.098 4.06642 262.468 6.33536 265.366 9.22311C268.263 12.1109 270.539 15.4701 272.136 19.2418C273.791 23.1314 274.619 27.2568 274.619 31.5C274.619 35.7432 273.791 39.8686 272.136 43.7582C270.539 47.5299 268.263 50.8891 265.366 53.7769C262.468 56.6646 259.098 58.9336 255.314 60.5248C251.411 62.1455 247.272 63 243.015 63Z" fill="#6EA99E"/>
<path d="M244.641 21.4813H252.919C255.521 24.0155 257.117 27.5809 257.117 31.5C257.117 35.4191 255.521 38.9846 252.919 41.5187H244.641C239.113 41.5187 234.589 37.0103 234.589 31.5C234.589 28.7302 235.713 26.2255 237.546 24.428C239.349 22.6011 241.862 21.4813 244.641 21.4813Z" fill="#F0512D"/>
<path d="M252.89 21.4813H272.934C274.028 24.6932 274.56 28.0524 274.56 31.5C274.56 34.9476 273.998 38.3069 272.934 41.5187H252.89C255.491 38.9551 257.088 35.4191 257.088 31.5C257.117 27.5515 255.491 24.0155 252.89 21.4813Z" fill="#F0512D"/>
<path d="M272.934 21.4813H303.858V41.5482H272.934C274.028 38.3363 274.56 34.9476 274.56 31.5295C274.589 28.0524 274.028 24.6932 272.934 21.4813Z" fill="#F0512D"/>
<path d="M303.858 21.4813H332.476C331.382 24.6932 330.85 28.0524 330.85 31.5C330.85 34.9476 331.411 38.3069 332.476 41.5187H303.858V21.4813Z" fill="#EE7D50"/>
<path d="M332.505 21.4813H352.549C349.948 24.0155 348.351 27.5809 348.351 31.5C348.351 35.4191 349.948 38.9846 352.549 41.5187H332.505C331.411 38.3069 330.879 34.9182 330.879 31.5C330.879 28.0524 331.411 24.6932 332.505 21.4813Z" fill="#EE7D50"/>
<path d="M352.549 21.4813H355.802C361.33 21.4813 365.853 25.9897 365.853 31.5C365.853 37.0103 361.33 41.5187 355.802 41.5187H352.549C349.948 38.9551 348.351 35.4191 348.351 31.5C348.351 27.5515 349.948 24.0155 352.549 21.4813Z" fill="#EE7D50"/>
<path d="M41.4782 17.4443C43.0946 17.4443 44.405 13.5393 44.405 8.72217C44.405 3.90505 43.0946 0 41.4782 0C39.8617 0 38.5513 3.90505 38.5513 8.72217C38.5513 13.5393 39.8617 17.4443 41.4782 17.4443Z" fill="#262262"/>
<path d="M41.4782 63C43.0946 63 44.405 59.095 44.405 54.2778C44.405 49.4607 43.0946 45.5557 41.4782 45.5557C39.8617 45.5557 38.5513 49.4607 38.5513 54.2778C38.5513 59.095 39.8617 63 41.4782 63Z" fill="#262262"/>
</svg>
