<svg width="172" height="178" viewBox="0 0 172 178" fill="none" xmlns="http://www.w3.org/2000/svg">
<g clip-path="url(#clip0)">
<g clip-path="url(#clip1)">
<path d="M24.5156 116.743L22.9147 115.729C21.857 115.06 22.1714 113.775 23.608 112.865L25.9021 111.413L26.8598 112.019L24.5656 113.472C23.6866 114.028 23.365 114.797 23.8724 115.123L25.4733 116.136L24.5156 116.743ZM25.895 111.834L23.9296 113.078C22.6717 113.874 22.3644 114.969 23.2363 115.521L24.5085 116.326L24.8015 116.141L23.5293 115.336C22.8218 114.888 23.1291 113.956 24.2226 113.263L26.188 112.019L25.895 111.834Z" fill="black"/>
<path d="M20.1418 116.272L19.1841 115.661L21.4782 114.209C22.1357 113.793 22.9505 113.508 23.7509 113.408C23.951 113.386 24.1583 113.372 24.3584 113.372C25.0088 113.372 25.5805 113.512 25.995 113.775L27.6674 114.788L26.7097 115.394L25.0445 114.381C24.8301 114.245 24.4585 114.195 24.0153 114.25C23.4722 114.318 22.9147 114.517 22.443 114.815L20.1418 116.272ZM19.8416 115.666L20.1418 115.851L22.1 114.612C22.636 114.272 23.2792 114.042 23.9153 113.965C24.0582 113.947 24.2083 113.938 24.3513 113.938C24.7658 113.938 25.116 114.019 25.3661 114.177L26.7026 114.983L26.9956 114.797L25.6663 113.987C25.3375 113.779 24.8873 113.671 24.3584 113.671C24.1797 113.671 24.0082 113.684 23.8367 113.702C23.122 113.793 22.4002 114.046 21.7998 114.422L19.8416 115.666Z" fill="black"/>
<path d="M19.5129 115.879L18.5552 115.272L20.8493 113.82C21.7284 113.263 22.0643 112.499 21.564 112.187L19.9917 111.187L20.9494 110.58L22.5288 111.58C23.5723 112.241 23.2507 113.517 21.8141 114.431L19.5129 115.879ZM19.2127 115.272L19.5057 115.458L21.4711 114.214C22.7289 113.417 23.0505 112.331 22.1858 111.784L20.9494 110.997L20.6563 111.187L21.8999 111.974C22.6003 112.417 22.2715 113.336 21.1852 114.028L19.2127 115.272Z" fill="black"/>
<path d="M21.0424 113.924C20.392 113.924 19.8417 113.788 19.4343 113.535L17.8549 112.535L18.8197 111.924L20.3991 112.924C20.585 113.042 20.8565 113.069 21.0495 113.069C21.657 113.069 22.3931 112.838 22.9791 112.472L25.2661 111.019L26.2238 111.626L23.9297 113.078C23.1006 113.607 22.0143 113.924 21.0424 113.924ZM18.5195 112.535L19.7631 113.322C20.0775 113.521 20.5135 113.625 21.0352 113.625C21.8928 113.625 22.8505 113.345 23.6009 112.87L25.5592 111.63L25.2661 111.445L23.3079 112.68C22.6432 113.101 21.7713 113.368 21.0424 113.368C20.6421 113.368 20.2991 113.286 20.0561 113.137L18.8125 112.345L18.5195 112.535Z" fill="black"/>
<path d="M29.0539 110.766L29.5256 110.463C29.0396 110.051 28.4607 109.685 27.8104 109.377L27.3315 109.68C27.9891 109.983 28.5679 110.35 29.0539 110.766Z" fill="black"/>
<path d="M16.4755 116.557L15.9967 116.856C16.4827 117.268 17.0616 117.634 17.7119 117.942L18.1908 117.639C17.5333 117.335 16.9544 116.973 16.4755 116.557Z" fill="black"/>
<path d="M22.7646 109.056C24.2726 109.056 25.7448 109.354 26.9741 109.906L27.3386 109.676C24.6156 108.418 20.9207 108.418 18.1978 109.676L18.5622 109.906C19.7844 109.354 21.2566 109.056 22.7646 109.056Z" fill="black"/>
<path d="M14.9818 113.662C14.9818 114.702 15.5035 115.716 16.4755 116.557L16.84 116.326C15.039 114.729 15.039 112.589 16.84 110.992L16.4826 110.761C15.5107 111.608 14.9818 112.621 14.9818 113.662Z" fill="black"/>
<path d="M22.7648 118.267C21.2568 118.267 19.7845 117.969 18.5553 117.412L18.1908 117.643C20.9137 118.901 24.6158 118.901 27.3388 117.643L26.9743 117.412C25.745 117.969 24.2728 118.267 22.7648 118.267Z" fill="black"/>
<path d="M30.5404 113.662C30.5404 112.621 30.0187 111.608 29.0467 110.766L28.6823 110.992C30.4761 112.589 30.4761 114.729 28.6823 116.322L29.0467 116.553C30.0187 115.716 30.5404 114.702 30.5404 113.662Z" fill="black"/>
<path d="M31.7983 113.662C31.7983 112.408 31.1479 111.196 29.9472 110.2L29.5327 110.463C31.7697 112.359 31.7697 114.96 29.5327 116.856L29.9472 117.118C31.1479 116.132 31.7983 114.915 31.7983 113.662Z" fill="black"/>
<path d="M22.7647 119.009C20.9423 119.009 19.1698 118.638 17.7119 117.946L17.2974 118.209C20.5277 119.77 25.0088 119.77 28.2392 118.209L27.8247 117.946C26.3596 118.638 24.5871 119.009 22.7647 119.009Z" fill="black"/>
<path d="M17.2974 109.114L17.7119 109.377C20.7064 107.961 24.8158 107.961 27.8104 109.377L28.2249 109.114C25.0017 107.554 20.5277 107.554 17.2974 109.114Z" fill="black"/>
<path d="M13.7311 113.662C13.7311 114.915 14.3814 116.132 15.5821 117.123L15.9966 116.86C13.7525 114.965 13.7525 112.359 15.9966 110.463L15.5821 110.2C14.3814 111.196 13.7311 112.413 13.7311 113.662Z" fill="black"/>
<path d="M16.0038 110.463L16.4826 110.766C16.9615 110.35 17.5404 109.983 18.1979 109.68L17.719 109.377C17.0687 109.685 16.4898 110.051 16.0038 110.463Z" fill="black"/>
<path d="M29.5327 116.856L29.0539 116.553C28.575 116.969 27.9961 117.335 27.3386 117.639L27.8103 117.942C28.4678 117.634 29.0467 117.268 29.5327 116.856Z" fill="black"/>
</g>
<path d="M171.837 61.6874V132.976L66.9453 74.8801V4.07543C66.9453 1.08994 70.199 -0.806254 72.8427 0.646148L166.387 52.4888C169.763 54.3447 171.837 57.895 171.837 61.6874Z" stroke="#262262" stroke-opacity="0.7" stroke-width="0.75" stroke-miterlimit="10" stroke-linecap="round" stroke-linejoin="round"/>
<path d="M171.837 133.016L104.933 170.093C103.062 171.141 100.784 171.141 98.9132 170.093L1.91155 116.354C0.772744 115.748 0.244014 114.82 0.162671 113.933C0.0406561 112.763 0.732072 111.593 1.91155 110.907L66.9047 74.8794L171.837 133.016Z" stroke="#262262" stroke-opacity="0.7" stroke-width="0.75" stroke-miterlimit="10" stroke-linecap="round" stroke-linejoin="round"/>
<path d="M153.291 128.175L146.418 124.382L139.625 128.175L146.458 131.967L153.291 128.175Z" stroke="#262262" stroke-opacity="0.7" stroke-width="0.75" stroke-miterlimit="10" stroke-linecap="round" stroke-linejoin="round"/>
<path d="M153.291 129.143V128.175L146.458 131.967V133.016L153.291 129.143Z" stroke="#262262" stroke-opacity="0.7" stroke-width="0.75" stroke-miterlimit="10" stroke-linecap="round" stroke-linejoin="round"/>
<path d="M146.458 131.967V133.016L139.625 129.102V128.175L146.458 131.967Z" stroke="#262262" stroke-opacity="0.7" stroke-width="0.75" stroke-miterlimit="10" stroke-linecap="round" stroke-linejoin="round"/>
<path d="M143.937 133.097L137.063 129.264L130.271 133.097L137.104 136.889L143.937 133.097Z" stroke="#262262" stroke-opacity="0.7" stroke-width="0.75" stroke-miterlimit="10" stroke-linecap="round" stroke-linejoin="round"/>
<path d="M143.937 134.065V133.097L137.104 136.889V137.898L143.937 134.065Z" stroke="#262262" stroke-opacity="0.7" stroke-width="0.75" stroke-miterlimit="10" stroke-linecap="round" stroke-linejoin="round"/>
<path d="M137.104 136.889V137.898L130.271 134.024V133.097L137.104 136.889Z" stroke="#262262" stroke-opacity="0.7" stroke-width="0.75" stroke-miterlimit="10" stroke-linecap="round" stroke-linejoin="round"/>
<path d="M134.582 137.978L127.709 134.186L120.917 137.978L127.749 141.771L134.582 137.978Z" stroke="#262262" stroke-opacity="0.7" stroke-width="0.75" stroke-miterlimit="10" stroke-linecap="round" stroke-linejoin="round"/>
<path d="M134.582 138.947V137.978L127.749 141.771V142.82L134.582 138.947Z" stroke="#262262" stroke-opacity="0.7" stroke-width="0.75" stroke-miterlimit="10" stroke-linecap="round" stroke-linejoin="round"/>
<path d="M127.749 141.771V142.82L120.917 138.947V137.978L127.749 141.771Z" stroke="#262262" stroke-opacity="0.7" stroke-width="0.75" stroke-miterlimit="10" stroke-linecap="round" stroke-linejoin="round"/>
<path d="M125.228 142.9L118.354 139.108L111.562 142.9L118.395 146.693L125.228 142.9Z" stroke="#262262" stroke-opacity="0.7" stroke-width="0.75" stroke-miterlimit="10" stroke-linecap="round" stroke-linejoin="round"/>
<path d="M125.228 143.869V142.9L118.395 146.693V147.742L125.228 143.869Z" stroke="#262262" stroke-opacity="0.7" stroke-width="0.75" stroke-miterlimit="10" stroke-linecap="round" stroke-linejoin="round"/>
<path d="M118.395 146.693V147.742L111.562 143.828V142.9L118.395 146.693Z" stroke="#262262" stroke-opacity="0.7" stroke-width="0.75" stroke-miterlimit="10" stroke-linecap="round" stroke-linejoin="round"/>
<path d="M144.14 123.293L137.267 119.5L130.474 123.293L137.307 127.085L144.14 123.293Z" stroke="#262262" stroke-opacity="0.7" stroke-width="0.75" stroke-miterlimit="10" stroke-linecap="round" stroke-linejoin="round"/>
<path d="M144.14 124.261V123.293L137.307 127.085V128.134L144.14 124.261Z" stroke="#262262" stroke-opacity="0.7" stroke-width="0.75" stroke-miterlimit="10" stroke-linecap="round" stroke-linejoin="round"/>
<path d="M137.307 127.085V128.134L130.474 124.221V123.293L137.307 127.085Z" stroke="#262262" stroke-opacity="0.7" stroke-width="0.75" stroke-miterlimit="10" stroke-linecap="round" stroke-linejoin="round"/>
<path d="M134.786 128.215L127.912 124.382L121.12 128.215L127.953 132.007L134.786 128.215Z" stroke="#262262" stroke-opacity="0.7" stroke-width="0.75" stroke-miterlimit="10" stroke-linecap="round" stroke-linejoin="round"/>
<path d="M134.785 129.183V128.215L127.953 132.007V133.016L134.785 129.183Z" stroke="#262262" stroke-opacity="0.7" stroke-width="0.75" stroke-miterlimit="10" stroke-linecap="round" stroke-linejoin="round"/>
<path d="M127.953 132.007V133.016L121.12 129.143V128.215L127.953 132.007Z" stroke="#262262" stroke-opacity="0.7" stroke-width="0.75" stroke-miterlimit="10" stroke-linecap="round" stroke-linejoin="round"/>
<path d="M125.431 133.097L118.598 129.304L111.765 133.097L118.598 136.889L125.431 133.097Z" stroke="#262262" stroke-opacity="0.7" stroke-width="0.75" stroke-miterlimit="10" stroke-linecap="round" stroke-linejoin="round"/>
<path d="M125.431 134.065V133.097L118.598 136.889V137.938L125.431 134.065Z" stroke="#262262" stroke-opacity="0.7" stroke-width="0.75" stroke-miterlimit="10" stroke-linecap="round" stroke-linejoin="round"/>
<path d="M118.598 136.889V137.938L111.765 134.024V133.097L118.598 136.889Z" stroke="#262262" stroke-opacity="0.7" stroke-width="0.75" stroke-miterlimit="10" stroke-linecap="round" stroke-linejoin="round"/>
<path d="M116.077 138.019L109.244 134.186L102.411 138.019L109.244 141.811L116.077 138.019Z" stroke="#262262" stroke-opacity="0.7" stroke-width="0.75" stroke-miterlimit="10" stroke-linecap="round" stroke-linejoin="round"/>
<path d="M116.077 138.987V138.019L109.244 141.811V142.86L116.077 138.987Z" stroke="#262262" stroke-opacity="0.7" stroke-width="0.75" stroke-miterlimit="10" stroke-linecap="round" stroke-linejoin="round"/>
<path d="M109.244 141.811V142.86L102.411 138.947V138.019L109.244 141.811Z" stroke="#262262" stroke-opacity="0.7" stroke-width="0.75" stroke-miterlimit="10" stroke-linecap="round" stroke-linejoin="round"/>
<path d="M135.03 118.411L128.156 114.619L121.323 118.411L128.197 122.204L135.03 118.411Z" stroke="#262262" stroke-opacity="0.7" stroke-width="0.75" stroke-miterlimit="10" stroke-linecap="round" stroke-linejoin="round"/>
<path d="M135.03 119.379V118.411L128.197 122.204V123.253L135.03 119.379Z" stroke="#262262" stroke-opacity="0.7" stroke-width="0.75" stroke-miterlimit="10" stroke-linecap="round" stroke-linejoin="round"/>
<path d="M128.197 122.204V123.253L121.323 119.339V118.411L128.197 122.204Z" stroke="#262262" stroke-opacity="0.7" stroke-width="0.75" stroke-miterlimit="10" stroke-linecap="round" stroke-linejoin="round"/>
<path d="M125.675 123.333L118.802 119.5L111.969 123.333L118.842 127.085L125.675 123.333Z" stroke="#262262" stroke-opacity="0.7" stroke-width="0.75" stroke-miterlimit="10" stroke-linecap="round" stroke-linejoin="round"/>
<path d="M125.675 124.301V123.333L118.842 127.085V128.134L125.675 124.301Z" stroke="#262262" stroke-opacity="0.7" stroke-width="0.75" stroke-miterlimit="10" stroke-linecap="round" stroke-linejoin="round"/>
<path d="M118.842 127.085V128.134L111.969 124.261V123.333L118.842 127.085Z" stroke="#262262" stroke-opacity="0.7" stroke-width="0.75" stroke-miterlimit="10" stroke-linecap="round" stroke-linejoin="round"/>
<path d="M116.321 128.215L109.447 124.422L102.614 128.215L109.488 132.007L116.321 128.215Z" stroke="#262262" stroke-opacity="0.7" stroke-width="0.75" stroke-miterlimit="10" stroke-linecap="round" stroke-linejoin="round"/>
<path d="M116.32 129.183V128.215L109.488 132.007V133.056L116.32 129.183Z" stroke="#262262" stroke-opacity="0.7" stroke-width="0.75" stroke-miterlimit="10" stroke-linecap="round" stroke-linejoin="round"/>
<path d="M109.488 132.007V133.056L102.614 129.143V128.215L109.488 132.007Z" stroke="#262262" stroke-opacity="0.7" stroke-width="0.75" stroke-miterlimit="10" stroke-linecap="round" stroke-linejoin="round"/>
<path d="M106.966 133.137L100.093 129.304L93.2599 133.137L100.133 136.929L106.966 133.137Z" stroke="#262262" stroke-opacity="0.7" stroke-width="0.75" stroke-miterlimit="10" stroke-linecap="round" stroke-linejoin="round"/>
<path d="M106.966 134.105V133.137L100.133 136.929V137.938L106.966 134.105Z" stroke="#262262" stroke-opacity="0.7" stroke-width="0.75" stroke-miterlimit="10" stroke-linecap="round" stroke-linejoin="round"/>
<path d="M100.133 136.929V137.938L93.2599 134.065V133.137L100.133 136.929Z" stroke="#262262" stroke-opacity="0.7" stroke-width="0.75" stroke-miterlimit="10" stroke-linecap="round" stroke-linejoin="round"/>
<path d="M125.878 113.529L119.005 109.737L112.213 113.529L119.046 117.322L125.878 113.529Z" stroke="#262262" stroke-opacity="0.7" stroke-width="0.75" stroke-miterlimit="10" stroke-linecap="round" stroke-linejoin="round"/>
<path d="M125.878 114.498V113.529L119.046 117.322V118.371L125.878 114.498Z" stroke="#262262" stroke-opacity="0.7" stroke-width="0.75" stroke-miterlimit="10" stroke-linecap="round" stroke-linejoin="round"/>
<path d="M119.046 117.322V118.371L112.213 114.457V113.529L119.046 117.322Z" stroke="#262262" stroke-opacity="0.7" stroke-width="0.75" stroke-miterlimit="10" stroke-linecap="round" stroke-linejoin="round"/>
<path d="M116.524 118.411L109.65 114.619L102.858 118.411L109.691 122.204L116.524 118.411Z" stroke="#262262" stroke-opacity="0.7" stroke-width="0.75" stroke-miterlimit="10" stroke-linecap="round" stroke-linejoin="round"/>
<path d="M116.524 119.42V118.411L109.691 122.204V123.253L116.524 119.42Z" stroke="#262262" stroke-opacity="0.7" stroke-width="0.75" stroke-miterlimit="10" stroke-linecap="round" stroke-linejoin="round"/>
<path d="M109.691 122.204V123.253L102.858 119.379V118.411L109.691 122.204Z" stroke="#262262" stroke-opacity="0.7" stroke-width="0.75" stroke-miterlimit="10" stroke-linecap="round" stroke-linejoin="round"/>
<path d="M107.17 123.333L100.296 119.541L93.5039 123.333L100.337 127.126L107.17 123.333Z" stroke="#262262" stroke-opacity="0.7" stroke-width="0.75" stroke-miterlimit="10" stroke-linecap="round" stroke-linejoin="round"/>
<path d="M107.17 124.301V123.333L100.337 127.126V128.175L107.17 124.301Z" stroke="#262262" stroke-opacity="0.7" stroke-width="0.75" stroke-miterlimit="10" stroke-linecap="round" stroke-linejoin="round"/>
<path d="M100.337 127.126V128.175L93.5039 124.261V123.333L100.337 127.126Z" stroke="#262262" stroke-opacity="0.7" stroke-width="0.75" stroke-miterlimit="10" stroke-linecap="round" stroke-linejoin="round"/>
<path d="M97.815 128.255L90.9416 124.422L84.1494 128.255L90.9822 132.048L97.815 128.255Z" stroke="#262262" stroke-opacity="0.7" stroke-width="0.75" stroke-miterlimit="10" stroke-linecap="round" stroke-linejoin="round"/>
<path d="M97.815 129.223V128.255L90.9822 132.048V133.056L97.815 129.223Z" stroke="#262262" stroke-opacity="0.7" stroke-width="0.75" stroke-miterlimit="10" stroke-linecap="round" stroke-linejoin="round"/>
<path d="M90.9822 132.048V133.056L84.1494 129.183V128.255L90.9822 132.048Z" stroke="#262262" stroke-opacity="0.7" stroke-width="0.75" stroke-miterlimit="10" stroke-linecap="round" stroke-linejoin="round"/>
<path d="M116.727 108.648L109.854 104.815L103.062 108.648L109.894 112.44L116.727 108.648Z" stroke="#262262" stroke-opacity="0.7" stroke-width="0.75" stroke-miterlimit="10" stroke-linecap="round" stroke-linejoin="round"/>
<path d="M116.727 109.616V108.648L109.894 112.44V113.489L116.727 109.616Z" stroke="#262262" stroke-opacity="0.7" stroke-width="0.75" stroke-miterlimit="10" stroke-linecap="round" stroke-linejoin="round"/>
<path d="M109.894 112.44V113.489L103.062 109.576V108.648L109.894 112.44Z" stroke="#262262" stroke-opacity="0.7" stroke-width="0.75" stroke-miterlimit="10" stroke-linecap="round" stroke-linejoin="round"/>
<path d="M107.373 113.529L100.499 109.737L93.7073 113.529L100.54 117.322L107.373 113.529Z" stroke="#262262" stroke-opacity="0.7" stroke-width="0.75" stroke-miterlimit="10" stroke-linecap="round" stroke-linejoin="round"/>
<path d="M107.373 114.538V113.529L100.54 117.322V118.371L107.373 114.538Z" stroke="#262262" stroke-opacity="0.7" stroke-width="0.75" stroke-miterlimit="10" stroke-linecap="round" stroke-linejoin="round"/>
<path d="M100.54 117.322V118.371L93.7073 114.498V113.529L100.54 117.322Z" stroke="#262262" stroke-opacity="0.7" stroke-width="0.75" stroke-miterlimit="10" stroke-linecap="round" stroke-linejoin="round"/>
<path d="M98.0184 118.451L91.1449 114.659L84.3528 118.451L91.1856 122.244L98.0184 118.451Z" stroke="#262262" stroke-opacity="0.7" stroke-width="0.75" stroke-miterlimit="10" stroke-linecap="round" stroke-linejoin="round"/>
<path d="M98.0184 119.42V118.451L91.1855 122.244V123.293L98.0184 119.42Z" stroke="#262262" stroke-opacity="0.7" stroke-width="0.75" stroke-miterlimit="10" stroke-linecap="round" stroke-linejoin="round"/>
<path d="M91.1856 122.244V123.293L84.3528 119.379V118.451L91.1856 122.244Z" stroke="#262262" stroke-opacity="0.7" stroke-width="0.75" stroke-miterlimit="10" stroke-linecap="round" stroke-linejoin="round"/>
<path d="M88.6639 123.374L81.7904 119.541L74.9983 123.374L81.8311 127.166L88.6639 123.374Z" stroke="#262262" stroke-opacity="0.7" stroke-width="0.75" stroke-miterlimit="10" stroke-linecap="round" stroke-linejoin="round"/>
<path d="M88.6639 124.342V123.374L81.8311 127.166V128.175L88.6639 124.342Z" stroke="#262262" stroke-opacity="0.7" stroke-width="0.75" stroke-miterlimit="10" stroke-linecap="round" stroke-linejoin="round"/>
<path d="M81.8311 127.166V128.175L74.9983 124.301V123.374L81.8311 127.166Z" stroke="#262262" stroke-opacity="0.7" stroke-width="0.75" stroke-miterlimit="10" stroke-linecap="round" stroke-linejoin="round"/>
<path d="M107.617 103.766L100.743 99.9334L93.9106 103.766L100.743 107.558L107.617 103.766Z" stroke="#262262" stroke-opacity="0.7" stroke-width="0.75" stroke-miterlimit="10" stroke-linecap="round" stroke-linejoin="round"/>
<path d="M107.617 104.734V103.766L100.743 107.558V108.567L107.617 104.734Z" stroke="#262262" stroke-opacity="0.7" stroke-width="0.75" stroke-miterlimit="10" stroke-linecap="round" stroke-linejoin="round"/>
<path d="M100.743 107.558V108.567L93.9106 104.694V103.766L100.743 107.558Z" stroke="#262262" stroke-opacity="0.7" stroke-width="0.75" stroke-miterlimit="10" stroke-linecap="round" stroke-linejoin="round"/>
<path d="M98.2625 108.648L91.389 104.855L84.5562 108.648L91.389 112.44L98.2625 108.648Z" stroke="#262262" stroke-opacity="0.7" stroke-width="0.75" stroke-miterlimit="10" stroke-linecap="round" stroke-linejoin="round"/>
<path d="M98.2625 109.616V108.648L91.389 112.44V113.489L98.2625 109.616Z" stroke="#262262" stroke-opacity="0.7" stroke-width="0.75" stroke-miterlimit="10" stroke-linecap="round" stroke-linejoin="round"/>
<path d="M91.389 112.44V113.489L84.5562 109.616V108.648L91.389 112.44Z" stroke="#262262" stroke-opacity="0.7" stroke-width="0.75" stroke-miterlimit="10" stroke-linecap="round" stroke-linejoin="round"/>
<path d="M88.9081 113.57L82.0346 109.777L75.2018 113.57L82.0346 117.362L88.9081 113.57Z" stroke="#262262" stroke-opacity="0.7" stroke-width="0.75" stroke-miterlimit="10" stroke-linecap="round" stroke-linejoin="round"/>
<path d="M88.9081 114.538V113.57L82.0347 117.362V118.411L88.9081 114.538Z" stroke="#262262" stroke-opacity="0.7" stroke-width="0.75" stroke-miterlimit="10" stroke-linecap="round" stroke-linejoin="round"/>
<path d="M82.0346 117.362V118.411L75.2018 114.498V113.57L82.0346 117.362Z" stroke="#262262" stroke-opacity="0.7" stroke-width="0.75" stroke-miterlimit="10" stroke-linecap="round" stroke-linejoin="round"/>
<path d="M79.5535 118.492L72.68 114.659L65.8472 118.492L72.68 122.284L79.5535 118.492Z" stroke="#262262" stroke-opacity="0.7" stroke-width="0.75" stroke-miterlimit="10" stroke-linecap="round" stroke-linejoin="round"/>
<path d="M79.5534 119.46V118.492L72.6799 122.284V123.293L79.5534 119.46Z" stroke="#262262" stroke-opacity="0.7" stroke-width="0.75" stroke-miterlimit="10" stroke-linecap="round" stroke-linejoin="round"/>
<path d="M72.68 122.284V123.293L65.8472 119.42V118.492L72.68 122.284Z" stroke="#262262" stroke-opacity="0.7" stroke-width="0.75" stroke-miterlimit="10" stroke-linecap="round" stroke-linejoin="round"/>
<path d="M98.4658 98.8844L91.5923 95.0517L84.8002 98.8844L91.633 102.677L98.4658 98.8844Z" stroke="#262262" stroke-opacity="0.7" stroke-width="0.75" stroke-miterlimit="10" stroke-linecap="round" stroke-linejoin="round"/>
<path d="M98.4657 99.8527V98.8844L91.6329 102.677V103.685L98.4657 99.8527Z" stroke="#262262" stroke-opacity="0.7" stroke-width="0.75" stroke-miterlimit="10" stroke-linecap="round" stroke-linejoin="round"/>
<path d="M91.633 102.677V103.685L84.8002 99.8123V98.8844L91.633 102.677Z" stroke="#262262" stroke-opacity="0.7" stroke-width="0.75" stroke-miterlimit="10" stroke-linecap="round" stroke-linejoin="round"/>
<path d="M89.1113 103.766L82.2378 99.9737L75.4457 103.766L82.2785 107.558L89.1113 103.766Z" stroke="#262262" stroke-opacity="0.7" stroke-width="0.75" stroke-miterlimit="10" stroke-linecap="round" stroke-linejoin="round"/>
<path d="M89.1113 104.734V103.766L82.2784 107.559V108.607L89.1113 104.734Z" stroke="#262262" stroke-opacity="0.7" stroke-width="0.75" stroke-miterlimit="10" stroke-linecap="round" stroke-linejoin="round"/>
<path d="M82.2785 107.559V108.607L75.4457 104.734V103.766L82.2785 107.559Z" stroke="#262262" stroke-opacity="0.7" stroke-width="0.75" stroke-miterlimit="10" stroke-linecap="round" stroke-linejoin="round"/>
<path d="M79.757 108.688L72.8835 104.896L66.0913 108.688L72.9241 112.481L79.757 108.688Z" stroke="#262262" stroke-opacity="0.7" stroke-width="0.75" stroke-miterlimit="10" stroke-linecap="round" stroke-linejoin="round"/>
<path d="M79.7569 109.656V108.688L72.9241 112.481V113.529L79.7569 109.656Z" stroke="#262262" stroke-opacity="0.7" stroke-width="0.75" stroke-miterlimit="10" stroke-linecap="round" stroke-linejoin="round"/>
<path d="M72.9241 112.481V113.529L66.0913 109.616V108.688L72.9241 112.481Z" stroke="#262262" stroke-opacity="0.7" stroke-width="0.75" stroke-miterlimit="10" stroke-linecap="round" stroke-linejoin="round"/>
<path d="M70.4025 113.61L63.529 109.777L56.7368 113.61L63.5696 117.362L70.4025 113.61Z" stroke="#262262" stroke-opacity="0.7" stroke-width="0.75" stroke-miterlimit="10" stroke-linecap="round" stroke-linejoin="round"/>
<path d="M70.4024 114.578V113.61L63.5696 117.362V118.411L70.4024 114.578Z" stroke="#262262" stroke-opacity="0.7" stroke-width="0.75" stroke-miterlimit="10" stroke-linecap="round" stroke-linejoin="round"/>
<path d="M63.5697 117.362V118.411L56.7368 114.538V113.61L63.5697 117.362Z" stroke="#262262" stroke-opacity="0.7" stroke-width="0.75" stroke-miterlimit="10" stroke-linecap="round" stroke-linejoin="round"/>
<path d="M89.3147 94.0027L82.4412 90.17L75.649 94.0027L82.4819 97.7951L89.3147 94.0027Z" stroke="#262262" stroke-opacity="0.7" stroke-width="0.75" stroke-miterlimit="10" stroke-linecap="round" stroke-linejoin="round"/>
<path d="M89.3147 94.971V94.0027L82.4818 97.7951V98.8037L89.3147 94.971Z" stroke="#262262" stroke-opacity="0.7" stroke-width="0.75" stroke-miterlimit="10" stroke-linecap="round" stroke-linejoin="round"/>
<path d="M82.4818 97.7951V98.8037L75.649 94.9306V94.0027L82.4818 97.7951Z" stroke="#262262" stroke-opacity="0.7" stroke-width="0.75" stroke-miterlimit="10" stroke-linecap="round" stroke-linejoin="round"/>
<path d="M79.9603 98.8844L73.0868 95.092L66.2947 98.8844L73.1275 102.677L79.9603 98.8844Z" stroke="#262262" stroke-opacity="0.7" stroke-width="0.75" stroke-miterlimit="10" stroke-linecap="round" stroke-linejoin="round"/>
<path d="M79.9603 99.8527V98.8844L73.1274 102.677V103.726L79.9603 99.8527Z" stroke="#262262" stroke-opacity="0.7" stroke-width="0.75" stroke-miterlimit="10" stroke-linecap="round" stroke-linejoin="round"/>
<path d="M73.1275 102.677V103.726L66.2947 99.8527V98.8844L73.1275 102.677Z" stroke="#262262" stroke-opacity="0.7" stroke-width="0.75" stroke-miterlimit="10" stroke-linecap="round" stroke-linejoin="round"/>
<path d="M70.6058 103.806L63.7323 100.014L56.9402 103.806L63.773 107.599L70.6058 103.806Z" stroke="#262262" stroke-opacity="0.7" stroke-width="0.75" stroke-miterlimit="10" stroke-linecap="round" stroke-linejoin="round"/>
<path d="M70.6058 104.775V103.806L63.7729 107.599V108.648L70.6058 104.775Z" stroke="#262262" stroke-opacity="0.7" stroke-width="0.75" stroke-miterlimit="10" stroke-linecap="round" stroke-linejoin="round"/>
<path d="M63.773 107.599V108.648L56.9402 104.734V103.806L63.773 107.599Z" stroke="#262262" stroke-opacity="0.7" stroke-width="0.75" stroke-miterlimit="10" stroke-linecap="round" stroke-linejoin="round"/>
<path d="M61.2513 108.688L54.3778 104.896L47.5857 108.688L54.4185 112.481L61.2513 108.688Z" stroke="#262262" stroke-opacity="0.7" stroke-width="0.75" stroke-miterlimit="10" stroke-linecap="round" stroke-linejoin="round"/>
<path d="M61.2513 109.697V108.688L54.4185 112.481V113.529L61.2513 109.697Z" stroke="#262262" stroke-opacity="0.7" stroke-width="0.75" stroke-miterlimit="10" stroke-linecap="round" stroke-linejoin="round"/>
<path d="M54.4185 112.481V113.529L47.5857 109.656V108.688L54.4185 112.481Z" stroke="#262262" stroke-opacity="0.7" stroke-width="0.75" stroke-miterlimit="10" stroke-linecap="round" stroke-linejoin="round"/>
<path d="M80.2042 89.121L73.3307 85.2883L66.4979 89.121L73.3307 92.9134L80.2042 89.121Z" stroke="#262262" stroke-opacity="0.7" stroke-width="0.75" stroke-miterlimit="10" stroke-linecap="round" stroke-linejoin="round"/>
<path d="M80.2042 90.0893V89.121L73.3307 92.9134V93.922L80.2042 90.0893Z" stroke="#262262" stroke-opacity="0.7" stroke-width="0.75" stroke-miterlimit="10" stroke-linecap="round" stroke-linejoin="round"/>
<path d="M73.3307 92.9134V93.922L66.4979 90.049V89.121L73.3307 92.9134Z" stroke="#262262" stroke-opacity="0.7" stroke-width="0.75" stroke-miterlimit="10" stroke-linecap="round" stroke-linejoin="round"/>
<path d="M70.8499 94.0027L63.9764 90.2104L57.1436 94.0027L63.9764 97.7951L70.8499 94.0027Z" stroke="#262262" stroke-opacity="0.7" stroke-width="0.75" stroke-miterlimit="10" stroke-linecap="round" stroke-linejoin="round"/>
<path d="M70.8498 94.971V94.0027L63.9763 97.7951V98.8441L70.8498 94.971Z" stroke="#262262" stroke-opacity="0.7" stroke-width="0.75" stroke-miterlimit="10" stroke-linecap="round" stroke-linejoin="round"/>
<path d="M63.9764 97.7951V98.8441L57.1436 94.9306V94.0027L63.9764 97.7951Z" stroke="#262262" stroke-opacity="0.7" stroke-width="0.75" stroke-miterlimit="10" stroke-linecap="round" stroke-linejoin="round"/>
<path d="M61.4954 98.9248L54.6219 95.092L47.7891 98.9248L54.6219 102.717L61.4954 98.9248Z" stroke="#262262" stroke-opacity="0.7" stroke-width="0.75" stroke-miterlimit="10" stroke-linecap="round" stroke-linejoin="round"/>
<path d="M61.4953 99.893V98.9248L54.6218 102.717V103.766L61.4953 99.893Z" stroke="#262262" stroke-opacity="0.7" stroke-width="0.75" stroke-miterlimit="10" stroke-linecap="round" stroke-linejoin="round"/>
<path d="M54.6219 102.717V103.766L47.7891 99.8527V98.9248L54.6219 102.717Z" stroke="#262262" stroke-opacity="0.7" stroke-width="0.75" stroke-miterlimit="10" stroke-linecap="round" stroke-linejoin="round"/>
<path d="M52.1409 103.806L45.2674 100.014L38.4346 103.806L45.2674 107.599L52.1409 103.806Z" stroke="#262262" stroke-opacity="0.7" stroke-width="0.75" stroke-miterlimit="10" stroke-linecap="round" stroke-linejoin="round"/>
<path d="M52.1408 104.775V103.806L45.2673 107.599V108.648L52.1408 104.775Z" stroke="#262262" stroke-opacity="0.7" stroke-width="0.75" stroke-miterlimit="10" stroke-linecap="round" stroke-linejoin="round"/>
<path d="M45.2674 107.599V108.648L38.4346 104.775V103.806L45.2674 107.599Z" stroke="#262262" stroke-opacity="0.7" stroke-width="0.75" stroke-miterlimit="10" stroke-linecap="round" stroke-linejoin="round"/>
<path d="M164.191 61.1219V117.201C164.191 118.855 162.401 119.904 160.937 119.097L74.4696 71.9343C73.7782 71.5712 73.3308 70.8046 73.3308 70.0381V12.7489C73.3308 11.0948 75.1204 10.0458 76.5845 10.8527L163.093 59.2661C163.784 59.6292 164.191 60.3554 164.191 61.1219Z" stroke="#262262" stroke-opacity="0.7" stroke-width="0.75" stroke-miterlimit="10" stroke-linecap="round" stroke-linejoin="round"/>
<path d="M171.837 133.016V136.929C171.837 138.261 171.105 139.471 169.966 140.157L103.875 177.193C102.33 178.04 100.459 178.04 98.9131 177.193L2.60289 123.131C1.09804 122.284 0.162598 120.711 0.162598 118.976V113.933C0.243941 114.821 0.813342 115.748 1.91147 116.354L98.8725 170.092C100.743 171.141 103.021 171.141 104.892 170.092L171.837 133.016Z" stroke="#262262" stroke-opacity="0.7" stroke-width="0.75" stroke-miterlimit="10" stroke-linecap="round" stroke-linejoin="round"/>
<line y1="-0.25" x2="50.5704" y2="-0.25" transform="matrix(0.875624 0.482993 -0.478676 0.877991 84.4073 28.7354)" stroke="#0B2C5D" stroke-width="0.5"/>
<line y1="-0.25" x2="79.0511" y2="-0.25" transform="matrix(0.876367 0.481644 -0.477332 0.878723 84.4073 35.9991)" stroke="#0B2C5D" stroke-width="0.5"/>
<line y1="-0.25" x2="79.0511" y2="-0.25" transform="matrix(0.876367 0.481644 -0.477332 0.878723 84.4073 43.1031)" stroke="#0B2C5D" stroke-width="0.5"/>
<line y1="-0.25" x2="79.0511" y2="-0.25" transform="matrix(0.876367 0.481644 -0.477332 0.878723 84.4073 50.287)" stroke="#0B2C5D" stroke-width="0.5"/>
<line y1="-0.25" x2="79.0511" y2="-0.25" transform="matrix(0.876367 0.481644 -0.477332 0.878723 84.4073 57.4709)" stroke="#0B2C5D" stroke-width="0.5"/>
</g>
<defs>
<clipPath id="clip0">
<rect width="172" height="178" fill="white"/>
</clipPath>
<clipPath id="clip1">
<rect width="18.0672" height="11.4378" fill="white" transform="translate(13.7311 107.944)"/>
</clipPath>
</defs>
</svg>
