<svg width="400" height="148" viewBox="0 0 400 148" fill="none" xmlns="http://www.w3.org/2000/svg">
<path d="M37.5878 2.5V23.2H13.7378V2.5H1.58779V55H13.7378V33.475H37.5878V55H49.7378V2.5H37.5878ZM101.384 55H114.134L90.6591 2.5H78.6591L55.2591 55H67.7091L72.3591 43.75H96.7341L101.384 55ZM76.2591 34.525L84.5841 14.425L92.9091 34.525H76.2591ZM143.974 55.9C153.124 55.9 160.699 52.6 165.649 46.525L157.849 39.325C154.324 43.45 149.899 45.55 144.649 45.55C134.824 45.55 127.849 38.65 127.849 28.75C127.849 18.85 134.824 11.95 144.649 11.95C149.899 11.95 154.324 14.05 157.849 18.1L165.649 10.9C160.699 4.9 153.124 1.6 144.049 1.6C127.699 1.6 115.549 12.925 115.549 28.75C115.549 44.575 127.699 55.9 143.974 55.9ZM209.778 55H223.953L200.928 25.9L222.678 2.5H209.178L185.928 27.025V2.5H173.853V55H185.928V41.725L192.978 34.375L209.778 55ZM261.486 55H273.636V12.4H290.436V2.5H244.686V12.4H261.486V55ZM332.974 2.5V23.2H309.124V2.5H296.974V55H309.124V33.475H332.974V55H345.124V2.5H332.974ZM369.62 45.25V33.1H393.995V23.65H369.62V12.25H397.22V2.5H357.545V55H398.195V45.25H369.62ZM86.3067 103.25V93.5H46.6317V146H58.7817V126.875H83.0817V117.125H58.7817V103.25H86.3067ZM117.857 146.9C132.782 146.9 141.632 138.35 141.632 122.9V93.5H129.632V122.45C129.632 132.425 125.357 136.55 117.932 136.55C110.582 136.55 106.232 132.425 106.232 122.45V93.5H94.0821V122.9C94.0821 138.35 102.932 146.9 117.857 146.9ZM163.635 146H175.785V103.4H192.585V93.5H146.835V103.4H163.635V146ZM221.568 146.9C236.493 146.9 245.343 138.35 245.343 122.9V93.5H233.343V122.45C233.343 132.425 229.068 136.55 221.643 136.55C214.293 136.55 209.943 132.425 209.943 122.45V93.5H197.793V122.9C197.793 138.35 206.643 146.9 221.568 146.9ZM303.85 146L292.075 129.125C298.9 126.2 302.875 120.425 302.875 112.55C302.875 100.775 294.1 93.5 280.075 93.5H257.35V146H269.5V131.375H280.075H280.675L290.8 146H303.85ZM290.575 112.55C290.575 118.25 286.825 121.7 279.4 121.7H269.5V103.4H279.4C286.825 103.4 290.575 106.775 290.575 112.55ZM324.576 136.25V124.1H348.951V114.65H324.576V103.25H352.176V93.5H312.501V146H353.151V136.25H324.576Z" fill="#F5D2A2"/>
<path d="M37.5878 2.5V1.5H36.5878V2.5H37.5878ZM37.5878 23.2V24.2H38.5878V23.2H37.5878ZM13.7378 23.2H12.7378V24.2H13.7378V23.2ZM13.7378 2.5H14.7378V1.5H13.7378V2.5ZM1.58779 2.5V1.5H0.587793V2.5H1.58779ZM1.58779 55H0.587793V56H1.58779V55ZM13.7378 55V56H14.7378V55H13.7378ZM13.7378 33.475V32.475H12.7378V33.475H13.7378ZM37.5878 33.475H38.5878V32.475H37.5878V33.475ZM37.5878 55H36.5878V56H37.5878V55ZM49.7378 55V56H50.7378V55H49.7378ZM49.7378 2.5H50.7378V1.5H49.7378V2.5ZM36.5878 2.5V23.2H38.5878V2.5H36.5878ZM37.5878 22.2H13.7378V24.2H37.5878V22.2ZM14.7378 23.2V2.5H12.7378V23.2H14.7378ZM13.7378 1.5H1.58779V3.5H13.7378V1.5ZM0.587793 2.5V55H2.58779V2.5H0.587793ZM1.58779 56H13.7378V54H1.58779V56ZM14.7378 55V33.475H12.7378V55H14.7378ZM13.7378 34.475H37.5878V32.475H13.7378V34.475ZM36.5878 33.475V55H38.5878V33.475H36.5878ZM37.5878 56H49.7378V54H37.5878V56ZM50.7378 55V2.5H48.7378V55H50.7378ZM49.7378 1.5H37.5878V3.5H49.7378V1.5ZM101.384 55L100.46 55.382L100.715 56H101.384V55ZM114.134 55V56H115.677L115.047 54.5918L114.134 55ZM90.6591 2.5L91.572 2.0918L91.3074 1.5H90.6591V2.5ZM78.6591 2.5V1.5H78.01L77.7457 2.09289L78.6591 2.5ZM55.2591 55L54.3457 54.5929L53.7185 56H55.2591V55ZM67.7091 55V56H68.3778L68.6332 55.382L67.7091 55ZM72.3591 43.75V42.75H71.6904L71.4349 43.368L72.3591 43.75ZM96.7341 43.75L97.6582 43.368L97.4028 42.75H96.7341V43.75ZM76.2591 34.525L75.3352 34.1423L74.7625 35.525H76.2591V34.525ZM84.5841 14.425L85.508 14.0423L84.5841 11.8117L83.6602 14.0423L84.5841 14.425ZM92.9091 34.525V35.525H94.4056L93.833 34.1423L92.9091 34.525ZM101.384 56H114.134V54H101.384V56ZM115.047 54.5918L91.572 2.0918L89.7462 2.90819L113.221 55.4082L115.047 54.5918ZM90.6591 1.5H78.6591V3.5H90.6591V1.5ZM77.7457 2.09289L54.3457 54.5929L56.1725 55.4071L79.5725 2.9071L77.7457 2.09289ZM55.2591 56H67.7091V54H55.2591V56ZM68.6332 55.382L73.2832 44.132L71.4349 43.368L66.7849 54.618L68.6332 55.382ZM72.3591 44.75H96.7341V42.75H72.3591V44.75ZM95.8099 44.132L100.46 55.382L102.308 54.618L97.6582 43.368L95.8099 44.132ZM77.183 34.9077L85.508 14.8077L83.6602 14.0423L75.3352 34.1423L77.183 34.9077ZM83.6602 14.8077L91.9852 34.9077L93.833 34.1423L85.508 14.0423L83.6602 14.8077ZM92.9091 33.525H76.2591V35.525H92.9091V33.525ZM165.649 46.525L166.424 47.1567L167.018 46.4279L166.327 45.7902L165.649 46.525ZM157.849 39.325L158.527 38.5902L157.763 37.8854L157.088 38.6753L157.849 39.325ZM157.849 18.1L157.094 18.7565L157.77 19.5332L158.527 18.8348L157.849 18.1ZM165.649 10.9L166.327 11.6348L167.022 10.9932L166.42 10.2636L165.649 10.9ZM143.974 56.9C153.371 56.9 161.253 53.5029 166.424 47.1567L164.873 45.8933C160.144 51.6971 152.876 54.9 143.974 54.9V56.9ZM166.327 45.7902L158.527 38.5902L157.17 40.0598L164.97 47.2598L166.327 45.7902ZM157.088 38.6753C153.744 42.5887 149.592 44.55 144.649 44.55V46.55C150.205 46.55 154.903 44.3113 158.609 39.9747L157.088 38.6753ZM144.649 44.55C139.976 44.55 136.038 42.9132 133.27 40.1543C130.503 37.3958 128.849 33.4585 128.849 28.75H126.849C126.849 33.9415 128.682 38.4042 131.858 41.5707C135.034 44.7368 139.496 46.55 144.649 46.55V44.55ZM128.849 28.75C128.849 24.0415 130.503 20.1042 133.27 17.3457C136.038 14.5868 139.976 12.95 144.649 12.95V10.95C139.496 10.95 135.034 12.7632 131.858 15.9293C128.682 19.0958 126.849 23.5585 126.849 28.75H128.849ZM144.649 12.95C149.594 12.95 153.749 14.913 157.094 18.7565L158.603 17.4435C154.898 13.187 150.203 10.95 144.649 10.95V12.95ZM158.527 18.8348L166.327 11.6348L164.97 10.1652L157.17 17.3652L158.527 18.8348ZM166.42 10.2636C161.25 3.99734 153.372 0.599998 144.049 0.599998V2.6C152.875 2.6 160.147 5.80265 164.877 11.5364L166.42 10.2636ZM144.049 0.599998C127.199 0.599998 114.549 12.3216 114.549 28.75H116.549C116.549 13.5284 128.198 2.6 144.049 2.6V0.599998ZM114.549 28.75C114.549 45.1767 127.197 56.9 143.974 56.9V54.9C128.2 54.9 116.549 43.9733 116.549 28.75H114.549ZM209.778 55L209.003 55.6315L209.303 56H209.778V55ZM223.953 55V56H226.02L224.738 54.3795L223.953 55ZM200.928 25.9L200.196 25.2192L199.612 25.8476L200.144 26.5205L200.928 25.9ZM222.678 2.5L223.411 3.18081L224.973 1.5H222.678V2.5ZM209.178 2.5V1.5H208.748L208.453 1.81201L209.178 2.5ZM185.928 27.025H184.928V29.5333L186.654 27.713L185.928 27.025ZM185.928 2.5H186.928V1.5H185.928V2.5ZM173.853 2.5V1.5H172.853V2.5H173.853ZM173.853 55H172.853V56H173.853V55ZM185.928 55V56H186.928V55H185.928ZM185.928 41.725L185.207 41.0328L184.928 41.3229V41.725H185.928ZM192.978 34.375L193.754 33.7435L193.04 32.8666L192.257 33.6828L192.978 34.375ZM209.778 56H223.953V54H209.778V56ZM224.738 54.3795L201.713 25.2795L200.144 26.5205L223.169 55.6205L224.738 54.3795ZM201.661 26.5808L223.411 3.18081L221.946 1.81919L200.196 25.2192L201.661 26.5808ZM222.678 1.5H209.178V3.5H222.678V1.5ZM208.453 1.81201L185.203 26.337L186.654 27.713L209.904 3.18799L208.453 1.81201ZM186.928 27.025V2.5H184.928V27.025H186.928ZM185.928 1.5H173.853V3.5H185.928V1.5ZM172.853 2.5V55H174.853V2.5H172.853ZM173.853 56H185.928V54H173.853V56ZM186.928 55V41.725H184.928V55H186.928ZM186.65 42.4172L193.7 35.0672L192.257 33.6828L185.207 41.0328L186.65 42.4172ZM192.203 35.0065L209.003 55.6315L210.554 54.3685L193.754 33.7435L192.203 35.0065ZM261.486 55H260.486V56H261.486V55ZM273.636 55V56H274.636V55H273.636ZM273.636 12.4V11.4H272.636V12.4H273.636ZM290.436 12.4V13.4H291.436V12.4H290.436ZM290.436 2.5H291.436V1.5H290.436V2.5ZM244.686 2.5V1.5H243.686V2.5H244.686ZM244.686 12.4H243.686V13.4H244.686V12.4ZM261.486 12.4H262.486V11.4H261.486V12.4ZM261.486 56H273.636V54H261.486V56ZM274.636 55V12.4H272.636V55H274.636ZM273.636 13.4H290.436V11.4H273.636V13.4ZM291.436 12.4V2.5H289.436V12.4H291.436ZM290.436 1.5H244.686V3.5H290.436V1.5ZM243.686 2.5V12.4H245.686V2.5H243.686ZM244.686 13.4H261.486V11.4H244.686V13.4ZM260.486 12.4V55H262.486V12.4H260.486ZM332.974 2.5V1.5H331.974V2.5H332.974ZM332.974 23.2V24.2H333.974V23.2H332.974ZM309.124 23.2H308.124V24.2H309.124V23.2ZM309.124 2.5H310.124V1.5H309.124V2.5ZM296.974 2.5V1.5H295.974V2.5H296.974ZM296.974 55H295.974V56H296.974V55ZM309.124 55V56H310.124V55H309.124ZM309.124 33.475V32.475H308.124V33.475H309.124ZM332.974 33.475H333.974V32.475H332.974V33.475ZM332.974 55H331.974V56H332.974V55ZM345.124 55V56H346.124V55H345.124ZM345.124 2.5H346.124V1.5H345.124V2.5ZM331.974 2.5V23.2H333.974V2.5H331.974ZM332.974 22.2H309.124V24.2H332.974V22.2ZM310.124 23.2V2.5H308.124V23.2H310.124ZM309.124 1.5H296.974V3.5H309.124V1.5ZM295.974 2.5V55H297.974V2.5H295.974ZM296.974 56H309.124V54H296.974V56ZM310.124 55V33.475H308.124V55H310.124ZM309.124 34.475H332.974V32.475H309.124V34.475ZM331.974 33.475V55H333.974V33.475H331.974ZM332.974 56H345.124V54H332.974V56ZM346.124 55V2.5H344.124V55H346.124ZM345.124 1.5H332.974V3.5H345.124V1.5ZM369.62 45.25H368.62V46.25H369.62V45.25ZM369.62 33.1V32.1H368.62V33.1H369.62ZM393.995 33.1V34.1H394.995V33.1H393.995ZM393.995 23.65H394.995V22.65H393.995V23.65ZM369.62 23.65H368.62V24.65H369.62V23.65ZM369.62 12.25V11.25H368.62V12.25H369.62ZM397.22 12.25V13.25H398.22V12.25H397.22ZM397.22 2.5H398.22V1.5H397.22V2.5ZM357.545 2.5V1.5H356.545V2.5H357.545ZM357.545 55H356.545V56H357.545V55ZM398.195 55V56H399.195V55H398.195ZM398.195 45.25H399.195V44.25H398.195V45.25ZM370.62 45.25V33.1H368.62V45.25H370.62ZM369.62 34.1H393.995V32.1H369.62V34.1ZM394.995 33.1V23.65H392.995V33.1H394.995ZM393.995 22.65H369.62V24.65H393.995V22.65ZM370.62 23.65V12.25H368.62V23.65H370.62ZM369.62 13.25H397.22V11.25H369.62V13.25ZM398.22 12.25V2.5H396.22V12.25H398.22ZM397.22 1.5H357.545V3.5H397.22V1.5ZM356.545 2.5V55H358.545V2.5H356.545ZM357.545 56H398.195V54H357.545V56ZM399.195 55V45.25H397.195V55H399.195ZM398.195 44.25H369.62V46.25H398.195V44.25ZM86.3067 103.25V104.25H87.3067V103.25H86.3067ZM86.3067 93.5H87.3067V92.5H86.3067V93.5ZM46.6317 93.5V92.5H45.6317V93.5H46.6317ZM46.6317 146H45.6317V147H46.6317V146ZM58.7817 146V147H59.7817V146H58.7817ZM58.7817 126.875V125.875H57.7817V126.875H58.7817ZM83.0817 126.875V127.875H84.0817V126.875H83.0817ZM83.0817 117.125H84.0817V116.125H83.0817V117.125ZM58.7817 117.125H57.7817V118.125H58.7817V117.125ZM58.7817 103.25V102.25H57.7817V103.25H58.7817ZM87.3067 103.25V93.5H85.3067V103.25H87.3067ZM86.3067 92.5H46.6317V94.5H86.3067V92.5ZM45.6317 93.5V146H47.6317V93.5H45.6317ZM46.6317 147H58.7817V145H46.6317V147ZM59.7817 146V126.875H57.7817V146H59.7817ZM58.7817 127.875H83.0817V125.875H58.7817V127.875ZM84.0817 126.875V117.125H82.0817V126.875H84.0817ZM83.0817 116.125H58.7817V118.125H83.0817V116.125ZM59.7817 117.125V103.25H57.7817V117.125H59.7817ZM58.7817 104.25H86.3067V102.25H58.7817V104.25ZM141.632 93.5H142.632V92.5H141.632V93.5ZM129.632 93.5V92.5H128.632V93.5H129.632ZM106.232 93.5H107.232V92.5H106.232V93.5ZM94.0821 93.5V92.5H93.0821V93.5H94.0821ZM117.857 147.9C125.508 147.9 131.734 145.705 136.048 141.402C140.362 137.097 142.632 130.814 142.632 122.9H140.632C140.632 130.436 138.477 136.153 134.635 139.986C130.793 143.82 125.131 145.9 117.857 145.9V147.9ZM142.632 122.9V93.5H140.632V122.9H142.632ZM141.632 92.5H129.632V94.5H141.632V92.5ZM128.632 93.5V122.45H130.632V93.5H128.632ZM128.632 122.45C128.632 127.319 127.585 130.561 125.814 132.581C124.067 134.575 121.461 135.55 117.932 135.55V137.55C121.829 137.55 125.072 136.462 127.319 133.9C129.541 131.364 130.632 127.556 130.632 122.45H128.632ZM117.932 135.55C114.444 135.55 111.835 134.577 110.076 132.58C108.296 130.558 107.232 127.315 107.232 122.45H105.232C105.232 127.56 106.343 131.367 108.575 133.902C110.829 136.461 114.071 137.55 117.932 137.55V135.55ZM107.232 122.45V93.5H105.232V122.45H107.232ZM106.232 92.5H94.0821V94.5H106.232V92.5ZM93.0821 93.5V122.9H95.0821V93.5H93.0821ZM93.0821 122.9C93.0821 130.814 95.3523 137.097 99.6665 141.402C103.98 145.705 110.206 147.9 117.857 147.9V145.9C110.583 145.9 104.922 143.82 101.079 139.986C97.237 136.153 95.0821 130.436 95.0821 122.9H93.0821ZM163.635 146H162.635V147H163.635V146ZM175.785 146V147H176.785V146H175.785ZM175.785 103.4V102.4H174.785V103.4H175.785ZM192.585 103.4V104.4H193.585V103.4H192.585ZM192.585 93.5H193.585V92.5H192.585V93.5ZM146.835 93.5V92.5H145.835V93.5H146.835ZM146.835 103.4H145.835V104.4H146.835V103.4ZM163.635 103.4H164.635V102.4H163.635V103.4ZM163.635 147H175.785V145H163.635V147ZM176.785 146V103.4H174.785V146H176.785ZM175.785 104.4H192.585V102.4H175.785V104.4ZM193.585 103.4V93.5H191.585V103.4H193.585ZM192.585 92.5H146.835V94.5H192.585V92.5ZM145.835 93.5V103.4H147.835V93.5H145.835ZM146.835 104.4H163.635V102.4H146.835V104.4ZM162.635 103.4V146H164.635V103.4H162.635ZM245.343 93.5H246.343V92.5H245.343V93.5ZM233.343 93.5V92.5H232.343V93.5H233.343ZM209.943 93.5H210.943V92.5H209.943V93.5ZM197.793 93.5V92.5H196.793V93.5H197.793ZM221.568 147.9C229.219 147.9 235.445 145.705 239.759 141.402C244.073 137.097 246.343 130.814 246.343 122.9H244.343C244.343 130.436 242.188 136.153 238.346 139.986C234.503 143.82 228.842 145.9 221.568 145.9V147.9ZM246.343 122.9V93.5H244.343V122.9H246.343ZM245.343 92.5H233.343V94.5H245.343V92.5ZM232.343 93.5V122.45H234.343V93.5H232.343ZM232.343 122.45C232.343 127.319 231.296 130.561 229.525 132.581C227.778 134.575 225.172 135.55 221.643 135.55V137.55C225.539 137.55 228.783 136.462 231.029 133.9C233.252 131.364 234.343 127.556 234.343 122.45H232.343ZM221.643 135.55C218.154 135.55 215.546 134.577 213.787 132.58C212.007 130.558 210.943 127.315 210.943 122.45H208.943C208.943 127.56 210.054 131.367 212.286 133.902C214.54 136.461 217.782 137.55 221.643 137.55V135.55ZM210.943 122.45V93.5H208.943V122.45H210.943ZM209.943 92.5H197.793V94.5H209.943V92.5ZM196.793 93.5V122.9H198.793V93.5H196.793ZM196.793 122.9C196.793 130.814 199.063 137.097 203.377 141.402C207.691 145.705 213.917 147.9 221.568 147.9V145.9C214.294 145.9 208.633 143.82 204.79 139.986C200.948 136.153 198.793 130.436 198.793 122.9H196.793ZM303.85 146V147H305.767L304.67 145.428L303.85 146ZM292.075 129.125L291.681 128.206L290.551 128.69L291.254 129.697L292.075 129.125ZM257.35 93.5V92.5H256.35V93.5H257.35ZM257.35 146H256.35V147H257.35V146ZM269.5 146V147H270.5V146H269.5ZM269.5 131.375V130.375H268.5V131.375H269.5ZM280.674 131.375L281.497 130.806L281.198 130.375H280.674V131.375ZM290.8 146L289.977 146.569L290.276 147H290.8V146ZM269.5 121.7H268.5V122.7H269.5V121.7ZM269.5 103.4V102.4H268.5V103.4H269.5ZM304.67 145.428L292.895 128.553L291.254 129.697L303.029 146.572L304.67 145.428ZM292.468 130.044C299.659 126.962 303.875 120.827 303.875 112.55H301.875C301.875 120.023 298.14 125.438 291.681 128.206L292.468 130.044ZM303.875 112.55C303.875 106.394 301.57 101.339 297.374 97.8413C293.2 94.3609 287.25 92.5 280.075 92.5V94.5C286.924 94.5 292.374 96.2766 296.094 99.3774C299.792 102.461 301.875 106.931 301.875 112.55H303.875ZM280.075 92.5H257.35V94.5H280.075V92.5ZM256.35 93.5V146H258.35V93.5H256.35ZM257.35 147H269.5V145H257.35V147ZM270.5 146V131.375H268.5V146H270.5ZM269.5 132.375H280.075V130.375H269.5V132.375ZM280.075 132.375H280.674V130.375H280.075V132.375ZM279.852 131.944L289.977 146.569L291.622 145.431L281.497 130.806L279.852 131.944ZM290.8 147H303.85V145H290.8V147ZM289.575 112.55C289.575 115.168 288.723 117.15 287.126 118.498C285.504 119.868 282.973 120.7 279.4 120.7V122.7C283.251 122.7 286.308 121.807 288.416 120.027C290.551 118.225 291.575 115.632 291.575 112.55H289.575ZM279.4 120.7H269.5V122.7H279.4V120.7ZM270.5 121.7V103.4H268.5V121.7H270.5ZM269.5 104.4H279.4V102.4H269.5V104.4ZM279.4 104.4C282.978 104.4 285.508 105.215 287.129 106.575C288.721 107.912 289.575 109.891 289.575 112.55H291.575C291.575 109.434 290.553 106.838 288.414 105.043C286.304 103.272 283.246 102.4 279.4 102.4V104.4ZM324.576 136.25H323.576V137.25H324.576V136.25ZM324.576 124.1V123.1H323.576V124.1H324.576ZM348.951 124.1V125.1H349.951V124.1H348.951ZM348.951 114.65H349.951V113.65H348.951V114.65ZM324.576 114.65H323.576V115.65H324.576V114.65ZM324.576 103.25V102.25H323.576V103.25H324.576ZM352.176 103.25V104.25H353.176V103.25H352.176ZM352.176 93.5H353.176V92.5H352.176V93.5ZM312.501 93.5V92.5H311.501V93.5H312.501ZM312.501 146H311.501V147H312.501V146ZM353.151 146V147H354.151V146H353.151ZM353.151 136.25H354.151V135.25H353.151V136.25ZM325.576 136.25V124.1H323.576V136.25H325.576ZM324.576 125.1H348.951V123.1H324.576V125.1ZM349.951 124.1V114.65H347.951V124.1H349.951ZM348.951 113.65H324.576V115.65H348.951V113.65ZM325.576 114.65V103.25H323.576V114.65H325.576ZM324.576 104.25H352.176V102.25H324.576V104.25ZM353.176 103.25V93.5H351.176V103.25H353.176ZM352.176 92.5H312.501V94.5H352.176V92.5ZM311.501 93.5V146H313.501V93.5H311.501ZM312.501 147H353.151V145H312.501V147ZM354.151 146V136.25H352.151V146H354.151ZM353.151 135.25H324.576V137.25H353.151V135.25Z" fill="#0B2C5D"/>
</svg>
