<svg width="428" height="428" viewBox="0 0 428 428" fill="none" xmlns="http://www.w3.org/2000/svg">
<path d="M2.40861 200.697C2.14099 205.082 2.00478 209.502 2 213.959C1.98208 331.035 96.8718 425.975 213.955 426.018C331.039 426.061 425.975 331.128 426 214.045C426.025 96.9614 331.128 2.02509 214.045 2C105.865 1.9785 16.5951 82.9828 3.62009 187.665L2.40861 200.697Z" stroke="#1C2F5C" stroke-width="2.19715" stroke-miterlimit="10"/>
<path d="M46.8857 159.216C45.8844 159.15 44.9158 158.833 44.0684 158.295C42.4397 157.232 40.5471 156.642 38.6025 156.593C33.4304 156.539 28.2081 160.829 25.6991 167.586C25.187 169.039 24.2205 170.288 22.9428 171.148C19.8459 173.151 17.0995 175.649 14.8137 178.543C9.66673 185.098 8.51261 191.804 7.18285 200.088C4.01794 219.303 6.84361 239.026 15.2761 256.579C15.3823 256.801 15.464 257.035 15.5198 257.275C16.08 259.734 17.2525 262.013 18.9285 263.898C23.3049 268.73 29.7888 269.052 33.5092 268.755C34.2727 268.693 35.035 268.89 35.6725 269.314C36.31 269.739 36.7854 270.367 37.0218 271.095C37.9693 274.172 39.8586 276.874 42.4233 278.82C44.3007 280.206 46.4752 281.136 48.7746 281.536C49.0918 281.596 49.3926 281.722 49.6566 281.908C49.9206 282.093 50.1418 282.333 50.3051 282.612C53.0335 287.142 54.1901 292.446 53.5954 297.701C53.5572 298.014 53.5476 298.33 53.5667 298.644C53.718 300.961 54.1341 303.253 54.8069 305.476C57.7567 315.189 64.8715 320.888 68.4271 323.329C68.6687 323.491 68.8965 323.674 69.1081 323.874C72.6945 327.338 75.2323 331.743 76.4307 336.583C77.1435 339.537 77.3363 342.592 77.0006 345.612C76.7495 348.035 77.3863 350.466 78.7928 352.455C85.278 361.744 92.5536 370.457 100.538 378.494C117.492 395.541 127.216 398.985 131.116 400.165C133.532 400.881 150.603 405.867 155.245 399.2C155.659 398.598 155.964 397.929 156.148 397.222C156.511 396.038 157.319 395.04 158.403 394.441C159.539 393.77 160.499 392.837 161.202 391.721C161.906 390.604 162.332 389.336 162.446 388.021C162.56 386.357 162.142 384.7 161.252 383.29C160.745 382.452 160.578 381.452 160.785 380.495C160.992 379.537 161.558 378.696 162.367 378.143C165.187 376.181 168.187 374.492 171.328 373.1C175.152 371.405 177.17 371.043 178.234 369.2C179.553 366.917 179.263 362.62 172.582 353.813C172.377 353.548 172.156 353.297 171.919 353.06C169.227 350.361 168.371 347.813 168.048 346.304C166.528 339.193 171.665 330.616 181.256 325.157C182.365 324.536 183.329 323.687 184.084 322.666C185.948 320.092 188.373 317.977 191.175 316.479C193.978 314.981 197.084 314.14 200.26 314.021C201.711 313.981 203.127 313.564 204.367 312.809C205.995 311.791 205.421 308.669 207.202 306.411C210.299 302.468 212.78 297.759 213.073 295.855C213.303 293.347 214.751 292.16 215.962 288.164C217.421 283.343 218.754 281.594 217.995 280.379C217.174 279.063 214.073 278.633 204.987 281.522C202.768 282.245 200.681 283.324 198.808 284.716C194.765 287.673 189.586 288.357 185.295 286.411C179.675 283.863 178.173 277.97 177.994 277.203C174.873 270.257 169.916 264.294 163.657 259.956C161.582 258.521 159.801 256.702 158.41 254.597C152.161 245.118 147.077 234.92 143.27 224.224C143.115 223.809 142.919 223.411 142.686 223.034C141.252 220.575 141.61 218.016 142.732 217.242C143.854 216.468 146.345 216.984 148.109 219.174C148.517 219.698 148.811 220.301 148.973 220.944C150.908 228.038 153.897 232.665 156.274 235.583C160.575 240.844 164.274 242.317 169.385 248.672C171.459 251.252 173.278 254.026 174.819 256.956C175.596 258.436 176.851 261.325 177.328 263.511C178.604 269.45 179.672 272.307 184.113 275.181C190.084 279.045 195.611 276.017 198.281 275.06C198.701 274.909 199.152 274.762 199.611 274.615C202.587 273.691 205.49 272.547 208.296 271.192C209.295 270.681 210.336 270.255 211.407 269.92C216.973 268.377 222.217 265.846 226.887 262.447C227.292 262.159 227.729 261.919 228.188 261.73C233.829 259.415 238.98 256.053 243.371 251.823C245.317 249.938 253.525 241.991 251.454 237.923C250.533 236.131 248.253 236.378 244.959 234.998C241.891 233.715 238.661 231.314 235.747 226.873C235.546 226.563 235.274 226.304 234.954 226.118C234.635 225.931 234.276 225.823 233.906 225.8C233.537 225.777 233.168 225.841 232.828 225.987C232.487 226.133 232.186 226.357 231.948 226.64C230.727 228.161 229.179 229.388 227.42 230.231C225.66 231.073 223.734 231.509 221.783 231.507C217.271 231.454 214.106 228.927 212.489 227.238C211.688 226.379 210.755 225.653 209.726 225.088C207.039 223.679 204.966 221.33 203.901 218.489C203.431 217.2 202.781 215.983 201.969 214.876C200.058 212.317 199.379 210.654 199.934 209.887C200.787 208.711 204.536 209.64 211.181 212.672C212.79 213.42 214.187 214.557 215.245 215.98C216.686 217.918 218.607 219.446 220.819 220.414C223.315 221.479 226.071 221.777 228.737 221.271C232.439 220.663 236.238 221.197 239.629 222.801C243.02 224.364 246.637 225.38 250.346 225.812C256.38 226.491 262.487 225.628 268.095 223.303C272.625 221.407 277.677 221.164 282.368 222.615C286.311 223.821 289.988 225.768 293.203 228.35C297.085 231.511 300.013 235.518 302.726 234.697C304.268 234.228 305.167 232.368 305.709 230.299C305.761 230.099 305.872 229.919 306.028 229.783C306.184 229.647 306.377 229.561 306.583 229.536C306.789 229.512 306.997 229.55 307.18 229.646C307.364 229.742 307.514 229.891 307.612 230.074C309.421 233.515 310.473 237.303 310.698 241.185C310.923 244.55 311.903 247.82 313.565 250.755C321.092 264.239 326.074 273.167 330.35 272.809C334.293 272.479 337.587 267.454 338.924 263.92C340.085 260.789 340.237 257.374 339.358 254.153C338.883 252.408 338.775 250.583 339.039 248.795C339.304 247.006 339.936 245.291 340.895 243.758C343.096 240.322 345.296 236.885 347.494 233.446C356.827 211.339 363.707 200.757 368.132 201.701C369.121 201.908 369.989 202.701 370.734 204.066C371.538 205.607 372.58 207.011 373.82 208.228L386.856 220.597C390.084 223.658 392.395 227.557 393.53 231.859V231.859C394.004 233.672 394.314 235.524 394.455 237.393C394.66 240.155 395.39 242.853 396.605 245.343C398.476 249.171 399.493 253.359 399.588 257.619C399.59 257.911 399.65 258.199 399.764 258.468C399.878 258.737 400.044 258.98 400.253 259.185C400.461 259.389 400.708 259.551 400.979 259.659C401.25 259.768 401.539 259.823 401.831 259.819C402.522 259.82 403.2 259.632 403.792 259.275C405.942 257.884 406.598 253.708 404.362 249.325C404.158 248.931 403.906 248.564 403.613 248.231C400.895 245.135 398.834 241.519 397.556 237.602C396.277 233.685 395.808 229.55 396.175 225.446C396.219 224.912 396.461 224.413 396.854 224.048C397.246 223.682 397.761 223.477 398.297 223.471C399.842 223.471 401.602 223.769 403.064 224.876C406.39 227.385 405.993 232.45 406.874 232.493C407.512 232.525 408.552 229.912 410.283 217.281C410.326 216.955 410.38 216.625 410.444 216.303C410.953 213.794 411.753 207.787 408.778 201.382C407.851 199.378 406.644 197.516 405.193 195.851C402.834 193.225 401.51 189.832 401.466 186.303C401.466 185.944 401.466 185.586 401.494 185.191C401.652 182.372 402.396 179.615 403.677 177.098C405.228 174.114 406.329 170.917 406.942 167.611C408.554 158.551 407.783 149.228 404.704 140.556C401.625 131.885 396.344 124.163 389.38 118.148C386.637 115.831 384.708 112.697 383.874 109.205C383.813 108.926 383.759 108.639 383.709 108.349C383.573 107.544 383.495 106.731 383.476 105.915C383.375 102.802 382.643 99.7411 381.326 96.9184C371.152 74.5282 352.647 56.9888 329.745 48.0291C323.591 45.7883 317.991 42.2501 313.325 37.6545C308.659 33.0589 305.036 27.5135 302.701 21.3944C288.221 14.7099 273.026 9.69668 257.411 6.45166C257.615 9.04666 258.35 12.3693 260.841 14.6955C263.87 17.5127 267.293 16.7636 268.776 19.1435C269.647 20.5199 269.877 22.95 267.418 27.5701C266.679 28.972 265.519 30.1074 264.103 30.8175C261.687 32.0261 259.079 32.8024 256.396 33.1114C251.948 33.5828 247.456 32.7928 243.436 30.8318C242.17 30.2094 240.757 29.947 239.351 30.0735C237.946 30.1999 236.603 30.7102 235.468 31.5486C232.937 33.438 231.005 36.0173 229.903 38.9774C228.801 41.9375 228.577 45.1525 229.256 48.237C229.308 48.5018 229.286 48.7756 229.193 49.0289C229.1 49.2822 228.94 49.5055 228.73 49.6747C228.52 49.8439 228.268 49.9526 228.001 49.9891C227.733 50.0257 227.461 49.9887 227.213 49.8821C226.111 49.377 224.893 49.1742 223.686 49.2943C220.819 49.6097 218.213 51.8606 217.081 55.0614C216.549 56.5347 215.706 57.8762 214.61 58.9945C213.513 60.1128 212.188 60.9816 210.726 61.5417C208.542 62.3957 206.295 63.0776 204.005 63.5812C198.629 64.7604 196.213 64.2478 192.575 65.8034C189.783 66.997 186.209 69.4378 182.976 74.9684C182.495 75.8564 181.785 76.5991 180.919 77.1189C179.958 77.6621 178.869 77.9392 177.765 77.9215C176.661 77.9038 175.582 77.592 174.639 77.0183C173.696 76.4446 172.922 75.6297 172.399 74.6576C171.875 73.6855 171.621 72.5914 171.661 71.488C171.682 71.1591 171.771 70.838 171.922 70.545C172.073 70.2521 172.283 69.9936 172.539 69.7858C172.795 69.5781 173.091 69.4256 173.409 69.3379C173.726 69.2503 174.059 69.2294 174.385 69.2766C180.082 69.9934 183.223 69.635 183.808 68.2013C184.503 66.5286 181.636 63.3757 175.206 58.7424C173.364 57.4166 171.255 56.5101 169.026 56.0865C166.797 55.663 164.502 55.7327 162.302 56.2908C161.069 56.599 159.758 56.979 158.388 57.4449C148.091 60.9575 146.456 65.3016 135.091 70.2371C127.532 73.5239 125.99 72.5812 120.804 75.9504C118.623 77.3721 116.602 79.0244 114.775 80.8788C114.338 81.3293 114.023 81.8845 113.861 82.4913C113.699 83.0981 113.695 83.7364 113.85 84.345C114.005 84.9537 114.313 85.5124 114.746 85.968C115.178 86.4235 115.72 86.7605 116.32 86.947C117.257 87.213 118.093 87.755 118.718 88.5025C121.775 92.3269 116.567 100.055 118.284 101.352C119.324 102.141 122.696 100.388 131.492 91.9004C133.234 90.2183 134.56 88.1527 135.363 85.8681L136.438 82.8466C137.602 79.4798 140.018 76.6906 143.184 75.058C144.47 74.4038 145.806 73.8548 147.18 73.4164L147.266 73.3877C148.575 72.9755 149.453 74.6709 148.41 75.5598C144.524 78.868 143.152 83.1441 144.324 85.7964C144.965 87.2516 146.428 88.3448 148.317 89.0437C148.803 89.2133 149.235 89.5109 149.567 89.9051C149.899 90.2993 150.118 90.7756 150.202 91.284C150.286 91.7923 150.231 92.3139 150.044 92.7938C149.857 93.2738 149.544 93.6945 149.137 94.0115L149.087 94.051C142.969 98.7403 135.999 102.198 128.564 104.234C122.885 105.759 116.942 106.032 111.148 105.033C109.31 104.734 107.454 104.565 105.592 104.528C102.366 104.46 97.4094 104.754 83.6853 109.607C80.6028 110.682 76.8752 112.094 72.6314 113.84C69.6636 115.062 68.0543 118.184 68.5095 121.367C68.6314 122.208 68.6108 123.063 68.4486 123.897C68.2762 124.77 67.9562 125.608 67.5023 126.374C67.0648 127.098 66.4824 127.724 65.7917 128.212C65.101 128.701 64.3168 129.041 63.4884 129.212C62.6599 129.384 61.805 129.382 60.9773 129.207C60.1495 129.033 59.3667 128.689 58.6779 128.198C57.5987 127.414 56.3939 126.819 55.1151 126.438C53.3639 125.921 51.5173 125.812 49.7172 126.119C46.651 128.069 44.1458 130.784 42.4488 133.997C40.7518 137.21 39.9215 140.81 40.0397 144.442C40.0756 145.654 39.9967 146.858 39.925 148.066C39.8168 149.386 40.1373 150.706 40.839 151.829C42.4878 154.363 46.2154 155.413 49.7208 154.055C50.9323 153.593 52.7209 152.689 53.8463 150.883C55.3911 148.413 54.4126 146.317 55.7531 144.532C56.2155 143.915 57.0076 143.266 58.4593 142.89C61.1044 142.205 63.5919 140.929 65.4127 138.894C66.5883 137.582 67.6493 137.159 68.5167 137.101C70.4737 136.944 71.5096 138.578 74.4845 139.464C75.4999 139.763 76.5513 139.924 77.61 139.94C78.6646 139.983 79.6751 140.375 80.4824 141.055C81.2896 141.735 81.8477 142.664 82.0688 143.697C82.9277 147.419 84.6462 150.89 87.0867 153.829C87.3674 154.163 87.5629 154.561 87.6566 154.987C87.99 156.525 88.6781 159.155 87.6244 161.897C87.335 162.64 87.1294 163.413 87.0115 164.202L86.7211 166.191C86.7015 166.32 86.7274 166.451 86.7944 166.562C86.8615 166.673 86.9654 166.758 87.0881 166.8C87.2108 166.843 87.3445 166.841 87.4661 166.795C87.5876 166.75 87.6893 166.663 87.7534 166.55C89.8179 162.872 93.438 157.188 94.7105 160.012C94.9291 160.5 95.4739 160.371 96.051 160.148C96.2009 160.095 96.3376 160.01 96.4514 159.899C96.5652 159.788 96.6535 159.653 96.7101 159.505C96.7667 159.356 96.7902 159.197 96.7792 159.038C96.7681 158.879 96.7226 158.725 96.6459 158.586C93.0824 152.211 90.9689 145.129 90.4559 137.843C90.4108 137.256 90.5933 136.674 90.9656 136.218C91.338 135.761 91.8716 135.466 92.4559 135.392L93.7929 135.223C94.3005 135.16 94.8155 135.241 95.2793 135.457C95.7432 135.672 96.1372 136.014 96.4166 136.442C97.8777 138.659 99.0406 141.058 99.8754 143.578C101.9 149.75 100.979 153.883 101.46 161.037C101.795 165.849 102.65 170.61 104.008 175.238C104.207 175.909 104.619 176.497 105.181 176.913C105.744 177.33 106.427 177.552 107.126 177.546H107.177C107.826 177.534 108.458 177.342 109.004 176.991C109.422 176.717 109.769 176.35 110.018 175.918C110.267 175.486 110.411 175.001 110.438 174.503C110.677 171.211 110.916 167.915 111.155 164.618C111.172 164.347 111.247 164.084 111.375 163.845C111.502 163.606 111.679 163.397 111.894 163.232C112.109 163.067 112.357 162.95 112.62 162.888C112.884 162.827 113.158 162.823 113.424 162.876C121.105 164.546 128.302 161.801 131.27 156.571C132.868 153.75 132.933 150.747 132.682 148.621C132.591 147.913 132.693 147.193 132.977 146.538C133.261 145.882 133.716 145.316 134.295 144.897C137.747 142.449 141.636 140.643 144.768 141.926C148.689 143.535 148.75 148.89 152.263 149.861C154.094 150.367 156.865 149.682 161.181 145.134C161.356 144.947 161.582 144.815 161.831 144.753C162.08 144.691 162.341 144.701 162.584 144.783C162.827 144.865 163.041 145.015 163.202 145.215C163.362 145.415 163.462 145.657 163.489 145.912C163.752 148.518 164.469 151.058 165.607 153.417C167.323 156.933 169.915 159.947 173.134 162.17C173.291 162.278 173.41 162.432 173.475 162.611C173.54 162.79 173.548 162.984 173.497 163.168C173.447 163.351 173.341 163.514 173.193 163.635C173.046 163.755 172.865 163.827 172.675 163.84C168.4 164.172 164.105 164.157 159.833 163.793C152.306 163.155 148.922 161.772 144.958 161.356C139.492 160.779 131.696 161.905 121.481 169.363C120.192 170.295 119.313 171.689 119.029 173.254C118.745 174.819 119.078 176.433 119.958 177.758C120.13 178.015 120.315 178.262 120.514 178.5C121.08 179.188 121.741 179.791 122.478 180.292C124.567 181.643 127.096 182.141 129.542 181.683C136.074 180.581 142.766 180.908 149.159 182.643C149.392 182.705 149.605 182.824 149.781 182.989C149.957 183.154 150.088 183.359 150.165 183.588C150.241 183.816 150.26 184.06 150.219 184.298C150.178 184.535 150.078 184.758 149.93 184.948C147.016 188.71 144.905 193.03 143.725 197.64C143.487 198.614 142.949 199.489 142.187 200.142C141.425 200.794 140.477 201.192 139.478 201.278C130.697 201.959 121.865 201.031 113.417 198.539C112.214 198.199 111.193 197.401 110.571 196.317C108.381 192.374 104.266 189.865 99.879 189.944C97.1305 190.01 94.4943 191.048 92.438 192.873C91.2786 193.888 89.8551 194.554 88.3325 194.793C86.8099 195.032 85.2507 194.835 83.8358 194.224C79.8874 192.533 76.5224 189.72 74.1583 186.134C71.8844 182.589 70.6661 178.471 70.6457 174.26C70.6415 173.92 70.7115 173.584 70.8508 173.274C70.9901 172.965 71.1953 172.689 71.4522 172.467C73.9755 170.317 75.089 168.415 74.7927 166.761C74.0615 162.697 64.7592 160.182 46.8857 159.216Z" stroke="#1C2F5C" stroke-width="2.19715" stroke-miterlimit="10"/>
<path d="M168.474 23.8247C168.931 23.5381 169.291 23.1218 169.51 22.6291C169.728 22.1364 169.794 21.5898 169.7 21.0592C169.605 20.5287 169.355 20.0383 168.98 19.6511C168.605 19.2638 168.124 18.9973 167.596 18.8856C161.518 17.638 155.205 18.2474 149.478 20.6347C138.99 23.4519 100.972 39.427 95.0939 42.7066C94.7709 42.8849 94.5152 43.1642 94.366 43.5016C94.2167 43.8391 94.1821 44.2161 94.2675 44.5751C94.3529 44.934 94.5535 45.2552 94.8387 45.4893C95.1238 45.7234 95.4779 45.8576 95.8466 45.8715H95.8896C97.1089 45.9127 98.325 45.723 99.4739 45.3123C100.889 44.8257 102.359 44.5151 103.85 44.3876L109.377 43.8464C111.201 43.6441 113.047 43.8185 114.8 44.3589C115.996 44.7558 117.283 44.7846 118.496 44.4414C119.205 44.2414 119.872 43.9134 120.463 43.4736C123.164 41.4074 126.289 39.9655 129.614 39.2513C135.215 38.137 140.726 36.6095 146.101 34.6814C153.928 31.8789 161.43 28.2388 168.474 23.8247V23.8247Z" stroke="#1C2F5C" stroke-width="2.19715" stroke-miterlimit="10"/>
<path d="M82.1047 90.6675C82.1709 90.5017 82.1973 90.3226 82.1817 90.1447C82.1661 89.9668 82.1089 89.7951 82.0147 89.6434C81.9205 89.4917 81.792 89.3642 81.6395 89.2713C81.4871 89.1783 81.3149 89.1225 81.1369 89.1083C80.5819 89.0541 80.0218 89.088 79.4774 89.2087C78.4862 89.4295 77.5778 89.9266 76.8573 90.6424C75.1847 92.5683 73.5228 94.4955 71.8716 96.4238C71.6794 96.6402 71.5367 96.8959 71.4533 97.1731C71.37 97.4503 71.348 97.7423 71.3889 98.0289C71.4299 98.3154 71.5327 98.5896 71.6904 98.8323C71.848 99.0751 72.0566 99.2806 72.3017 99.4346L72.334 99.4525C72.8564 99.7283 73.4458 99.852 74.035 99.8095C74.6243 99.7671 75.1898 99.5602 75.6673 99.2123C77.6541 97.6137 79.3462 95.6802 80.6674 93.499C81.2135 92.5907 81.6938 91.6444 82.1047 90.6675V90.6675Z" stroke="#1C2F5C" stroke-width="2.19715" stroke-miterlimit="10"/>
<path d="M96.1442 83.255C96.1162 83.027 96.0234 82.8119 95.8768 82.635C95.7303 82.4581 95.5361 82.327 95.3172 82.2572C95.0984 82.1874 94.8641 82.1819 94.6422 82.2412C94.4203 82.3005 94.2201 82.4222 94.0653 82.5919L85.9039 91.6064L81.6207 96.3662C79.9654 99.2493 77.5969 101.658 74.7425 103.363C74.4335 103.542 74.1798 103.802 74.0096 104.116C73.8393 104.43 73.759 104.785 73.7775 105.142C73.7961 105.498 73.9127 105.843 74.1146 106.137C74.3165 106.432 74.5958 106.665 74.9217 106.811L74.9648 106.829C79.0365 108.621 83.1405 106.191 83.653 105.875C84.2283 105.714 84.7663 105.441 85.2361 105.072C85.706 104.703 86.0985 104.245 86.3914 103.725C86.7357 103.097 86.9192 102.394 86.9254 101.678C86.9537 100.668 87.1164 99.6665 87.4093 98.6996C87.8807 97.07 88.496 95.4854 89.248 93.9648C90.7434 90.9421 92.7544 88.2033 95.1907 85.8715C95.53 85.53 95.7909 85.1187 95.9556 84.6663C96.1202 84.2139 96.1845 83.7312 96.1442 83.2514V83.255Z" stroke="#1C2F5C" stroke-width="2.19715" stroke-miterlimit="10"/>
<path d="M395.154 258.963C394.571 258.625 394.039 258.205 393.577 257.715C393.056 257.154 392.377 256.764 391.63 256.597C390.1 256.292 388.311 257.109 387.018 258.773C386.824 259.029 386.684 259.321 386.605 259.633C386.526 259.944 386.51 260.268 386.557 260.585C386.604 260.903 386.714 261.208 386.881 261.483C387.047 261.757 387.267 261.996 387.527 262.185C388.025 262.543 388.441 262.873 388.774 263.145C390.161 264.267 390.63 264.844 391.663 265.296C392.278 265.565 392.935 265.728 393.605 265.776C393.932 265.799 394.239 265.944 394.465 266.181C394.691 266.418 394.82 266.732 394.828 267.059C394.92 271.309 396.483 275.396 399.251 278.622C399.649 279.178 400.198 279.609 400.833 279.863C401.468 280.117 402.163 280.184 402.835 280.056C403.378 279.929 403.885 279.681 404.32 279.331C404.754 278.981 405.104 278.538 405.344 278.034C405.98 275.051 405.98 271.967 405.344 268.984C405.312 267.55 405.021 265.461 403.552 263.819C402.695 262.859 401.86 262.529 399.38 261.246C398.319 260.697 396.878 259.934 395.154 258.963Z" stroke="#1C2F5C" stroke-width="2.19715" stroke-miterlimit="10"/>
<path d="M213.998 140.879C213.998 142.585 214.629 142.456 214.464 143.603C214.334 144.46 213.943 145.256 213.346 145.885C212.749 146.513 211.973 146.942 211.124 147.116C209.668 147.431 208.059 148.087 207.339 149.449C206.131 151.736 207.486 155.901 211.575 158.7C212.336 159.242 212.954 159.961 213.376 160.794C213.798 161.628 214.012 162.551 213.998 163.485V164.5C214.034 166.886 214.98 169.168 216.643 170.88C217.358 171.637 217.918 172.527 218.292 173.5C218.777 174.767 218.936 176.137 218.755 177.482C218.655 178.216 218.323 178.9 217.807 179.433C217.291 179.965 216.618 180.319 215.887 180.442C212.593 181.045 209.193 180.615 206.152 179.213C205.17 178.747 204.24 178.177 203.378 177.514C203.095 177.299 202.866 177.021 202.708 176.703C202.55 176.385 202.468 176.034 202.468 175.679C202.468 175.323 202.55 174.973 202.708 174.655C202.866 174.336 203.095 174.059 203.378 173.844C204.518 172.998 205.327 171.781 205.665 170.403C205.751 170.03 205.799 169.649 205.808 169.267C205.817 168.517 205.634 167.777 205.275 167.118C204.917 166.459 204.396 165.903 203.762 165.503C200.771 163.569 198.314 160.914 196.618 157.783C195.72 156.113 195.057 154.328 194.647 152.478C194.474 151.696 194.503 150.884 194.73 150.116C194.958 149.349 195.377 148.652 195.948 148.091C198.895 145.172 202.459 142.952 206.378 141.593C209.281 140.6 213.991 138.675 213.991 139.965L213.998 140.879Z" stroke="#1C2F5C" stroke-width="2.19715" stroke-miterlimit="10"/>
<path d="M422.939 221.357C422.636 221.13 422.277 220.989 421.901 220.948C421.524 220.906 421.144 220.967 420.799 221.123C420.453 221.279 420.156 221.524 419.938 221.834C419.72 222.144 419.589 222.506 419.559 222.884C418.744 230.949 416.721 238.846 413.559 246.31C411.78 250.399 411.138 254.891 411.699 259.314C411.957 261.204 412.374 262.203 412.95 262.311C413.793 262.473 414.98 260.707 416.509 257.013L420.789 249.357C422.584 246.771 423.653 243.751 423.885 240.611C423.957 239.644 424.022 238.664 424.079 237.672C424.122 236.934 424.161 236.202 424.197 235.475C424.299 232.703 424.574 229.94 425.022 227.203C425.401 225.052 426.118 222.113 425.344 220.751C424.925 219.998 423.491 221.78 422.939 221.357Z" stroke="#1C2F5C" stroke-width="2.16131" stroke-miterlimit="10"/>
<path d="M204.751 368.978C203.255 369.484 201.814 370.138 200.449 370.931C198.159 372.233 197.697 372.903 194.195 375.62C189.718 379.1 188.267 379.702 188.335 381.093C188.417 382.803 190.349 383.175 190.288 385C190.241 386.433 189.037 386.713 188.335 388.516C187.661 390.247 187.772 392.545 188.725 393.985C190.636 396.853 196.514 397.193 199.665 394.767C202.686 392.444 200.74 389.502 204.356 384.609C204.539 384.362 204.553 384.355 210.607 378.354C213.532 375.458 214.994 373.978 214.908 372.494C214.787 370.451 212.7 368.82 211.002 368.193C209.12 367.505 207.396 368.107 204.751 368.978Z" stroke="#1C2F5C" stroke-width="1.87815" stroke-miterlimit="10"/>
<path d="M158.023 82.1693L160.31 72.5742" stroke="#EE7D50" stroke-width="1.36919" stroke-miterlimit="10"/>
<path d="M160.765 86.7428C170.437 83.6563 180.933 84.4757 190.009 89.026" stroke="#EE7D50" stroke-width="1.36919" stroke-miterlimit="10"/>
<path d="M115.983 112.786L151.625 91.7678" stroke="#EE7D50" stroke-width="1.36919" stroke-miterlimit="10"/>
<path d="M82.1731 104.105C91.3409 95.6062 102.622 89.7238 114.838 87.0714C127.054 84.4191 139.759 85.094 151.625 89.0258" stroke="#EE7D50" stroke-width="1.36919" stroke-miterlimit="10"/>
<path d="M77.6101 121.926C82.1299 115.908 94.5314 101.087 116.449 93.6102C129.232 89.2725 142.891 88.174 156.202 90.413C156.182 95.6639 154.931 100.837 152.549 105.516C150.167 110.196 146.72 114.251 142.485 117.356" stroke="#EE7D50" stroke-width="1.36919" stroke-miterlimit="10"/>
<path d="M52.4702 147.973C81.2928 120.944 114.925 99.5557 151.625 84.9147C149.395 83.428 146.922 82.3446 144.317 81.714C140.238 80.7547 135.976 80.9132 131.98 82.1727" stroke="#EE7D50" stroke-width="1.36919" stroke-miterlimit="10"/>
<path d="M43.7891 164.421C76.8542 132.242 114.037 104.585 154.367 82.1729" stroke="#EE7D50" stroke-width="1.36919" stroke-miterlimit="10"/>
<path d="M67.0938 191.382C87.8837 150.8 118.518 116.08 156.195 90.3987C138.677 101.721 125.978 119.136 120.553 139.277" stroke="#EE7D50" stroke-width="1.36919" stroke-miterlimit="10"/>
<path d="M165.335 225.196C171.317 190.324 170.442 162.428 168.532 143.403C165.166 109.865 156.704 85.2553 158.023 84.9148C158.74 84.7248 162.539 91.922 160.31 98.1766C159.349 100.861 157.489 102.779 155.74 104.116" stroke="#EE7D50" stroke-width="1.36919" stroke-miterlimit="10"/>
<path d="M329.379 250.328C288.414 181.326 228.234 125.753 156.195 90.3987C157.039 117.236 156.123 144.101 153.453 170.819C150.776 197.583 146.346 224.144 140.191 250.328" stroke="#EE7D50" stroke-width="1.36919" stroke-miterlimit="10"/>
<path d="M382.383 179.959C374.039 165.166 346.182 120.202 288.253 94.9651C228.038 68.7463 174.116 80.7069 158.023 84.9292" stroke="#EE7D50" stroke-width="1.36919" stroke-miterlimit="10"/>
<path d="M386.953 211.486C364.15 180.697 336.817 143.098 281.4 114.159C257.963 101.922 204.722 74.9003 154.826 87.1979C147.356 89.0402 131.922 93.0295 116.442 105.478C97.3523 120.822 89.5995 139.668 86.7393 147.973" stroke="#EE7D50" stroke-width="1.36919" stroke-miterlimit="10"/>
<path d="M416.197 245.759C415.523 238.422 405.086 143.156 318.411 96.7931C241.26 55.5239 165.865 86.259 156.195 90.3988" stroke="#EE7D50" stroke-width="1.36919" stroke-miterlimit="10"/>
<path d="M380.555 191.84C368.218 170.464 326.791 117.926 262.207 94.965C207.995 75.6924 156.091 85.3986 155.969 87.4381C155.872 89.0115 187.059 86.6352 220.626 104.574C234.891 112.213 247.785 122.172 258.78 134.044" stroke="#EE7D50" stroke-width="1.36919" stroke-miterlimit="10"/>
<path d="M155.965 96.3341C160.887 96.3341 164.876 92.3448 164.876 87.4237C164.876 82.5025 160.887 78.5132 155.965 78.5132C151.044 78.5132 147.055 82.5025 147.055 87.4237C147.055 92.3448 151.044 96.3341 155.965 96.3341Z" fill="#F0502C"/>
<path d="M120.783 143.883C123.194 143.883 125.148 141.928 125.148 139.517C125.148 137.106 123.194 135.152 120.783 135.152C118.372 135.152 116.417 137.106 116.417 139.517C116.417 141.928 118.372 143.883 120.783 143.883Z" fill="#EE7D50"/>
<path d="M142.715 121.95C145.126 121.95 147.08 119.996 147.08 117.585C147.08 115.174 145.126 113.219 142.715 113.219C140.303 113.219 138.349 115.174 138.349 117.585C138.349 119.996 140.303 121.95 142.715 121.95Z" fill="#EE7D50"/>
<path d="M190.238 93.617C192.649 93.617 194.604 91.6624 194.604 89.2514C194.604 86.8403 192.649 84.8857 190.238 84.8857C187.827 84.8857 185.873 86.8403 185.873 89.2514C185.873 91.6624 187.827 93.617 190.238 93.617Z" fill="#EE7D50"/>
<path d="M77.8288 126.517C80.2398 126.517 82.1944 124.562 82.1944 122.151C82.1944 119.74 80.2398 117.786 77.8288 117.786C75.4177 117.786 73.4631 119.74 73.4631 122.151C73.4631 124.562 75.4177 126.517 77.8288 126.517Z" fill="#EE7D50"/>
<path d="M382.154 184.55C384.565 184.55 386.519 182.595 386.519 180.184C386.519 177.773 384.565 175.818 382.154 175.818C379.743 175.818 377.788 177.773 377.788 180.184C377.788 182.595 379.743 184.55 382.154 184.55Z" fill="#EE7D50"/>
<path d="M52.6959 152.564C55.107 152.564 57.0616 150.609 57.0616 148.198C57.0616 145.787 55.107 143.833 52.6959 143.833C50.2849 143.833 48.3303 145.787 48.3303 148.198C48.3303 150.609 50.2849 152.564 52.6959 152.564Z" fill="#EE7D50"/>
<path d="M415.968 250.35C418.379 250.35 420.333 248.395 420.333 245.984C420.333 243.573 418.379 241.618 415.968 241.618C413.557 241.618 411.602 243.573 411.602 245.984C411.602 248.395 413.557 250.35 415.968 250.35Z" fill="#EE7D50"/>
<path d="M165.105 229.787C167.516 229.787 169.471 227.832 169.471 225.421C169.471 223.01 167.516 221.055 165.105 221.055C162.694 221.055 160.74 223.01 160.74 225.421C160.74 227.832 162.694 229.787 165.105 229.787Z" fill="#EE7D50"/>
<path d="M139.973 254.92C142.384 254.92 144.338 252.965 144.338 250.554C144.338 248.143 142.384 246.188 139.973 246.188C137.562 246.188 135.607 248.143 135.607 250.554C135.607 252.965 137.562 254.92 139.973 254.92Z" fill="#EE7D50"/>
<path d="M258.78 138.399C261.191 138.399 263.146 136.444 263.146 134.033C263.146 131.622 261.191 129.668 258.78 129.668C256.369 129.668 254.415 131.622 254.415 134.033C254.415 136.444 256.369 138.399 258.78 138.399Z" fill="#EE7D50"/>
<path d="M86.9687 152.564C89.3797 152.564 91.3343 150.609 91.3343 148.198C91.3343 145.787 89.3797 143.833 86.9687 143.833C84.5576 143.833 82.603 145.787 82.603 148.198C82.603 150.609 84.5576 152.564 86.9687 152.564Z" fill="#EE7D50"/>
<path d="M44.0148 169.015C46.4259 169.015 48.3804 167.061 48.3804 164.65C48.3804 162.239 46.4259 160.284 44.0148 160.284C41.6037 160.284 39.6492 162.239 39.6492 164.65C39.6492 167.061 41.6037 169.015 44.0148 169.015Z" fill="#EE7D50"/>
<path d="M380.326 195.973C382.737 195.973 384.691 194.018 384.691 191.607C384.691 189.196 382.737 187.242 380.326 187.242C377.915 187.242 375.96 189.196 375.96 191.607C375.96 194.018 377.915 195.973 380.326 195.973Z" fill="#EE7D50"/>
<path d="M160.536 77.1688C162.947 77.1688 164.901 75.2142 164.901 72.8031C164.901 70.3921 162.947 68.4375 160.536 68.4375C158.124 68.4375 156.17 70.3921 156.17 72.8031C156.17 75.2142 158.124 77.1688 160.536 77.1688Z" fill="#EE7D50"/>
<path d="M155.966 108.696C158.377 108.696 160.331 106.742 160.331 104.33C160.331 101.919 158.377 99.9648 155.966 99.9648C153.555 99.9648 151.6 101.919 151.6 104.33C151.6 106.742 153.555 108.696 155.966 108.696Z" fill="#EE7D50"/>
<path d="M82.3986 108.696C84.8097 108.696 86.7642 106.742 86.7642 104.33C86.7642 101.919 84.8097 99.9648 82.3986 99.9648C79.9875 99.9648 78.033 101.919 78.033 104.33C78.033 106.742 79.9875 108.696 82.3986 108.696Z" fill="#EE7D50"/>
<path d="M132.205 86.764C134.617 86.764 136.571 84.8094 136.571 82.3983C136.571 79.9873 134.617 78.0327 132.205 78.0327C129.794 78.0327 127.84 79.9873 127.84 82.3983C127.84 84.8094 129.794 86.764 132.205 86.764Z" fill="#EE7D50"/>
<path d="M67.3197 195.973C69.7308 195.973 71.6854 194.018 71.6854 191.607C71.6854 189.196 69.7308 187.242 67.3197 187.242C64.9087 187.242 62.9541 189.196 62.9541 191.607C62.9541 194.018 64.9087 195.973 67.3197 195.973Z" fill="#EE7D50"/>
<path d="M329.15 254.92C331.561 254.92 333.515 252.965 333.515 250.554C333.515 248.143 331.561 246.188 329.15 246.188C326.739 246.188 324.784 248.143 324.784 250.554C324.784 252.965 326.739 254.92 329.15 254.92Z" fill="#EE7D50"/>
<path d="M386.724 215.622C389.135 215.622 391.089 213.667 391.089 211.256C391.089 208.845 389.135 206.891 386.724 206.891C384.312 206.891 382.358 208.845 382.358 211.256C382.358 213.667 384.312 215.622 386.724 215.622Z" fill="#EE7D50"/>
<path d="M100.678 126.517C103.089 126.517 105.044 124.562 105.044 122.151C105.044 119.74 103.089 117.786 100.678 117.786C98.2673 117.786 96.3127 119.74 96.3127 122.151C96.3127 124.562 98.2673 126.517 100.678 126.517Z" fill="#EE7D50"/>
<path d="M116.213 117.381C118.624 117.381 120.578 115.426 120.578 113.015C120.578 110.604 118.624 108.649 116.213 108.649C113.801 108.649 111.847 110.604 111.847 113.015C111.847 115.426 113.801 117.381 116.213 117.381Z" fill="#EE7D50"/>
<path d="M26.1937 198.926C27.712 198.926 28.9428 197.695 28.9428 196.177C28.9428 194.659 27.712 193.428 26.1937 193.428C24.6754 193.428 23.4446 194.659 23.4446 196.177C23.4446 197.695 24.6754 198.926 26.1937 198.926Z" fill="#6DA99E"/>
<path d="M107.987 145.008C109.505 145.008 110.736 143.777 110.736 142.259C110.736 140.741 109.505 139.51 107.987 139.51C106.468 139.51 105.238 140.741 105.238 142.259C105.238 143.777 106.468 145.008 107.987 145.008Z" fill="#6DA99E"/>
<path d="M105.245 169.227C106.763 169.227 107.994 167.996 107.994 166.478C107.994 164.96 106.763 163.729 105.245 163.729C103.726 163.729 102.496 164.96 102.496 166.478C102.496 167.996 103.726 169.227 105.245 169.227Z" fill="#6DA99E"/>
<path d="M299.906 227.715C301.424 227.715 302.655 226.484 302.655 224.966C302.655 223.448 301.424 222.217 299.906 222.217C298.387 222.217 297.156 223.448 297.156 224.966C297.156 226.484 298.387 227.715 299.906 227.715Z" fill="#6DA99E"/>
<path d="M224.966 160.087C226.484 160.087 227.715 158.857 227.715 157.338C227.715 155.82 226.484 154.589 224.966 154.589C223.448 154.589 222.217 155.82 222.217 157.338C222.217 158.857 223.448 160.087 224.966 160.087Z" fill="#6DA99E"/>
<path d="M293.049 107.08C294.567 107.08 295.798 105.849 295.798 104.331C295.798 102.812 294.567 101.582 293.049 101.582C291.531 101.582 290.3 102.812 290.3 104.331C290.3 105.849 291.531 107.08 293.049 107.08Z" fill="#6DA99E"/>
<path d="M200.292 110.28C201.81 110.28 203.041 109.05 203.041 107.531C203.041 106.013 201.81 104.782 200.292 104.782C198.774 104.782 197.543 106.013 197.543 107.531C197.543 109.05 198.774 110.28 200.292 110.28Z" fill="#6DA99E"/>
<path d="M169.675 120.334C171.194 120.334 172.425 119.104 172.425 117.585C172.425 116.067 171.194 114.836 169.675 114.836C168.157 114.836 166.926 116.067 166.926 117.585C166.926 119.104 168.157 120.334 169.675 120.334Z" fill="#6DA99E"/>
<path d="M148.657 75.5527C150.176 75.5527 151.406 74.3219 151.406 72.8036C151.406 71.2853 150.176 70.0544 148.657 70.0544C147.139 70.0544 145.908 71.2853 145.908 72.8036C145.908 74.3219 147.139 75.5527 148.657 75.5527Z" fill="#6DA99E"/>
<path d="M96.1085 115.764C97.6268 115.764 98.8576 114.534 98.8576 113.015C98.8576 111.497 97.6268 110.266 96.1085 110.266C94.5902 110.266 93.3594 111.497 93.3594 113.015C93.3594 114.534 94.5902 115.764 96.1085 115.764Z" fill="#6DA99E"/>
<path d="M48.1295 137.696C49.6478 137.696 50.8786 136.466 50.8786 134.947C50.8786 133.429 49.6478 132.198 48.1295 132.198C46.6112 132.198 45.3804 133.429 45.3804 134.947C45.3804 136.466 46.6112 137.696 48.1295 137.696Z" fill="#6DA99E"/>
<path d="M336.462 227.715C337.98 227.715 339.211 226.484 339.211 224.966C339.211 223.448 337.98 222.217 336.462 222.217C334.943 222.217 333.712 223.448 333.712 224.966C333.712 226.484 334.943 227.715 336.462 227.715Z" fill="#6DA99E"/>
<path d="M391.749 198.926C393.267 198.926 394.498 197.695 394.498 196.177C394.498 194.659 393.267 193.428 391.749 193.428C390.231 193.428 389 194.659 389 196.177C389 197.695 390.231 198.926 391.749 198.926Z" fill="#6DA99E"/>
<path d="M280.257 157.345C281.775 157.345 283.006 156.115 283.006 154.596C283.006 153.078 281.775 151.847 280.257 151.847C278.739 151.847 277.508 153.078 277.508 154.596C277.508 156.115 278.739 157.345 280.257 157.345Z" fill="#6DA99E"/>
<path d="M197.55 139.525C199.068 139.525 200.299 138.294 200.299 136.775C200.299 135.257 199.068 134.026 197.55 134.026C196.032 134.026 194.801 135.257 194.801 136.775C194.801 138.294 196.032 139.525 197.55 139.525Z" fill="#6DA99E"/>
<path d="M254.21 218.575C255.728 218.575 256.959 217.344 256.959 215.826C256.959 214.308 255.728 213.077 254.21 213.077C252.692 213.077 251.461 214.308 251.461 215.826C251.461 217.344 252.692 218.575 254.21 218.575Z" fill="#6DA99E"/>
<path d="M76.9147 97.4846C78.433 97.4846 79.6638 96.2537 79.6638 94.7354C79.6638 93.2171 78.433 91.9863 76.9147 91.9863C75.3964 91.9863 74.1655 93.2171 74.1655 94.7354C74.1655 96.2537 75.3964 97.4846 76.9147 97.4846Z" fill="#6DA99E"/>
<path d="M151.399 136.782C152.918 136.782 154.148 135.552 154.148 134.033C154.148 132.515 152.918 131.284 151.399 131.284C149.881 131.284 148.65 132.515 148.65 134.033C148.65 135.552 149.881 136.782 151.399 136.782Z" fill="#6DA99E"/>
<path d="M333.72 214.005C335.238 214.005 336.469 212.775 336.469 211.256C336.469 209.738 335.238 208.507 333.72 208.507C332.201 208.507 330.97 209.738 330.97 211.256C330.97 212.775 332.201 214.005 333.72 214.005Z" fill="#6DA99E"/>
<path d="M420.537 235.482C422.056 235.482 423.287 234.251 423.287 232.733C423.287 231.215 422.056 229.984 420.537 229.984C419.019 229.984 417.788 231.215 417.788 232.733C417.788 234.251 419.019 235.482 420.537 235.482Z" fill="#6DA99E"/>
<path d="M94.2804 221.317C95.7987 221.317 97.0295 220.086 97.0295 218.568C97.0295 217.05 95.7987 215.819 94.2804 215.819C92.7621 215.819 91.5312 217.05 91.5312 218.568C91.5312 220.086 92.7621 221.317 94.2804 221.317Z" fill="#6DA99E"/>
<path d="M134.033 174.707C135.552 174.707 136.782 173.477 136.782 171.958C136.782 170.44 135.552 169.209 134.033 169.209C132.515 169.209 131.284 170.44 131.284 171.958C131.284 173.477 132.515 174.707 134.033 174.707Z" fill="#6DA99E"/>
<path d="M182.926 180.191C184.445 180.191 185.676 178.961 185.676 177.442C185.676 175.924 184.445 174.693 182.926 174.693C181.408 174.693 180.177 175.924 180.177 177.442C180.177 178.961 181.408 180.191 182.926 180.191Z" fill="#6DA99E"/>
<path d="M142.714 387.645C144.233 387.645 145.464 386.414 145.464 384.896C145.464 383.377 144.233 382.146 142.714 382.146C141.196 382.146 139.965 383.377 139.965 384.896C139.965 386.414 141.196 387.645 142.714 387.645Z" fill="#6DA99E"/>
<path d="M60.0077 137.696C61.526 137.696 62.7568 136.466 62.7568 134.947C62.7568 133.429 61.526 132.198 60.0077 132.198C58.4894 132.198 57.2585 133.429 57.2585 134.947C57.2585 136.466 58.4894 137.696 60.0077 137.696Z" fill="#6DA99E"/>
<path d="M110.273 124.901C111.792 124.901 113.022 123.67 113.022 122.151C113.022 120.633 111.792 119.402 110.273 119.402C108.755 119.402 107.524 120.633 107.524 122.151C107.524 123.67 108.755 124.901 110.273 124.901Z" fill="#6DA99E"/>
<path d="M233.192 100.227C234.71 100.227 235.941 98.9957 235.941 97.4774C235.941 95.9591 234.71 94.7283 233.192 94.7283C231.674 94.7283 230.443 95.9591 230.443 97.4774C230.443 98.9957 231.674 100.227 233.192 100.227Z" fill="#6DA99E"/>
<path d="M400.889 271.124C402.407 271.124 403.638 269.893 403.638 268.375C403.638 266.857 402.407 265.626 400.889 265.626C399.37 265.626 398.139 266.857 398.139 268.375C398.139 269.893 399.37 271.124 400.889 271.124Z" fill="#6DA99E"/>
<path d="M400.889 253.303C402.407 253.303 403.638 252.073 403.638 250.554C403.638 249.036 402.407 247.805 400.889 247.805C399.37 247.805 398.139 249.036 398.139 250.554C398.139 252.073 399.37 253.303 400.889 253.303Z" fill="#6DA99E"/>
<path d="M89.7103 134.041C91.2286 134.041 92.4594 132.81 92.4594 131.292C92.4594 129.773 91.2286 128.542 89.7103 128.542C88.192 128.542 86.9612 129.773 86.9612 131.292C86.9612 132.81 88.192 134.041 89.7103 134.041Z" fill="#6DA99E"/>
</svg>
