<svg width="762" height="379" viewBox="0 0 762 379" fill="none" xmlns="http://www.w3.org/2000/svg">
<g clip-path="url(#clip0)">
<path d="M294.499 223.634C329.574 223.634 358.008 210.635 358.008 194.601C358.008 178.566 329.574 165.568 294.499 165.568C259.423 165.568 230.989 178.566 230.989 194.601C230.989 210.635 259.423 223.634 294.499 223.634Z" fill="#F0512F" stroke="#262262" stroke-width="0.5" stroke-miterlimit="10"/>
<path d="M45.4463 140.716C70.5031 140.716 90.8157 131.426 90.8157 119.967C90.8157 108.508 70.5031 99.2181 45.4463 99.2181C20.3894 99.2181 0.0767822 108.508 0.0767822 119.967C0.0767822 131.426 20.3894 140.716 45.4463 140.716Z" fill="#F0512F" stroke="#262262" stroke-width="0.5" stroke-miterlimit="10"/>
<path d="M463.858 270.156C463.589 270.731 463.321 271.344 463.014 271.996C457.376 283.387 441.998 304.596 434.174 307.818C424.203 304.596 417.184 299.61 415.344 293.819C416.916 293.819 434.673 284.96 442.113 271.843" stroke="#262262" stroke-width="0.5" stroke-miterlimit="10"/>
<path d="M442.074 271.805C434.634 284.921 416.878 293.781 415.305 293.781C414.998 292.822 414.845 291.825 414.845 290.789C414.845 282.313 426.044 274.988 442.074 271.805Z" fill="#F0512F" stroke="#262262" stroke-width="0.5" stroke-miterlimit="10"/>
<path d="M485.219 273.531C491.432 283.08 501.519 292.093 505.469 292.093C504.663 298.268 497.952 303.676 487.904 307.242C484.452 302.678 464.855 284.154 463.014 271.996C463.321 271.344 463.628 270.731 463.858 270.156" stroke="#262262" stroke-width="0.5" stroke-miterlimit="10"/>
<path d="M463.014 271.958C464.855 284.116 484.452 302.64 487.904 307.204C480.234 309.927 470.646 311.538 460.214 311.538C450.512 311.538 441.537 310.157 434.136 307.779C441.998 304.558 457.376 283.349 463.014 271.958Z" fill="#F0512F" stroke="#262262" stroke-width="0.5" stroke-miterlimit="10"/>
<path d="M505.546 290.789C505.546 291.211 505.507 291.633 505.469 292.055C501.519 292.055 491.432 283.042 485.219 273.492C485.756 273.645 486.293 273.837 486.792 273.991C493.925 276.369 499.486 279.667 502.669 283.502C504.548 285.803 505.546 288.258 505.546 290.789Z" fill="#F0512F" stroke="#262262" stroke-width="0.5" stroke-miterlimit="10"/>
<path d="M134.306 378.885C185.627 378.885 227.231 359.859 227.231 336.39C227.231 312.921 185.627 293.896 134.306 293.896C82.9849 293.896 41.381 312.921 41.381 336.39C41.381 359.859 82.9849 378.885 134.306 378.885Z" fill="#F0512F" stroke="#262262" stroke-width="0.5" stroke-miterlimit="10"/>
<path d="M497.262 38.6594C510.33 38.6594 520.924 33.8172 520.924 27.844C520.924 21.8708 510.33 17.0286 497.262 17.0286C484.193 17.0286 473.599 21.8708 473.599 27.844C473.599 33.8172 484.193 38.6594 497.262 38.6594Z" fill="#F0512F" stroke="#262262" stroke-width="0.5" stroke-miterlimit="10"/>
<path d="M540.407 98.4893C559.512 98.4893 575 91.4149 575 82.6881C575 73.9613 559.512 66.8868 540.407 66.8868C521.302 66.8868 505.814 73.9613 505.814 82.6881C505.814 91.4149 521.302 98.4893 540.407 98.4893Z" fill="#F0512F" stroke="#262262" stroke-width="0.5" stroke-miterlimit="10"/>
<path d="M127.326 56.2248C135.205 56.2248 141.593 53.3057 141.593 49.7049C141.593 46.104 135.205 43.1849 127.326 43.1849C119.447 43.1849 113.059 46.104 113.059 49.7049C113.059 53.3057 119.447 56.2248 127.326 56.2248Z" fill="#F0512F" stroke="#262262" stroke-width="0.5" stroke-miterlimit="10"/>
<path d="M223.089 176.498C235.628 176.498 245.793 166.333 245.793 153.794C245.793 141.254 235.628 131.089 223.089 131.089C210.55 131.089 200.385 141.254 200.385 153.794C200.385 166.333 210.55 176.498 223.089 176.498Z" fill="#F0512F" stroke="#262262" stroke-width="0.5" stroke-miterlimit="10"/>
<path d="M148.227 258.688H284.528C292.198 258.688 298.449 253.012 298.449 246.032V227.853" stroke="#262262" stroke-width="0.5" stroke-miterlimit="10"/>
<path d="M245.179 85.7563C245.179 82.8415 247.404 80.7705 250.433 80.7705C252.121 80.7705 253.501 81.3841 254.422 82.4964L253.003 83.8387C252.351 83.11 251.546 82.6881 250.587 82.6881C248.784 82.6881 247.48 83.9538 247.48 85.7947C247.48 87.6356 248.746 88.9012 250.587 88.9012C251.546 88.9012 252.351 88.5177 253.003 87.7507L254.422 89.093C253.501 90.2052 252.121 90.8189 250.433 90.8189C247.404 90.7422 245.179 88.6711 245.179 85.7563Z" fill="#1D2D5C"/>
<path d="M263.358 88.7861V90.5887H255.879V80.9238H263.166V82.7264H258.104V84.8358H262.591V86.5617H258.104V88.7861H263.358Z" fill="#1D2D5C"/>
<path d="M273.981 80.9238V90.5887H272.14L267.346 84.7207V90.5887H265.122V80.9238H266.963L271.757 86.7918V80.9238H273.981Z" fill="#1D2D5C"/>
<path d="M278.276 82.7648H275.17V80.9238H283.569V82.7648H280.462V90.627H278.238V82.7648H278.276Z" fill="#1D2D5C"/>
<path d="M290.932 90.5887L289.053 87.904H288.938H286.982V90.5887H284.758V80.9238H288.938C291.508 80.9238 293.118 82.2662 293.118 84.4139C293.118 85.8713 292.39 86.9452 291.124 87.4821L293.272 90.5887H290.932ZM288.861 82.7648H287.059V86.1398H288.861C290.242 86.1398 290.932 85.4878 290.932 84.4523C290.894 83.3784 290.204 82.7648 288.861 82.7648Z" fill="#1D2D5C"/>
<path d="M301.287 88.5176H296.8L295.956 90.5887H293.655L297.951 80.9238H300.175L304.509 90.5887H302.169L301.287 88.5176ZM300.558 86.8301L299.024 83.1099L297.49 86.8301H300.558Z" fill="#1D2D5C"/>
<path d="M305.467 80.9238H307.692V88.7861H312.562V90.627H305.506V80.9238H305.467Z" fill="#1D2D5C"/>
<path d="M326.56 80.9238V90.5887H324.336V86.6384H319.964V90.5887H317.74V80.9238H319.964V84.7207H324.336V80.9238H326.56Z" fill="#1D2D5C"/>
<path d="M328.785 86.3315V80.9238H331.009V86.2548C331.009 88.0958 331.815 88.8628 333.157 88.8628C334.538 88.8628 335.305 88.0958 335.305 86.2548V80.9238H337.529V86.3315C337.529 89.1696 335.918 90.7421 333.157 90.7421C330.396 90.7421 328.785 89.1696 328.785 86.3315Z" fill="#1D2D5C"/>
<path d="M348.574 87.9424C348.574 89.6299 347.232 90.5887 344.701 90.5887H339.715V80.9238H344.432C346.848 80.9238 348.075 81.921 348.075 83.4551C348.075 84.4139 347.577 85.181 346.81 85.5645C347.884 85.9097 348.574 86.7534 348.574 87.9424ZM341.939 82.6113V84.8741H344.164C345.238 84.8741 345.851 84.4906 345.851 83.7236C345.851 82.9565 345.276 82.573 344.164 82.573H341.939V82.6113ZM346.311 87.7122C346.311 86.9068 345.698 86.5233 344.547 86.5233H341.939V88.9012H344.547C345.698 88.9012 346.311 88.556 346.311 87.7122Z" fill="#1D2D5C"/>
<path d="M299.83 70.6455C299.83 71.9111 298.794 72.9466 297.529 72.9466H288.248C286.982 72.9466 285.947 71.9111 285.947 70.6455V59.1013C285.947 57.8357 286.982 56.8002 288.248 56.8002H297.49C298.756 56.8002 299.791 57.8357 299.791 59.1013V61.3641H297.222V59.1013H288.669V70.6455H297.222V68.306H299.868L299.83 70.6455Z" fill="#1C2F5C"/>
<path d="M325.563 72.9466H322.917V56.8002H325.563V72.9466Z" fill="#1C2F5C"/>
<path d="M343.013 72.9466H333.809C332.543 72.9466 331.508 71.9111 331.508 70.6455V59.1013C331.508 57.8357 332.543 56.8002 333.809 56.8002H343.013C344.279 56.8002 345.314 57.8357 345.314 59.1013V70.6455C345.314 71.9111 344.279 72.9466 343.013 72.9466ZM342.668 70.6838V59.1397H334.116V70.6838H342.668Z" fill="#1C2F5C"/>
<path d="M237.509 56.8005V70.6842H231.258V68.3447H228.612V70.6458C228.65 71.9115 229.647 72.9086 230.913 72.947H237.816C238.468 72.947 239.043 72.6402 239.465 72.1416C239.849 71.758 240.079 71.2211 240.117 70.6458V56.8005H237.509Z" fill="#1C2F5C"/>
<path d="M257.49 56.8002V70.6071H248.938V56.8002H246.292V70.6455C246.292 71.9111 247.327 72.9466 248.593 72.9466H260.098V56.8002H257.49Z" fill="#1C2F5C"/>
<path d="M317.126 56.8386H304.969H304.662V59.1781H304.969H309.724V72.9851H312.371V59.1781H317.126H317.433V56.8386H317.126Z" fill="#1C2F5C"/>
<path d="M277.394 56.8002V68.8045V70.4537H277.088L270.875 56.7618H268.842H266.234V62.975V72.9466H268.842V62.975V60.9039V59.2548H269.187L275.438 72.9466H277.394H280.041V56.8002H277.394Z" fill="#1C2F5C"/>
<path d="M362.496 56.8002V68.8045V70.4537H362.15L355.938 56.7618H353.943H351.297V62.975V72.9466H353.943V62.975V60.9039V59.2548H354.25L360.501 72.9466H362.496H365.104V56.8002H362.496Z" fill="#1C2F5C"/>
<path d="M352.908 156.057H327.519C321.46 156.057 316.474 151.109 316.474 145.011C316.474 138.951 321.421 133.965 327.519 133.965H352.908C358.967 133.965 363.953 138.913 363.953 145.011C363.953 151.109 358.967 156.057 352.908 156.057Z" fill="#F0512F" stroke="#262262" stroke-width="0.5" stroke-miterlimit="10"/>
<path d="M330.434 148.041C332.086 148.041 333.425 146.702 333.425 145.049C333.425 143.397 332.086 142.058 330.434 142.058C328.782 142.058 327.443 143.397 327.443 145.049C327.443 146.702 328.782 148.041 330.434 148.041Z" fill="#F0512F" stroke="#262262" stroke-width="0.5" stroke-miterlimit="10"/>
<path d="M340.214 148.041C341.866 148.041 343.205 146.702 343.205 145.049C343.205 143.397 341.866 142.058 340.214 142.058C338.562 142.058 337.222 143.397 337.222 145.049C337.222 146.702 338.562 148.041 340.214 148.041Z" fill="#F0512F" stroke="#262262" stroke-width="0.5" stroke-miterlimit="10"/>
<path d="M350.032 148.041C351.684 148.041 353.023 146.702 353.023 145.049C353.023 143.397 351.684 142.058 350.032 142.058C348.379 142.058 347.04 143.397 347.04 145.049C347.04 146.702 348.379 148.041 350.032 148.041Z" fill="#F0512F" stroke="#262262" stroke-width="0.5" stroke-miterlimit="10"/>
<path d="M332.965 155.289L316.512 195.675L270.99 138.76L287.327 98.6811C288.017 96.9936 290.28 96.6484 291.431 98.0675L332.045 148.846C333.464 150.687 333.847 153.142 332.965 155.289Z" fill="#F5D2A3" stroke="#262262" stroke-width="0.5" stroke-miterlimit="10"/>
<path d="M316.512 195.713L270.376 201.389C269.072 201.543 267.806 201.044 267.001 200.009L224.891 147.389C224.393 146.775 224.316 146.162 224.47 145.625C224.661 144.934 225.313 144.397 226.157 144.321L270.99 138.798L316.512 195.713Z" fill="#F5D2A3" stroke="#262262" stroke-width="0.5" stroke-miterlimit="10"/>
<path d="M302.092 183.747L305.122 187.544L304.969 187.928L300.175 188.541L297.183 184.706L297.337 184.361L302.092 183.747ZM302.169 183.517L297.183 184.169L296.953 184.744L300.098 188.733L305.122 188.081L305.352 187.506L302.169 183.517Z" fill="#262262"/>
<path d="M297.222 184.552L300.175 188.234L300.251 188.311H300.367L305.045 187.736L304.969 187.928L300.175 188.541L297.183 184.706L297.222 184.552ZM297.183 184.169L296.953 184.744L300.098 188.733L305.122 188.081L305.352 187.506L300.328 188.119L297.183 184.169Z" fill="#262262"/>
<path d="M300.328 188.119L300.098 188.656" stroke="#262262" stroke-width="0.5" stroke-miterlimit="10"/>
<path d="M295.458 184.361L298.487 188.158L298.334 188.541L293.54 189.155L290.549 185.32L290.702 184.974L295.458 184.361ZM295.534 184.169L290.549 184.821L290.319 185.396L293.463 189.385L298.487 188.733L298.718 188.158L295.534 184.169Z" fill="#262262"/>
<path d="M290.587 185.166L293.54 188.848L293.617 188.925H293.732L298.411 188.349L298.334 188.541L293.54 189.155L290.549 185.32L290.587 185.166ZM290.549 184.783L290.319 185.358L293.463 189.347L298.487 188.695L298.718 188.119L293.694 188.733L290.549 184.783Z" fill="#262262"/>
<path d="M293.694 188.733L293.464 189.308" stroke="#262262" stroke-width="0.5" stroke-miterlimit="10"/>
<path d="M288.862 185.013L291.891 188.81L291.738 189.193L286.944 189.807L283.953 185.972L284.106 185.626L288.862 185.013ZM288.938 184.783L283.953 185.435L283.722 186.01L286.867 189.999L291.891 189.347L292.121 188.771L288.938 184.783Z" fill="#262262"/>
<path d="M283.991 185.818L286.944 189.5L287.02 189.577H287.135L291.814 189.001L291.738 189.193L286.944 189.807L283.952 185.971L283.991 185.818ZM283.914 185.435L283.684 186.01L286.829 189.998L291.853 189.347L292.083 188.771L287.059 189.385L283.914 185.435Z" fill="#262262"/>
<path d="M287.097 189.385L286.867 189.922" stroke="#262262" stroke-width="0.5" stroke-miterlimit="10"/>
<path d="M282.226 185.626L285.256 189.423L285.103 189.807L280.309 190.42L277.317 186.585L277.471 186.24L282.226 185.626ZM282.303 185.435L277.317 186.087L277.087 186.662L280.232 190.651L285.256 189.999L285.486 189.423L282.303 185.435Z" fill="#262262"/>
<path d="M277.356 186.432L280.309 190.114L280.386 190.19H280.501L285.179 189.615L285.103 189.807L280.309 190.42L277.317 186.585L277.356 186.432ZM277.317 186.087L277.087 186.662L280.232 190.651L285.256 189.999L285.486 189.423L280.462 190.037L277.317 186.087Z" fill="#262262"/>
<path d="M280.462 189.999L280.232 190.574" stroke="#262262" stroke-width="0.5" stroke-miterlimit="10"/>
<path d="M275.592 186.278L278.622 190.075L278.468 190.459L273.674 191.072L270.683 187.237L270.836 186.892L275.592 186.278ZM275.669 186.087L270.683 186.739L270.453 187.314L273.598 191.302L278.622 190.651L278.852 190.075L275.669 186.087Z" fill="#262262"/>
<path d="M270.721 187.084L273.674 190.766L273.751 190.842H273.866L278.545 190.267L278.468 190.459L273.674 191.072L270.683 187.237L270.721 187.084ZM270.683 186.7L270.453 187.275L273.598 191.264L278.622 190.612L278.852 190.037L273.828 190.651L270.683 186.7Z" fill="#262262"/>
<path d="M273.828 190.651L273.598 191.226" stroke="#262262" stroke-width="0.5" stroke-miterlimit="10"/>
<path d="M297.874 178.454L300.904 182.251L300.75 182.635L295.956 183.249L292.965 179.413L293.118 179.068L297.874 178.454ZM297.989 178.263L293.003 178.915L292.773 179.49L295.918 183.479L300.942 182.827L301.172 182.251L297.989 178.263Z" fill="#262262"/>
<path d="M293.041 179.26L295.994 182.942L296.071 183.018H296.186L300.865 182.443L300.788 182.635L295.994 183.249L293.003 179.413L293.041 179.26ZM292.965 178.876L292.735 179.452L295.879 183.44L300.903 182.788L301.134 182.213L296.11 182.827L292.965 178.876Z" fill="#262262"/>
<path d="M296.148 182.827L295.918 183.402" stroke="#262262" stroke-width="0.5" stroke-miterlimit="10"/>
<path d="M291.277 179.068L294.307 182.865L294.154 183.249L289.36 183.862L286.368 180.027L286.522 179.682L291.277 179.068ZM291.354 178.876L286.368 179.528L286.138 180.104L289.283 184.092L294.307 183.44L294.537 182.865L291.354 178.876Z" fill="#262262"/>
<path d="M286.407 179.873L289.36 183.555L289.436 183.632H289.552L294.23 183.057L294.154 183.249L289.36 183.862L286.368 180.027L286.407 179.873ZM286.368 179.528L286.138 180.104L289.283 184.092L294.307 183.44L294.537 182.865L289.513 183.479L286.368 179.528Z" fill="#262262"/>
<path d="M289.513 183.479L289.283 184.016" stroke="#262262" stroke-width="0.5" stroke-miterlimit="10"/>
<path d="M284.643 179.72L287.672 183.517L287.519 183.901L282.725 184.514L279.734 180.679L279.887 180.334L284.643 179.72ZM284.719 179.528L279.734 180.18L279.504 180.756L282.648 184.744L287.672 184.092L287.902 183.517L284.719 179.528Z" fill="#262262"/>
<path d="M279.772 180.525L282.725 184.207L282.802 184.284H282.917L287.596 183.709L287.519 183.901L282.725 184.514L279.734 180.679L279.772 180.525ZM279.734 180.142L279.504 180.717L282.648 184.706L287.672 184.054L287.902 183.479L282.878 184.092L279.734 180.142Z" fill="#262262"/>
<path d="M282.878 184.092L282.648 184.668" stroke="#262262" stroke-width="0.5" stroke-miterlimit="10"/>
<path d="M278.008 180.372L281.038 184.169L280.884 184.553L276.091 185.166L273.099 181.331L273.253 180.986L278.008 180.372ZM278.123 180.142L273.137 180.794L272.907 181.369L276.052 185.358L281.076 184.706L281.306 184.131L278.123 180.142Z" fill="#262262"/>
<path d="M273.176 181.177L276.129 184.859L276.205 184.936H276.32L280.999 184.361L280.922 184.552L276.129 185.166L273.137 181.331L273.176 181.177ZM273.099 180.794L272.869 181.369L276.014 185.358L281.038 184.706L281.268 184.131L276.244 184.744L273.099 180.794Z" fill="#262262"/>
<path d="M276.244 184.744L276.014 185.281" stroke="#262262" stroke-width="0.5" stroke-miterlimit="10"/>
<path d="M271.412 180.986L274.442 184.783L274.288 185.166L269.494 185.78L266.503 181.945L266.656 181.599L271.412 180.986ZM271.488 180.794L266.503 181.446L266.273 182.021L269.418 186.01L274.442 185.358L274.672 184.783L271.488 180.794Z" fill="#262262"/>
<path d="M266.541 181.791L269.494 185.473L269.571 185.55H269.686L274.365 184.974L274.288 185.166L269.494 185.78L266.503 181.945L266.541 181.791ZM266.464 181.408L266.234 181.983L269.379 185.972L274.403 185.32L274.633 184.744L269.609 185.358L266.464 181.408Z" fill="#262262"/>
<path d="M269.647 185.358L269.417 185.933" stroke="#262262" stroke-width="0.5" stroke-miterlimit="10"/>
<path d="M293.694 173.162L296.723 176.959L296.57 177.342L291.776 177.956L288.785 174.121L288.938 173.775L293.694 173.162ZM293.77 172.97L288.785 173.622L288.554 174.197L291.699 178.186L296.723 177.534L296.953 176.959L293.77 172.97Z" fill="#262262"/>
<path d="M288.823 173.967L291.776 177.649L291.853 177.726H291.968L296.647 177.15L296.57 177.342L291.776 177.956L288.785 174.121L288.823 173.967ZM288.785 173.584L288.554 174.159L291.699 178.148L296.723 177.496L296.953 176.92L291.929 177.534L288.785 173.584Z" fill="#262262"/>
<path d="M291.929 177.534L291.699 178.109" stroke="#262262" stroke-width="0.5" stroke-miterlimit="10"/>
<path d="M287.059 173.814L290.089 177.611L289.935 177.994L285.141 178.608L282.15 174.773L282.303 174.427L287.059 173.814ZM287.135 173.584L282.15 174.236L281.92 174.811L285.064 178.8L290.089 178.148L290.319 177.572L287.135 173.584Z" fill="#262262"/>
<path d="M282.227 174.619L285.18 178.301L285.256 178.378H285.371L290.05 177.802L289.935 177.956L285.141 178.569L282.15 174.734L282.227 174.619ZM282.15 174.236L281.92 174.811L285.064 178.8L290.089 178.148L290.319 177.572L285.295 178.186L282.15 174.236Z" fill="#262262"/>
<path d="M285.295 178.186L285.064 178.761" stroke="#262262" stroke-width="0.5" stroke-miterlimit="10"/>
<path d="M280.463 174.427L283.492 178.224L283.339 178.608L278.545 179.222L275.554 175.386L275.707 175.041L280.463 174.427ZM280.539 174.236L275.554 174.888L275.323 175.463L278.468 179.452L283.492 178.8L283.722 178.224L280.539 174.236Z" fill="#262262"/>
<path d="M275.592 175.233L278.545 178.915L278.621 178.991H278.737L283.415 178.416L283.339 178.608L278.545 179.222L275.553 175.386L275.592 175.233ZM275.515 174.888L275.285 175.463L278.43 179.452L283.454 178.8L283.684 178.224L278.66 178.838L275.515 174.888Z" fill="#262262"/>
<path d="M278.698 178.8L278.468 179.375" stroke="#262262" stroke-width="0.5" stroke-miterlimit="10"/>
<path d="M273.828 175.079L276.857 178.876L276.704 179.26L271.91 179.873L268.919 176.038L269.072 175.693L273.828 175.079ZM273.904 174.888L268.919 175.54L268.688 176.115L271.833 180.104L276.857 179.452L277.087 178.876L273.904 174.888Z" fill="#262262"/>
<path d="M268.957 175.885L271.91 179.567L271.987 179.643H272.102L276.781 179.068L276.704 179.26L271.91 179.873L268.919 176.038L268.957 175.885ZM268.919 175.501L268.688 176.077L271.833 180.065L276.857 179.413L277.087 178.838L272.063 179.452L268.919 175.501Z" fill="#262262"/>
<path d="M272.063 179.452L271.833 180.027" stroke="#262262" stroke-width="0.5" stroke-miterlimit="10"/>
<path d="M267.193 175.693L270.223 179.49L270.069 179.873L265.275 180.487L262.284 176.652L262.437 176.307L267.193 175.693ZM267.27 175.501L262.284 176.153L262.054 176.728L265.199 180.717L270.223 180.065L270.453 179.49L267.27 175.501Z" fill="#262262"/>
<path d="M262.322 176.537L265.275 180.219L265.352 180.295H265.467L270.146 179.72L270.069 179.912L265.275 180.525L262.284 176.69L262.322 176.537ZM262.284 176.153L262.054 176.728L265.199 180.717L270.223 180.065L270.453 179.49L265.429 180.104L262.284 176.153Z" fill="#262262"/>
<path d="M265.429 180.104L265.198 180.64" stroke="#262262" stroke-width="0.5" stroke-miterlimit="10"/>
<path d="M289.513 167.907L292.543 171.704L292.39 172.088L287.596 172.702L284.604 168.866L284.758 168.521L289.513 167.907ZM289.59 167.677L284.604 168.329L284.374 168.905L287.519 172.893L292.543 172.241L292.773 171.666L289.59 167.677Z" fill="#262262"/>
<path d="M284.643 168.713L287.596 172.395L287.672 172.471H287.787L292.466 171.896L292.39 172.088L287.596 172.702L284.604 168.866L284.643 168.713ZM284.566 168.329L284.336 168.905L287.481 172.893L292.505 172.241L292.735 171.666L287.711 172.28L284.566 168.329Z" fill="#262262"/>
<path d="M287.749 172.28L287.519 172.817" stroke="#262262" stroke-width="0.5" stroke-miterlimit="10"/>
<path d="M282.879 168.521L285.908 172.318L285.755 172.702L280.961 173.315L277.97 169.48L278.123 169.135L282.879 168.521ZM282.955 168.329L277.97 168.981L277.74 169.557L280.884 173.545L285.908 172.893L286.138 172.318L282.955 168.329Z" fill="#262262"/>
<path d="M278.008 169.327L280.961 173.008L281.038 173.085H281.153L285.832 172.51L285.755 172.702L280.961 173.315L277.97 169.48L278.008 169.327ZM277.97 168.943L277.74 169.518L280.884 173.507L285.908 172.855L286.138 172.28L281.114 172.893L277.97 168.943Z" fill="#262262"/>
<path d="M281.114 172.893L280.884 173.469" stroke="#262262" stroke-width="0.5" stroke-miterlimit="10"/>
<path d="M276.244 169.173L279.273 172.97L279.12 173.354L274.326 173.967L271.335 170.132L271.488 169.787L276.244 169.173ZM276.32 168.943L271.335 169.595L271.105 170.17L274.249 174.159L279.273 173.507L279.504 172.932L276.32 168.943Z" fill="#262262"/>
<path d="M271.373 169.978L274.326 173.66L274.403 173.737H274.518L279.197 173.162L279.12 173.354L274.326 173.967L271.335 170.132L271.373 169.978ZM271.335 169.595L271.105 170.17L274.249 174.159L279.273 173.507L279.504 172.932L274.48 173.545L271.335 169.595Z" fill="#262262"/>
<path d="M274.48 173.545L274.25 174.082" stroke="#262262" stroke-width="0.5" stroke-miterlimit="10"/>
<path d="M269.609 169.787L272.639 173.584L272.486 173.967L267.692 174.581L264.7 170.746L264.854 170.4L269.609 169.787ZM269.724 169.595L264.739 170.247L264.509 170.822L267.653 174.811L272.677 174.159L272.908 173.584L269.724 169.595Z" fill="#262262"/>
<path d="M264.777 170.592L267.73 174.274L267.807 174.351H267.922L272.6 173.775L272.524 173.967L267.73 174.581L264.738 170.746L264.777 170.592ZM264.7 170.209L264.47 170.784L267.615 174.773L272.639 174.121L272.869 173.545L267.845 174.159L264.7 170.209Z" fill="#262262"/>
<path d="M267.845 174.159L267.615 174.734" stroke="#262262" stroke-width="0.5" stroke-miterlimit="10"/>
<path d="M263.013 170.439L266.042 174.236L265.889 174.619L261.095 175.233L258.104 171.398L258.257 171.052L263.013 170.439ZM263.089 170.209L258.104 170.861L257.874 171.436L261.018 175.425L266.042 174.773L266.272 174.197L263.089 170.209Z" fill="#262262"/>
<path d="M258.142 171.244L261.095 174.926L261.172 175.003H261.287L265.966 174.427L265.889 174.619L261.095 175.233L258.104 171.398L258.142 171.244ZM258.104 170.861L257.874 171.436L261.018 175.425L266.042 174.773L266.272 174.197L261.248 174.811L258.104 170.861Z" fill="#262262"/>
<path d="M261.248 174.811L261.018 175.386" stroke="#262262" stroke-width="0.5" stroke-miterlimit="10"/>
<path d="M285.295 162.615L288.324 166.412L288.171 166.795L283.377 167.409L280.386 163.574L280.539 163.228L285.295 162.615ZM285.371 162.423L280.386 163.075L280.156 163.65L283.3 167.639L288.324 166.987L288.554 166.412L285.371 162.423Z" fill="#262262"/>
<path d="M280.424 163.42L283.377 167.102L283.454 167.179H283.569L288.248 166.604L288.171 166.795L283.377 167.409L280.386 163.574L280.424 163.42ZM280.386 163.037L280.156 163.612L283.3 167.601L288.324 166.949L288.554 166.373L283.53 166.987L280.386 163.037Z" fill="#262262"/>
<path d="M283.53 166.987L283.3 167.562" stroke="#262262" stroke-width="0.5" stroke-miterlimit="10"/>
<path d="M278.66 163.229L281.69 167.025L281.536 167.409L276.742 168.023L273.751 164.187L273.904 163.842L278.66 163.229ZM278.737 163.037L273.751 163.689L273.521 164.264L276.666 168.253L281.69 167.601L281.92 167.025L278.737 163.037Z" fill="#262262"/>
<path d="M273.828 164.034L276.781 167.716L276.857 167.792H276.972L281.651 167.217L281.575 167.409L276.781 168.023L273.789 164.187L273.828 164.034ZM273.751 163.689L273.521 164.264L276.666 168.253L281.69 167.601L281.92 167.025L276.896 167.639L273.751 163.689Z" fill="#262262"/>
<path d="M276.896 167.639L276.666 168.176" stroke="#262262" stroke-width="0.5" stroke-miterlimit="10"/>
<path d="M272.064 163.88L275.093 167.677L274.94 168.061L270.146 168.675L267.155 164.839L267.308 164.494L272.064 163.88ZM272.14 163.689L267.155 164.341L266.925 164.916L270.069 168.905L275.093 168.253L275.323 167.677L272.14 163.689Z" fill="#262262"/>
<path d="M267.193 164.686L270.146 168.368L270.223 168.444H270.338L275.016 167.869L274.94 168.061L270.146 168.675L267.154 164.839L267.193 164.686ZM267.116 164.302L266.886 164.878L270.031 168.866L275.055 168.214L275.285 167.639L270.261 168.253L267.116 164.302Z" fill="#262262"/>
<path d="M270.299 168.253L270.069 168.828" stroke="#262262" stroke-width="0.5" stroke-miterlimit="10"/>
<path d="M265.429 164.532L268.458 168.329L268.305 168.713L263.511 169.327L260.52 165.491L260.673 165.146L265.429 164.532ZM265.505 164.302L260.52 164.954L260.29 165.53L263.434 169.518L268.458 168.866L268.688 168.291L265.505 164.302Z" fill="#262262"/>
<path d="M260.558 165.338L263.511 169.02L263.588 169.096H263.703L268.382 168.521L268.305 168.713L263.511 169.327L260.52 165.491L260.558 165.338ZM260.52 164.954L260.29 165.53L263.434 169.518L268.458 168.866L268.688 168.291L263.664 168.905L260.52 164.954Z" fill="#262262"/>
<path d="M263.664 168.905L263.434 169.442" stroke="#262262" stroke-width="0.5" stroke-miterlimit="10"/>
<path d="M258.794 165.146L261.824 168.943L261.67 169.327L256.876 169.94L253.885 166.105L254.038 165.76L258.794 165.146ZM258.871 164.954L253.885 165.606L253.655 166.182L256.8 170.17L261.824 169.518L262.054 168.943L258.871 164.954Z" fill="#262262"/>
<path d="M253.923 165.952L256.876 169.633L256.953 169.71H257.068L261.747 169.135L261.67 169.327L256.876 169.94L253.885 166.105L253.923 165.952ZM253.885 165.568L253.655 166.143L256.8 170.132L261.824 169.48L262.054 168.905L257.03 169.518L253.885 165.568Z" fill="#262262"/>
<path d="M257.03 169.518L256.8 170.094" stroke="#262262" stroke-width="0.5" stroke-miterlimit="10"/>
<path d="M281.115 157.322L284.144 161.119L283.991 161.503L279.197 162.116L276.206 158.281L276.359 157.936L281.115 157.322ZM281.191 157.13L276.206 157.782L275.976 158.358L279.12 162.346L284.144 161.694L284.374 161.119L281.191 157.13Z" fill="#262262"/>
<path d="M276.244 158.128L279.197 161.809L279.273 161.886H279.389L284.067 161.311L283.991 161.503L279.197 162.116L276.205 158.281L276.244 158.128ZM276.167 157.744L275.937 158.319L279.082 162.308L284.106 161.656L284.336 161.081L279.312 161.694L276.167 157.744Z" fill="#262262"/>
<path d="M279.35 161.694L279.12 162.27" stroke="#262262" stroke-width="0.5" stroke-miterlimit="10"/>
<path d="M274.48 157.974L277.509 161.771L277.356 162.155L272.562 162.768L269.571 158.933L269.724 158.588L274.48 157.974ZM274.556 157.744L269.571 158.396L269.34 158.971L272.485 162.96L277.509 162.308L277.739 161.733L274.556 157.744Z" fill="#262262"/>
<path d="M269.609 158.78L272.562 162.461L272.639 162.538H272.754L277.433 161.963L277.356 162.155L272.562 162.768L269.571 158.933L269.609 158.78ZM269.571 158.396L269.34 158.971L272.485 162.96L277.509 162.308L277.739 161.733L272.715 162.346L269.571 158.396Z" fill="#262262"/>
<path d="M272.715 162.346L272.485 162.922" stroke="#262262" stroke-width="0.5" stroke-miterlimit="10"/>
<path d="M267.845 158.588L270.875 162.385L270.721 162.768L265.927 163.382L262.936 159.547L263.089 159.201L267.845 158.588ZM267.921 158.396L262.936 159.048L262.706 159.623L265.851 163.612L270.875 162.96L271.105 162.385L267.921 158.396Z" fill="#262262"/>
<path d="M262.974 159.393L265.927 163.075L266.004 163.152H266.119L270.798 162.577L270.721 162.768L265.927 163.382L262.936 159.547L262.974 159.393ZM262.936 159.048L262.706 159.623L265.851 163.612L270.875 162.96L271.105 162.385L266.081 162.998L262.936 159.048Z" fill="#262262"/>
<path d="M266.081 162.96L265.851 163.535" stroke="#262262" stroke-width="0.5" stroke-miterlimit="10"/>
<path d="M261.21 159.24L264.24 163.037L264.087 163.42L259.293 164.034L256.301 160.199L256.455 159.853L261.21 159.24ZM261.325 159.048L256.34 159.7L256.11 160.275L259.254 164.264L264.278 163.612L264.509 163.037L261.325 159.048Z" fill="#262262"/>
<path d="M256.378 160.045L259.331 163.727L259.408 163.804H259.523L264.201 163.228L264.125 163.42L259.331 164.034L256.339 160.199L256.378 160.045ZM256.301 159.662L256.071 160.237L259.216 164.226L264.24 163.574L264.47 162.998L259.446 163.612L256.301 159.662Z" fill="#262262"/>
<path d="M259.446 163.612L259.254 164.187" stroke="#262262" stroke-width="0.5" stroke-miterlimit="10"/>
<path d="M254.614 159.853L257.643 163.65L257.49 164.034L252.696 164.647L249.705 160.812L249.858 160.467L254.614 159.853ZM254.69 159.662L249.705 160.314L249.475 160.889L252.619 164.878L257.643 164.226L257.874 163.65L254.69 159.662Z" fill="#262262"/>
<path d="M249.743 160.659L252.696 164.341L252.773 164.417H252.888L257.567 163.842L257.49 164.034L252.696 164.647L249.705 160.812L249.743 160.659ZM249.705 160.314L249.475 160.889L252.619 164.878L257.643 164.226L257.874 163.65L252.85 164.264L249.705 160.314Z" fill="#262262"/>
<path d="M252.849 164.264L252.619 164.801" stroke="#262262" stroke-width="0.5" stroke-miterlimit="10"/>
<path d="M276.896 152.068L279.925 155.865L279.772 156.248L274.978 156.862L271.987 153.027L272.14 152.682L276.896 152.068ZM276.972 151.838L271.987 152.49L271.757 153.065L274.901 157.054L279.925 156.402L280.156 155.826L276.972 151.838Z" fill="#262262"/>
<path d="M272.025 152.873L274.978 156.555L275.055 156.632H275.17L279.849 156.057L279.772 156.248L274.978 156.862L271.987 153.027L272.025 152.873ZM271.987 152.49L271.757 153.065L274.901 157.054L279.925 156.402L280.156 155.826L275.132 156.44L271.987 152.49Z" fill="#262262"/>
<path d="M275.131 156.44L274.901 156.977" stroke="#262262" stroke-width="0.5" stroke-miterlimit="10"/>
<path d="M270.261 152.682L273.291 156.478L273.137 156.862L268.344 157.476L265.352 153.64L265.506 153.295L270.261 152.682ZM270.376 152.49L265.39 153.142L265.16 153.717L268.305 157.706L273.329 157.054L273.559 156.478L270.376 152.49Z" fill="#262262"/>
<path d="M265.429 153.487L268.382 157.169L268.458 157.245H268.573L273.252 156.67L273.176 156.862L268.382 157.476L265.39 153.64L265.429 153.487ZM265.352 153.103L265.122 153.679L268.267 157.667L273.291 157.015L273.521 156.44L268.497 157.054L265.352 153.103Z" fill="#262262"/>
<path d="M268.497 157.054L268.267 157.629" stroke="#262262" stroke-width="0.5" stroke-miterlimit="10"/>
<path d="M263.665 153.334L266.694 157.13L266.541 157.514L261.747 158.128L258.756 154.292L258.909 153.947L263.665 153.334ZM263.741 153.103L258.756 153.755L258.526 154.331L261.67 158.319L266.694 157.667L266.925 157.092L263.741 153.103Z" fill="#262262"/>
<path d="M258.794 154.139L261.747 157.821L261.824 157.897H261.939L266.618 157.322L266.541 157.514L261.747 158.128L258.756 154.292L258.794 154.139ZM258.717 153.755L258.487 154.331L261.632 158.319L266.656 157.667L266.886 157.092L261.862 157.706L258.717 153.755Z" fill="#262262"/>
<path d="M261.9 157.706L261.67 158.243" stroke="#262262" stroke-width="0.5" stroke-miterlimit="10"/>
<path d="M257.03 153.947L260.059 157.744L259.906 158.128L255.112 158.741L252.121 154.906L252.274 154.561L257.03 153.947ZM257.106 153.755L252.121 154.407L251.891 154.983L255.035 158.971L260.059 158.319L260.29 157.744L257.106 153.755Z" fill="#262262"/>
<path d="M252.159 154.753L255.112 158.434L255.189 158.511H255.304L259.983 157.936L259.906 158.128L255.112 158.741L252.121 154.906L252.159 154.753ZM252.121 154.369L251.891 154.944L255.035 158.933L260.059 158.281L260.29 157.706L255.266 158.319L252.121 154.369Z" fill="#262262"/>
<path d="M255.265 158.319L255.035 158.895" stroke="#262262" stroke-width="0.5" stroke-miterlimit="10"/>
<path d="M250.395 154.599L253.425 158.396L253.271 158.78L248.477 159.393L245.486 155.558L245.639 155.213L250.395 154.599ZM250.472 154.369L245.486 155.021L245.256 155.596L248.401 159.585L253.425 158.933L253.655 158.358L250.472 154.369Z" fill="#262262"/>
<path d="M245.524 155.405L248.477 159.086L248.554 159.163H248.669L253.348 158.588L253.271 158.78L248.477 159.393L245.486 155.558L245.524 155.405ZM245.486 155.021L245.256 155.596L248.401 159.585L253.425 158.933L253.655 158.358L248.631 158.971L245.486 155.021Z" fill="#262262"/>
<path d="M248.631 158.971L248.401 159.547" stroke="#262262" stroke-width="0.5" stroke-miterlimit="10"/>
<path d="M272.716 146.775L275.745 150.572L275.592 150.956L270.798 151.569L267.807 147.734L267.96 147.389L272.716 146.775ZM272.792 146.583L267.807 147.235L267.577 147.811L270.721 151.799L275.745 151.147L275.976 150.572L272.792 146.583Z" fill="#262262"/>
<path d="M267.845 147.581L270.798 151.263L270.875 151.339H270.99L275.668 150.764L275.592 150.956L270.798 151.569L267.806 147.734L267.845 147.581ZM267.768 147.197L267.538 147.772L270.683 151.761L275.707 151.109L275.937 150.534L270.913 151.147L267.768 147.197Z" fill="#262262"/>
<path d="M270.951 151.147L270.721 151.723" stroke="#262262" stroke-width="0.5" stroke-miterlimit="10"/>
<path d="M266.081 147.389L269.11 151.186L268.957 151.569L264.163 152.183L261.172 148.348L261.325 148.003L266.081 147.389ZM266.157 147.197L261.172 147.849L260.942 148.424L264.086 152.413L269.11 151.761L269.341 151.186L266.157 147.197Z" fill="#262262"/>
<path d="M261.21 148.194L264.163 151.876L264.24 151.953H264.355L269.034 151.378L268.957 151.569L264.163 152.183L261.172 148.348L261.21 148.194ZM261.172 147.849L260.942 148.424L264.086 152.413L269.11 151.761L269.341 151.186L264.317 151.799L261.172 147.849Z" fill="#262262"/>
<path d="M264.317 151.799L264.086 152.336" stroke="#262262" stroke-width="0.5" stroke-miterlimit="10"/>
<path d="M259.446 148.041L262.476 151.838L262.322 152.221L257.528 152.835L254.537 149L254.69 148.654L259.446 148.041ZM259.523 147.849L254.537 148.501L254.307 149.076L257.452 153.065L262.476 152.413L262.706 151.838L259.523 147.849Z" fill="#262262"/>
<path d="M254.575 148.846L257.528 152.528L257.605 152.605H257.72L262.399 152.029L262.322 152.221L257.528 152.835L254.537 149L254.575 148.846ZM254.537 148.463L254.307 149.038L257.452 153.027L262.476 152.375L262.706 151.799L257.682 152.413L254.537 148.463Z" fill="#262262"/>
<path d="M257.682 152.413L257.452 152.988" stroke="#262262" stroke-width="0.5" stroke-miterlimit="10"/>
<path d="M252.811 148.693L255.841 152.49L255.688 152.873L250.894 153.487L247.902 149.652L248.056 149.306L252.811 148.693ZM252.926 148.463L247.941 149.115L247.711 149.69L250.855 153.679L255.879 153.027L256.11 152.451L252.926 148.463Z" fill="#262262"/>
<path d="M247.979 149.498L250.932 153.18L251.009 153.257H251.124L255.802 152.681L255.726 152.873L250.932 153.487L247.94 149.652L247.979 149.498ZM247.902 149.115L247.672 149.69L250.817 153.679L255.841 153.027L256.071 152.451L251.047 153.065L247.902 149.115Z" fill="#262262"/>
<path d="M251.085 153.065L250.855 153.602" stroke="#262262" stroke-width="0.5" stroke-miterlimit="10"/>
<path d="M246.215 149.307L249.245 153.103L249.091 153.487L244.297 154.101L241.306 150.265L241.459 149.92L246.215 149.307ZM246.291 149.115L241.306 149.767L241.076 150.342L244.22 154.331L249.245 153.679L249.475 153.103L246.291 149.115Z" fill="#262262"/>
<path d="M241.344 150.112L244.297 153.794L244.374 153.87H244.489L249.168 153.295L249.091 153.487L244.297 154.101L241.306 150.265L241.344 150.112ZM241.306 149.728L241.076 150.304L244.22 154.292L249.245 153.64L249.475 153.065L244.451 153.679L241.306 149.728Z" fill="#262262"/>
<path d="M244.451 153.679L244.22 154.254" stroke="#262262" stroke-width="0.5" stroke-miterlimit="10"/>
<path d="M328.785 153.257L315.861 185.013C315.477 185.933 314.25 186.125 313.598 185.358L275.899 138.836C275.592 138.453 275.515 137.954 275.707 137.494L288.938 105.048C289.322 104.089 290.587 103.935 291.201 104.741L328.631 151.914C328.9 152.298 328.977 152.797 328.785 153.257Z" fill="#F5D2A3" stroke="#262262" stroke-width="0.5" stroke-miterlimit="10"/>
<path d="M316.512 195.713L315.592 197.938C315.285 198.705 314.595 199.203 313.79 199.318L268.113 205.186C267.039 205.34 266.004 204.879 265.352 204.074L223.703 151.378C223.051 150.534 222.897 149.422 223.281 148.463L224.431 145.625C224.278 146.162 224.393 146.775 224.853 147.389L266.924 200.009C267.73 201.044 269.034 201.543 270.299 201.389L316.512 195.713Z" fill="#F5D2A3" stroke="#262262" stroke-width="0.5" stroke-miterlimit="10"/>
<path d="M251.507 129.555C251.43 130.897 251.085 132.585 250.357 134.119C247.71 139.68 243.568 143.784 238.007 146.468C237.586 146.66 237.24 146.66 236.819 146.468C230.989 143.592 226.579 139.296 224.124 133.198C223.242 130.974 222.897 128.673 223.818 126.333C225.927 120.849 233.214 119.622 236.972 124.109C237.317 124.531 237.471 124.569 237.854 124.109C239.963 121.578 243.377 120.695 246.483 121.846C249.474 122.997 251.507 125.95 251.507 129.555Z" fill="#F0512F" stroke="#262262" stroke-width="0.5" stroke-miterlimit="10"/>
<path d="M465.929 237.326C465.775 236.022 465.775 233.375 463.666 233.222" stroke="#262262" stroke-width="0.5" stroke-miterlimit="10"/>
<path d="M461.48 235.868C461.48 234.411 462.017 233.26 463.666 233.26" stroke="#262262" stroke-width="0.5" stroke-miterlimit="10"/>
<path d="M461.48 237.172V248.908" stroke="#262262" stroke-width="0.5" stroke-miterlimit="10"/>
<path d="M457.146 247.374V232.685" stroke="#262262" stroke-width="0.5" stroke-miterlimit="10"/>
<path d="M461.48 235.868V237.172" stroke="#262262" stroke-width="0.5" stroke-miterlimit="10"/>
<path d="M452.813 248.141V231.534" stroke="#262262" stroke-width="0.5" stroke-miterlimit="10"/>
<path d="M452.813 231.534C452.813 229.77 453.311 228.428 454.96 228.351" stroke="#262262" stroke-width="0.5" stroke-miterlimit="10"/>
<path d="M457.146 232.685C457.146 230.997 457.683 229.617 459.409 229.617" stroke="#262262" stroke-width="0.5" stroke-miterlimit="10"/>
<path d="M461.672 234.449C461.672 230.537 460.751 229.617 459.409 229.617" stroke="#262262" stroke-width="0.5" stroke-miterlimit="10"/>
<path d="M457.338 231.266C457.338 228.926 456.379 228.351 454.999 228.351" stroke="#262262" stroke-width="0.5" stroke-miterlimit="10"/>
<path d="M452.851 231.266C452.506 230.46 451.892 230.039 450.703 230.039" stroke="#262262" stroke-width="0.5" stroke-miterlimit="10"/>
<path d="M448.594 233.03C448.594 231.074 449.246 230 450.703 230" stroke="#262262" stroke-width="0.5" stroke-miterlimit="10"/>
<path d="M448.594 233.03V246.875" stroke="#262262" stroke-width="0.5" stroke-miterlimit="10"/>
<path d="M445.296 260.145C445.296 256.157 443.877 251.324 442.189 247.873C441.806 247.067 441.422 246.185 441.461 245.265C441.499 244.344 442.074 243.424 442.918 243.04C443.877 242.618 444.989 242.925 445.833 243.539C446.983 244.383 447.674 245.725 448.556 246.799C448.556 250.979 448.095 254.393 447.52 254.393" stroke="#262262" stroke-width="0.5" stroke-miterlimit="10"/>
<path d="M465.929 237.326C466.427 247.374 467.731 257.844 464.816 267.624C464.586 268.353 464.28 269.197 463.858 270.117" stroke="#262262" stroke-width="0.5" stroke-miterlimit="10"/>
<path d="M445.296 260.145C445.372 264.287 444.107 268.199 442.074 271.805" stroke="#262262" stroke-width="0.5" stroke-miterlimit="10"/>
<path d="M464.318 233.222C464.318 231.419 465.238 230 466.351 230" stroke="#262262" stroke-width="0.5" stroke-miterlimit="10"/>
<path d="M468.153 231.304C468.153 230.959 467.961 229.962 466.389 230.039" stroke="#262262" stroke-width="0.5" stroke-miterlimit="10"/>
<path d="M473.024 231.726C473.1 229.425 472.257 228.505 470.761 228.505C468.882 228.505 467.885 230.767 467.885 233.567L467.578 245.763" stroke="#262262" stroke-width="0.5" stroke-miterlimit="10"/>
<path d="M477.357 249.292C477.511 249.292 477.664 241.583 477.664 234.449C477.664 232.723 476.629 230.729 475.018 230.729C473.062 230.729 472.563 231.534 472.218 236.942L471.413 247.182" stroke="#262262" stroke-width="0.5" stroke-miterlimit="10"/>
<path d="M473.982 253.127C474.673 253.434 475.9 251.516 477.357 249.292C479.428 246.108 481.921 242.273 483.954 243.385C486.255 244.536 485.603 246.952 483.954 249.407C481.883 252.398 480.042 254.162 480.042 260.069C480.042 264.019 482.151 268.851 485.219 273.53" stroke="#262262" stroke-width="0.5" stroke-miterlimit="10"/>
<path d="M435.094 218.571L436.053 220.566L438.239 220.872L436.667 222.407L437.05 224.593L435.094 223.557L433.139 224.593L433.484 222.407L431.911 220.872L434.097 220.566L435.094 218.571Z" fill="#F0512F" stroke="#262262" stroke-width="0.5" stroke-miterlimit="10"/>
<path d="M482.803 212.78L484.567 216.308L488.441 216.884L485.641 219.645L486.293 223.519L482.803 221.678L479.313 223.519L480.004 219.645L477.166 216.884L481.077 216.308L482.803 212.78Z" fill="#F0512F" stroke="#262262" stroke-width="0.5" stroke-miterlimit="10"/>
<path d="M493.503 238.246L494.232 239.742L495.881 239.972L494.692 241.123L494.961 242.772L493.503 242.005L492.046 242.772L492.314 241.123L491.125 239.972L492.775 239.742L493.503 238.246Z" fill="#F0512F" stroke="#262262" stroke-width="0.5" stroke-miterlimit="10"/>
<path d="M410.051 293.781H316.474C309.302 293.781 303.473 287.798 303.473 280.396V227.853" stroke="#262262" stroke-width="0.5" stroke-miterlimit="10"/>
<path d="M226.004 198.129H201.344C193.597 198.129 187.307 191.303 187.307 182.827V135.269C187.307 126.832 181.018 119.967 173.271 119.967H98.8694" stroke="#262262" stroke-width="0.5" stroke-miterlimit="10"/>
<path d="M177.259 298.114C177.259 298.191 177.259 298.268 177.259 298.345C177.067 303.33 170.049 307.741 159.349 310.426C149.915 301.835 139.713 284.346 134.344 255.198C142.973 276.944 168.86 295.545 177.259 298.114Z" fill="#F5D2A3" stroke="#262262" stroke-width="0.5" stroke-miterlimit="10"/>
<path d="M134.306 255.198C128.975 286.072 119.272 301.605 112.139 311.078C99.8665 308.47 91.621 303.752 91.3909 298.345C91.3909 298.268 91.3909 298.191 91.3909 298.153C99.3679 294.548 124.066 279.59 134.306 255.198Z" fill="#F5D2A3" stroke="#262262" stroke-width="0.5" stroke-miterlimit="10"/>
<path d="M112.139 311.078C100.787 311.078 91.5826 305.401 91.3909 298.345C91.5826 303.752 99.8665 308.47 112.139 311.078Z" fill="#F5D2A3" stroke="#262262" stroke-width="0.5" stroke-miterlimit="10"/>
<path d="M112.139 311.078V345.326C99.7131 342.335 91.3909 336.927 91.3909 330.752V298.114C91.3909 298.191 91.3909 298.268 91.3909 298.306C91.5826 305.401 100.787 311.078 112.139 311.078Z" fill="#F5D2A3" stroke="#262262" stroke-width="0.5" stroke-miterlimit="10"/>
<path d="M159.311 310.426C152.254 312.19 143.625 313.264 134.306 313.264C126.175 313.264 118.62 312.458 112.139 311.078C119.272 301.605 129.013 286.072 134.306 255.198C139.675 284.346 149.877 301.835 159.311 310.426Z" fill="#F5D2A3" stroke="#262262" stroke-width="0.5" stroke-miterlimit="10"/>
<path d="M159.349 310.426C153.865 313.532 148.342 314.606 134.536 314.606C122.264 314.606 116.051 313.225 112.177 311.078C118.659 312.458 126.252 313.264 134.344 313.264C143.664 313.264 152.293 312.19 159.349 310.426Z" fill="#F5D2A3" stroke="#262262" stroke-width="0.5" stroke-miterlimit="10"/>
<path d="M159.349 310.426V344.598C152.293 346.592 143.664 347.781 134.344 347.781C126.214 347.781 118.62 346.899 112.177 345.327V311.078C116.089 313.264 122.302 314.606 134.536 314.606C148.342 314.606 153.827 313.532 159.349 310.426Z" fill="#F5D2A3" stroke="#262262" stroke-width="0.5" stroke-miterlimit="10"/>
<path d="M177.221 298.345C177.068 305.056 169.09 310.426 159.311 310.426C170.011 307.741 177.029 303.33 177.221 298.345Z" fill="#F5D2A3" stroke="#262262" stroke-width="0.5" stroke-miterlimit="10"/>
<path d="M177.259 298.114V330.752C177.259 336.467 170.203 341.491 159.349 344.559V310.426C169.129 310.426 177.106 305.056 177.259 298.345C177.259 298.268 177.259 298.191 177.259 298.114Z" fill="#F5D2A3" stroke="#262262" stroke-width="0.5" stroke-miterlimit="10"/>
<path d="M134.306 255.198V252.015" stroke="#262262" stroke-width="0.5" stroke-miterlimit="10"/>
<path d="M150.337 244.229C143.51 245.418 142.321 251.056 134.306 252.053V240.087C134.919 241.736 142.436 243.194 150.337 244.229Z" fill="#F5D2A3" stroke="#262262" stroke-width="0.5" stroke-miterlimit="10"/>
<path d="M134.307 252.015C134.268 252.015 134.268 252.015 134.229 252.015H134.307Z" fill="#F5D2A3"/>
<path d="M134.307 252.015C134.268 252.015 134.268 252.015 134.229 252.015" stroke="#262262" stroke-width="0.5" stroke-miterlimit="10"/>
<path d="M557.742 64.624C557.742 64.6624 557.742 64.7008 557.742 64.7008C557.665 66.7718 554.712 68.6127 550.263 69.7633C546.313 66.1581 542.056 58.8712 539.793 46.675C543.437 55.7646 554.252 63.5502 557.742 64.624Z" fill="#F5D2A3" stroke="#262262" stroke-width="0.5" stroke-miterlimit="10"/>
<path d="M539.831 46.675C537.607 59.5999 533.542 66.0814 530.551 70.0318C525.411 68.9579 521.96 66.9635 521.883 64.7007C521.883 64.6624 521.883 64.624 521.883 64.624C525.22 63.1666 535.536 56.9152 539.831 46.675Z" fill="#F5D2A3" stroke="#262262" stroke-width="0.5" stroke-miterlimit="10"/>
<path d="M530.551 70.0701C525.795 70.0701 521.96 67.6923 521.883 64.7391C521.96 67.0019 525.411 68.9579 530.551 70.0701Z" fill="#F5D2A3" stroke="#262262" stroke-width="0.5" stroke-miterlimit="10"/>
<path d="M530.551 70.0701V84.3756C525.335 83.1483 521.883 80.8855 521.883 78.2775V64.624C521.883 64.6624 521.883 64.7007 521.883 64.7007C521.96 67.6922 525.795 70.0701 530.551 70.0701Z" fill="#F5D2A3" stroke="#262262" stroke-width="0.5" stroke-miterlimit="10"/>
<path d="M550.263 69.7633C547.31 70.492 543.705 70.9522 539.793 70.9522C536.38 70.9522 533.235 70.607 530.512 70.0318C533.504 66.0814 537.569 59.5999 539.793 46.675C542.056 58.8712 546.313 66.1965 550.263 69.7633Z" fill="#F5D2A3" stroke="#262262" stroke-width="0.5" stroke-miterlimit="10"/>
<path d="M550.263 69.8016C547.962 71.1056 545.661 71.5658 539.87 71.5658C534.731 71.5658 532.161 70.9906 530.512 70.0701C533.235 70.6454 536.38 70.9906 539.793 70.9906C543.705 70.9522 547.31 70.5303 550.263 69.8016Z" fill="#F5D2A3" stroke="#262262" stroke-width="0.5" stroke-miterlimit="10"/>
<path d="M550.263 69.8016V84.0688C547.31 84.9125 543.705 85.4111 539.793 85.4111C536.38 85.4111 533.235 85.0276 530.512 84.3756V70.0701C532.123 70.9906 534.731 71.5659 539.87 71.5659C545.661 71.5275 547.962 71.0673 550.263 69.8016Z" fill="#F5D2A3" stroke="#262262" stroke-width="0.5" stroke-miterlimit="10"/>
<path d="M557.742 64.7391C557.665 67.5389 554.367 69.8017 550.263 69.8017C554.75 68.6511 557.665 66.8102 557.742 64.7391Z" fill="#F5D2A3" stroke="#262262" stroke-width="0.5" stroke-miterlimit="10"/>
<path d="M557.742 64.624V78.2775C557.742 80.6554 554.788 82.7648 550.263 84.0688V69.8016C554.367 69.8016 557.665 67.5388 557.742 64.7391C557.742 64.7007 557.742 64.6624 557.742 64.624Z" fill="#F5D2A3" stroke="#262262" stroke-width="0.5" stroke-miterlimit="10"/>
<path d="M539.831 46.6751V45.3711" stroke="#262262" stroke-width="0.5" stroke-miterlimit="10"/>
<path d="M546.505 42.1111C543.667 42.6097 543.168 44.9492 539.793 45.3711V40.3853C540.062 41.0756 543.206 41.6892 546.505 42.1111Z" fill="#F5D2A3" stroke="#262262" stroke-width="0.5" stroke-miterlimit="10"/>
<path d="M539.832 45.3711C539.793 45.3711 539.793 45.3711 539.832 45.3711V45.3711Z" fill="#F5D2A3"/>
<path d="M539.832 45.3711C539.793 45.3711 539.793 45.3711 539.832 45.3711" stroke="#262262" stroke-width="0.5" stroke-miterlimit="10"/>
<path d="M509.304 16.9135C509.304 16.9518 509.304 16.9518 509.304 16.9902C509.266 18.4092 507.271 19.6365 504.242 20.4035C501.595 17.9873 498.719 13.0398 497.185 4.8324C499.639 10.9305 506.926 16.1848 509.304 16.9135Z" fill="#F5D2A3" stroke="#262262" stroke-width="0.5" stroke-miterlimit="10"/>
<path d="M497.185 4.79407C495.689 13.5001 492.928 17.8723 490.934 20.557C487.482 19.8283 485.143 18.4859 485.066 16.9518C485.066 16.9135 485.066 16.9135 485.066 16.8751C487.329 15.9163 494.309 11.6975 497.185 4.79407Z" fill="#F5D2A3" stroke="#262262" stroke-width="0.5" stroke-miterlimit="10"/>
<path d="M490.934 20.5569C487.712 20.5569 485.143 18.9461 485.066 16.9518C485.143 18.4859 487.482 19.8282 490.934 20.5569Z" fill="#F5D2A3" stroke="#262262" stroke-width="0.5" stroke-miterlimit="10"/>
<path d="M490.934 20.5569V30.2218C487.405 29.378 485.066 27.8439 485.066 26.1181V16.9135C485.066 16.9518 485.066 16.9518 485.066 16.9902C485.143 18.9845 487.751 20.5569 490.934 20.5569Z" fill="#F5D2A3" stroke="#262262" stroke-width="0.5" stroke-miterlimit="10"/>
<path d="M504.242 20.4035C502.247 20.9021 499.831 21.2089 497.185 21.2089C494.884 21.2089 492.736 20.9788 490.934 20.5953C492.966 17.9106 495.689 13.5384 497.185 4.8324C498.719 13.0398 501.595 17.949 504.242 20.4035Z" fill="#F5D2A3" stroke="#262262" stroke-width="0.5" stroke-miterlimit="10"/>
<path d="M504.242 20.4034C502.708 21.2855 501.135 21.5924 497.223 21.5924C493.772 21.5924 492.008 21.2088 490.895 20.5952C492.736 20.9787 494.846 21.2088 497.147 21.2088C499.831 21.1705 502.247 20.902 504.242 20.4034Z" fill="#F5D2A3" stroke="#262262" stroke-width="0.5" stroke-miterlimit="10"/>
<path d="M504.242 20.4034V30.0299C502.247 30.6052 499.831 30.912 497.185 30.912C494.884 30.912 492.736 30.6436 490.934 30.2217V20.5569C492.046 21.1705 493.772 21.554 497.262 21.554C501.135 21.554 502.708 21.2856 504.242 20.4034Z" fill="#F5D2A3" stroke="#262262" stroke-width="0.5" stroke-miterlimit="10"/>
<path d="M509.304 16.9901C509.266 18.8694 507.003 20.4035 504.242 20.4035C507.271 19.6364 509.266 18.3708 509.304 16.9901Z" fill="#F5D2A3" stroke="#262262" stroke-width="0.5" stroke-miterlimit="10"/>
<path d="M509.304 16.9135V26.1181C509.304 27.7289 507.31 29.1479 504.242 30.03V20.4035C507.003 20.4035 509.266 18.8694 509.304 16.9902C509.304 16.9518 509.304 16.9518 509.304 16.9135Z" fill="#F5D2A3" stroke="#262262" stroke-width="0.5" stroke-miterlimit="10"/>
<path d="M497.185 4.79397V3.91187" stroke="#262262" stroke-width="0.5" stroke-miterlimit="10"/>
<path d="M501.71 1.68744C499.793 2.03261 499.448 3.60507 497.185 3.87354V0.536865C497.377 0.997096 499.486 1.41897 501.71 1.68744Z" fill="#F5D2A3" stroke="#262262" stroke-width="0.5" stroke-miterlimit="10"/>
<path d="M710.839 198.896C739.052 198.896 761.923 188.439 761.923 175.54C761.923 162.64 739.052 152.183 710.839 152.183C682.627 152.183 659.756 162.64 659.756 175.54C659.756 188.439 682.627 198.896 710.839 198.896Z" fill="#F0512F" stroke="#262262" stroke-width="0.5" stroke-miterlimit="10"/>
<path d="M736.803 151.915C736.803 151.953 736.803 151.991 736.803 152.03C736.688 155.059 732.393 157.744 725.912 159.393C720.159 154.177 713.946 143.515 710.686 125.758C715.94 139.028 731.703 150.342 736.803 151.915Z" fill="#F5D2A3" stroke="#262262" stroke-width="0.5" stroke-miterlimit="10"/>
<path d="M710.648 125.758C707.426 144.589 701.482 154.024 697.148 159.777C689.67 158.166 684.646 155.328 684.531 152.03C684.531 151.991 684.531 151.953 684.531 151.915C689.363 149.728 704.435 140.639 710.648 125.758Z" fill="#F5D2A3" stroke="#262262" stroke-width="0.5" stroke-miterlimit="10"/>
<path d="M697.148 159.815C690.245 159.815 684.607 156.363 684.531 152.068C684.646 155.328 689.67 158.204 697.148 159.815Z" fill="#F5D2A3" stroke="#262262" stroke-width="0.5" stroke-miterlimit="10"/>
<path d="M697.148 159.815V180.641C689.555 178.838 684.531 175.54 684.531 171.781V151.915C684.531 151.953 684.531 151.991 684.531 152.03C684.646 156.363 690.245 159.815 697.148 159.815Z" fill="#F5D2A3" stroke="#262262" stroke-width="0.5" stroke-miterlimit="10"/>
<path d="M725.911 159.393C721.616 160.467 716.362 161.119 710.686 161.119C705.739 161.119 701.137 160.621 697.186 159.815C701.558 154.024 707.465 144.589 710.686 125.797C713.946 143.515 720.159 154.177 725.911 159.393Z" fill="#F5D2A3" stroke="#262262" stroke-width="0.5" stroke-miterlimit="10"/>
<path d="M725.911 159.393C722.575 161.273 719.2 161.963 710.801 161.963C703.323 161.963 699.564 161.119 697.186 159.815C701.137 160.659 705.739 161.119 710.686 161.119C716.362 161.119 721.616 160.506 725.911 159.393Z" fill="#F5D2A3" stroke="#262262" stroke-width="0.5" stroke-miterlimit="10"/>
<path d="M725.911 159.393V180.18C721.616 181.408 716.362 182.136 710.686 182.136C705.739 182.136 701.137 181.599 697.186 180.641V159.777C699.564 161.081 703.361 161.925 710.801 161.925C719.2 161.963 722.537 161.311 725.911 159.393Z" fill="#F5D2A3" stroke="#262262" stroke-width="0.5" stroke-miterlimit="10"/>
<path d="M736.803 152.03C736.688 156.095 731.856 159.393 725.911 159.393C732.431 157.744 736.688 155.098 736.803 152.03Z" fill="#F5D2A3" stroke="#262262" stroke-width="0.5" stroke-miterlimit="10"/>
<path d="M736.803 151.915V171.781C736.803 175.271 732.508 178.339 725.911 180.18V159.393C731.894 159.393 736.727 156.095 736.803 152.03C736.803 151.991 736.803 151.953 736.803 151.915Z" fill="#F5D2A3" stroke="#262262" stroke-width="0.5" stroke-miterlimit="10"/>
<path d="M710.648 125.758V123.84" stroke="#262262" stroke-width="0.5" stroke-miterlimit="10"/>
<path d="M720.427 119.085C716.285 119.813 715.557 123.227 710.648 123.84V116.553C711.031 117.551 715.633 118.471 720.427 119.085Z" fill="#F5D2A3" stroke="#262262" stroke-width="0.5" stroke-miterlimit="10"/>
<path d="M710.648 123.84H710.609H710.648Z" fill="#F5D2A3"/>
<path d="M710.648 123.84H710.609" stroke="#262262" stroke-width="0.5" stroke-miterlimit="10"/>
<path d="M135.456 39.5415V39.5799C135.418 40.5387 134.076 41.3824 132.043 41.881C130.241 40.2319 128.285 36.8952 127.288 31.3724C128.898 35.4762 133.846 39.0429 135.456 39.5415Z" fill="#F5D2A3" stroke="#262262" stroke-width="0.5" stroke-miterlimit="10"/>
<path d="M127.249 31.3724C126.252 37.2404 124.373 40.2319 123.031 42.0344C120.691 41.5359 119.119 40.6538 119.08 39.6182V39.5799C120.614 38.8512 125.293 36.0131 127.249 31.3724Z" fill="#F5D2A3" stroke="#262262" stroke-width="0.5" stroke-miterlimit="10"/>
<path d="M123.031 41.996C120.883 41.996 119.119 40.9222 119.08 39.5798C119.119 40.6154 120.691 41.4975 123.031 41.996Z" fill="#F5D2A3" stroke="#262262" stroke-width="0.5" stroke-miterlimit="10"/>
<path d="M123.031 41.9961V48.516C120.653 47.9407 119.08 46.9052 119.08 45.7546V39.5415V39.5799C119.119 40.9222 120.883 41.9961 123.031 41.9961Z" fill="#F5D2A3" stroke="#262262" stroke-width="0.5" stroke-miterlimit="10"/>
<path d="M132.043 41.8809C130.701 42.2261 129.052 42.4179 127.288 42.4179C125.754 42.4179 124.296 42.2645 123.069 41.996C124.45 40.1934 126.29 37.2403 127.288 31.334C128.285 36.8951 130.241 40.2318 132.043 41.8809Z" fill="#F5D2A3" stroke="#262262" stroke-width="0.5" stroke-miterlimit="10"/>
<path d="M132.043 41.881C131.008 42.4563 129.934 42.6864 127.326 42.6864C124.987 42.6864 123.798 42.4179 123.069 41.996C124.296 42.2645 125.754 42.4179 127.288 42.4179C129.052 42.4179 130.701 42.2262 132.043 41.881Z" fill="#F5D2A3" stroke="#262262" stroke-width="0.5" stroke-miterlimit="10"/>
<path d="M132.043 41.881V48.4009C130.701 48.7844 129.052 49.0146 127.288 49.0146C125.754 49.0146 124.296 48.8612 123.069 48.5543V42.0344C123.798 42.4563 124.987 42.7247 127.326 42.7247C129.934 42.6864 130.969 42.4563 132.043 41.881Z" fill="#F5D2A3" stroke="#262262" stroke-width="0.5" stroke-miterlimit="10"/>
<path d="M135.456 39.5798C135.418 40.8455 133.922 41.881 132.043 41.881C134.076 41.3441 135.418 40.5386 135.456 39.5798Z" fill="#F5D2A3" stroke="#262262" stroke-width="0.5" stroke-miterlimit="10"/>
<path d="M135.456 39.5415V45.7546C135.456 46.8285 134.114 47.7873 132.043 48.4009V41.881C133.922 41.881 135.418 40.8455 135.456 39.5799V39.5415Z" fill="#F5D2A3" stroke="#262262" stroke-width="0.5" stroke-miterlimit="10"/>
<path d="M127.249 31.3724V30.7588" stroke="#262262" stroke-width="0.5" stroke-miterlimit="10"/>
<path d="M130.317 29.263C129.013 29.4931 128.783 30.567 127.249 30.7588V28.496C127.364 28.8028 128.822 29.0713 130.317 29.263Z" fill="#F5D2A3" stroke="#262262" stroke-width="0.5" stroke-miterlimit="10"/>
<path d="M67.268 99.6783C67.268 99.7167 67.268 99.755 67.268 99.7934C67.153 102.325 63.5863 104.549 58.1404 105.93C53.3465 101.558 48.1691 92.6598 45.4078 77.8557C49.8566 88.9013 63.011 98.336 67.268 99.6783Z" fill="#F5D2A3" stroke="#262262" stroke-width="0.5" stroke-miterlimit="10"/>
<path d="M45.4462 77.8174C42.7616 93.5419 37.8143 101.404 34.171 106.237C27.9197 104.894 23.7394 102.516 23.6244 99.7551C23.6244 99.7167 23.6244 99.6783 23.6244 99.64C27.6896 97.8374 40.2305 90.2436 45.4462 77.8174Z" fill="#F5D2A3" stroke="#262262" stroke-width="0.5" stroke-miterlimit="10"/>
<path d="M34.171 106.275C28.3799 106.275 23.7011 103.399 23.6244 99.7935C23.7394 102.516 27.9197 104.933 34.171 106.275Z" fill="#F5D2A3" stroke="#262262" stroke-width="0.5" stroke-miterlimit="10"/>
<path d="M34.171 106.275V123.687C27.843 122.191 23.6244 119.43 23.6244 116.285V99.6783C23.6244 99.7167 23.6244 99.7551 23.6244 99.7934C23.7011 103.36 28.3799 106.275 34.171 106.275Z" fill="#F5D2A3" stroke="#262262" stroke-width="0.5" stroke-miterlimit="10"/>
<path d="M58.1789 105.93C54.6122 106.85 50.2018 107.387 45.4463 107.387C41.3043 107.387 37.4692 106.965 34.171 106.275C37.8144 101.443 42.7617 93.5803 45.4463 77.8557C48.1692 92.6598 53.385 101.558 58.1789 105.93Z" fill="#F5D2A3" stroke="#262262" stroke-width="0.5" stroke-miterlimit="10"/>
<path d="M58.1789 105.93C55.3792 107.502 52.5796 108.078 45.5613 108.078C39.3101 108.078 36.1653 107.387 34.171 106.275C37.4692 106.965 41.3043 107.387 45.4463 107.387C50.2018 107.349 54.5739 106.812 58.1789 105.93Z" fill="#F5D2A3" stroke="#262262" stroke-width="0.5" stroke-miterlimit="10"/>
<path d="M58.1789 105.93V123.304C54.6122 124.339 50.2018 124.914 45.4463 124.914C41.3043 124.914 37.4692 124.454 34.171 123.687V106.275C36.1653 107.387 39.3101 108.078 45.5613 108.078C52.5796 108.039 55.3792 107.502 58.1789 105.93Z" fill="#F5D2A3" stroke="#262262" stroke-width="0.5" stroke-miterlimit="10"/>
<path d="M67.2681 99.7935C67.1914 103.207 63.1262 105.93 58.1405 105.93C63.6247 104.549 67.1914 102.325 67.2681 99.7935Z" fill="#F5D2A3" stroke="#262262" stroke-width="0.5" stroke-miterlimit="10"/>
<path d="M67.2681 99.6783V116.285C67.2681 119.2 63.6631 121.731 58.1405 123.304V105.93C63.1262 105.93 67.153 103.207 67.2681 99.7934C67.2681 99.7551 67.2681 99.7167 67.2681 99.6783Z" fill="#F5D2A3" stroke="#262262" stroke-width="0.5" stroke-miterlimit="10"/>
<path d="M45.4462 77.8174V76.2065" stroke="#262262" stroke-width="0.5" stroke-miterlimit="10"/>
<path d="M53.615 72.2562C50.125 72.8699 49.5497 75.708 45.4462 76.2449V70.1852C45.753 70.9906 49.5881 71.7193 53.615 72.2562Z" fill="#F5D2A3" stroke="#262262" stroke-width="0.5" stroke-miterlimit="10"/>
<path d="M45.4453 76.2065C45.4453 76.2065 45.4091 76.2065 45.4453 76.2065V76.2065Z" fill="#F5D2A3"/>
<path d="M45.4453 76.2065C45.4453 76.2065 45.4091 76.2065 45.4453 76.2065" stroke="#262262" stroke-width="0.5" stroke-miterlimit="10"/>
<path d="M145.965 50.9706H158.122C161.957 50.9706 165.102 54.0771 165.102 57.9508C165.102 61.786 168.208 64.9309 172.082 64.9309H223.856" stroke="#262262" stroke-width="0.5" stroke-miterlimit="10"/>
<path d="M649.784 171.781H615.69C608.058 171.781 601.884 165.606 601.884 157.974V154.523C601.884 146.89 595.709 140.716 588.077 140.716H373.119" stroke="#262262" stroke-width="0.5" stroke-miterlimit="10"/>
<path d="M361.268 85.3728H493.503" stroke="#262262" stroke-width="0.5" stroke-miterlimit="10"/>
<path d="M464.318 28.4576H311.91C307.96 28.4576 304.739 31.6793 304.739 35.6296V42.418" stroke="#262262" stroke-width="0.5" stroke-miterlimit="10"/>
</g>
<defs>
<clipPath id="clip0">
<rect width="762" height="379" fill="white"/>
</clipPath>
</defs>
</svg>
