<svg width="290" height="293" viewBox="0 0 290 293" fill="none" xmlns="http://www.w3.org/2000/svg">
<path d="M153.5 189.357C188.57 189.357 217 176.227 217 160.031C217 143.834 188.57 130.704 153.5 130.704C118.43 130.704 90 143.834 90 160.031C90 176.227 118.43 189.357 153.5 189.357Z" fill="#F0512F" stroke="#262262" stroke-width="0.5" stroke-miterlimit="10"/>
<path d="M81.5 141.457C93.9264 141.457 104 131.391 104 118.974C104 106.556 93.9264 96.49 81.5 96.49C69.0736 96.49 59 106.556 59 118.974C59 131.391 69.0736 141.457 81.5 141.457Z" fill="#F0512F" stroke="#262262" stroke-width="0.5" stroke-miterlimit="10"/>
<path d="M211.523 121.286H186.134C180.075 121.286 175.089 116.322 175.089 110.202C175.089 104.122 180.036 99.1187 186.134 99.1187H211.523C217.582 99.1187 222.568 104.083 222.568 110.202C222.568 116.322 217.582 121.286 211.523 121.286Z" fill="#F0512F" stroke="#262262" stroke-width="0.5" stroke-miterlimit="10"/>
<path d="M189.049 113.243C190.701 113.243 192.04 111.899 192.04 110.241C192.04 108.583 190.701 107.24 189.049 107.24C187.397 107.24 186.058 108.583 186.058 110.241C186.058 111.899 187.397 113.243 189.049 113.243Z" fill="#F0512F" stroke="#262262" stroke-width="0.5" stroke-miterlimit="10"/>
<path d="M198.829 113.243C200.481 113.243 201.82 111.899 201.82 110.241C201.82 108.583 200.481 107.239 198.829 107.239C197.176 107.239 195.837 108.583 195.837 110.241C195.837 111.899 197.176 113.243 198.829 113.243Z" fill="#F0512F" stroke="#262262" stroke-width="0.5" stroke-miterlimit="10"/>
<path d="M208.646 113.243C210.299 113.243 211.638 111.899 211.638 110.241C211.638 108.583 210.299 107.239 208.646 107.239C206.994 107.239 205.655 108.583 205.655 110.241C205.655 111.899 206.994 113.243 208.646 113.243Z" fill="#F0512F" stroke="#262262" stroke-width="0.5" stroke-miterlimit="10"/>
<path d="M191.58 120.516L175.127 161.041L129.605 103.929L145.942 63.712C146.632 62.0187 148.895 61.6723 150.046 63.0963L190.66 114.051C192.079 115.898 192.462 118.361 191.58 120.516Z" fill="#F5D2A3" stroke="#262262" stroke-width="0.5" stroke-miterlimit="10"/>
<path d="M175.127 161.08L128.991 166.776C127.687 166.93 126.421 166.429 125.616 165.39L83.5065 112.588C83.0079 111.973 82.9312 111.357 83.0846 110.818C83.2763 110.125 83.9283 109.587 84.7721 109.51L129.605 103.968L175.127 161.08Z" fill="#F5D2A3" stroke="#262262" stroke-width="0.5" stroke-miterlimit="10"/>
<path d="M160.707 149.072L163.737 152.883L163.584 153.267L158.79 153.883L155.798 150.035L155.952 149.688L160.707 149.072ZM160.784 148.842L155.798 149.496L155.568 150.073L158.713 154.076L163.737 153.421L163.967 152.844L160.784 148.842Z" fill="#262262"/>
<path d="M155.837 149.88L158.79 153.575L158.867 153.652H158.982L163.66 153.074L163.584 153.267L158.79 153.883L155.798 150.034L155.837 149.88ZM155.798 149.495L155.568 150.073L158.713 154.075L163.737 153.421L163.967 152.844L158.943 153.459L155.798 149.495Z" fill="#262262"/>
<path d="M158.943 153.46L158.713 153.998" stroke="#262262" stroke-width="0.5" stroke-miterlimit="10"/>
<path d="M154.073 149.688L157.102 153.498L156.949 153.883L152.155 154.499L149.164 150.65L149.317 150.304L154.073 149.688ZM154.149 149.496L149.164 150.15L148.934 150.727L152.078 154.73L157.102 154.076L157.333 153.498L154.149 149.496Z" fill="#262262"/>
<path d="M149.202 150.496L152.155 154.191L152.232 154.268H152.347L157.026 153.691L156.949 153.883L152.155 154.499L149.164 150.65L149.202 150.496ZM149.164 150.111L148.934 150.689L152.078 154.691L157.102 154.037L157.333 153.46L152.308 154.075L149.164 150.111Z" fill="#262262"/>
<path d="M152.309 154.075L152.078 154.652" stroke="#262262" stroke-width="0.5" stroke-miterlimit="10"/>
<path d="M147.477 150.342L150.506 154.152L150.353 154.537L145.559 155.153L142.568 151.304L142.721 150.958L147.477 150.342ZM147.553 150.111L142.568 150.766L142.337 151.343L145.482 155.345L150.506 154.691L150.736 154.114L147.553 150.111Z" fill="#262262"/>
<path d="M142.606 151.15L145.559 154.845L145.635 154.922H145.75L150.429 154.345L150.353 154.537L145.559 155.153L142.567 151.304L142.606 151.15ZM142.529 150.766L142.299 151.343L145.444 155.345L150.468 154.691L150.698 154.114L145.674 154.73L142.529 150.766Z" fill="#262262"/>
<path d="M145.712 154.73L145.482 155.269" stroke="#262262" stroke-width="0.5" stroke-miterlimit="10"/>
<path d="M140.841 150.958L143.871 154.768L143.718 155.153L138.924 155.769L135.933 151.92L136.086 151.574L140.841 150.958ZM140.918 150.766L135.933 151.42L135.702 151.997L138.847 156L143.871 155.345L144.101 154.768L140.918 150.766Z" fill="#262262"/>
<path d="M135.971 151.766L138.924 155.46L139.001 155.537H139.116L143.795 154.96L143.718 155.153L138.924 155.768L135.933 151.92L135.971 151.766ZM135.933 151.419L135.702 151.997L138.847 155.999L143.871 155.345L144.101 154.768L139.077 155.384L135.933 151.419Z" fill="#262262"/>
<path d="M139.077 155.345L138.847 155.923" stroke="#262262" stroke-width="0.5" stroke-miterlimit="10"/>
<path d="M134.207 151.612L137.237 155.422L137.083 155.807L132.289 156.423L129.298 152.574L129.451 152.228L134.207 151.612ZM134.283 151.42L129.298 152.074L129.068 152.651L132.213 156.654L137.237 156L137.467 155.422L134.283 151.42Z" fill="#262262"/>
<path d="M129.336 152.42L132.289 156.115L132.366 156.192H132.481L137.16 155.615L137.083 155.807L132.289 156.423L129.298 152.574L129.336 152.42ZM129.298 152.035L129.068 152.613L132.213 156.615L137.237 155.961L137.467 155.384L132.443 155.999L129.298 152.035Z" fill="#262262"/>
<path d="M132.443 156L132.213 156.577" stroke="#262262" stroke-width="0.5" stroke-miterlimit="10"/>
<path d="M156.489 143.762L159.519 147.572L159.365 147.956L154.571 148.572L151.58 144.724L151.733 144.377L156.489 143.762ZM156.604 143.569L151.618 144.223L151.388 144.801L154.533 148.803L159.557 148.149L159.787 147.572L156.604 143.569Z" fill="#262262"/>
<path d="M151.656 144.569L154.609 148.264L154.686 148.341H154.801L159.48 147.764L159.403 147.956L154.609 148.572L151.618 144.723L151.656 144.569ZM151.58 144.185L151.35 144.762L154.494 148.764L159.518 148.11L159.749 147.533L154.725 148.148L151.58 144.185Z" fill="#262262"/>
<path d="M154.763 148.149L154.533 148.726" stroke="#262262" stroke-width="0.5" stroke-miterlimit="10"/>
<path d="M149.892 144.377L152.922 148.187L152.769 148.572L147.975 149.188L144.983 145.339L145.137 144.993L149.892 144.377ZM149.969 144.185L144.983 144.839L144.753 145.416L147.898 149.419L152.922 148.765L153.152 148.187L149.969 144.185Z" fill="#262262"/>
<path d="M145.022 145.185L147.975 148.88L148.051 148.957H148.167L152.845 148.38L152.769 148.572L147.975 149.188L144.983 145.339L145.022 145.185ZM144.983 144.839L144.753 145.416L147.898 149.419L152.922 148.764L153.152 148.187L148.128 148.803L144.983 144.839Z" fill="#262262"/>
<path d="M148.128 148.803L147.898 149.342" stroke="#262262" stroke-width="0.5" stroke-miterlimit="10"/>
<path d="M143.258 145.032L146.287 148.842L146.134 149.226L141.34 149.842L138.349 145.994L138.502 145.647L143.258 145.032ZM143.334 144.839L138.349 145.493L138.119 146.071L141.263 150.073L146.287 149.419L146.517 148.842L143.334 144.839Z" fill="#262262"/>
<path d="M138.387 145.84L141.34 149.534L141.417 149.611H141.532L146.211 149.034L146.134 149.226L141.34 149.842L138.349 145.994L138.387 145.84ZM138.349 145.455L138.119 146.032L141.263 150.034L146.287 149.38L146.517 148.803L141.493 149.419L138.349 145.455Z" fill="#262262"/>
<path d="M141.493 149.419L141.263 149.996" stroke="#262262" stroke-width="0.5" stroke-miterlimit="10"/>
<path d="M136.623 145.685L139.653 149.496L139.5 149.88L134.706 150.496L131.714 146.648L131.868 146.301L136.623 145.685ZM136.738 145.455L131.753 146.109L131.522 146.686L134.667 150.689L139.691 150.034L139.921 149.457L136.738 145.455Z" fill="#262262"/>
<path d="M131.791 146.493L134.744 150.188L134.82 150.265H134.935L139.614 149.688L139.538 149.88L134.744 150.496L131.752 146.647L131.791 146.493ZM131.714 146.108L131.484 146.686L134.629 150.688L139.653 150.034L139.883 149.457L134.859 150.072L131.714 146.108Z" fill="#262262"/>
<path d="M134.859 150.073L134.629 150.611" stroke="#262262" stroke-width="0.5" stroke-miterlimit="10"/>
<path d="M130.027 146.302L133.056 150.112L132.903 150.496L128.109 151.112L125.118 147.264L125.271 146.917L130.027 146.302ZM130.103 146.109L125.118 146.763L124.888 147.341L128.032 151.343L133.056 150.689L133.287 150.112L130.103 146.109Z" fill="#262262"/>
<path d="M125.156 147.109L128.109 150.804L128.186 150.881H128.301L132.98 150.304L132.903 150.496L128.109 151.112L125.118 147.263L125.156 147.109ZM125.079 146.725L124.849 147.302L127.994 151.304L133.018 150.65L133.248 150.073L128.224 150.688L125.079 146.725Z" fill="#262262"/>
<path d="M128.262 150.689L128.032 151.266" stroke="#262262" stroke-width="0.5" stroke-miterlimit="10"/>
<path d="M152.308 138.45L155.338 142.261L155.185 142.645L150.391 143.261L147.4 139.413L147.553 139.066L152.308 138.45ZM152.385 138.258L147.4 138.912L147.169 139.49L150.314 143.492L155.338 142.838L155.568 142.261L152.385 138.258Z" fill="#262262"/>
<path d="M147.438 139.258L150.391 142.953L150.468 143.03H150.583L155.262 142.453L155.185 142.645L150.391 143.261L147.4 139.412L147.438 139.258ZM147.4 138.874L147.169 139.451L150.314 143.453L155.338 142.799L155.568 142.222L150.544 142.837L147.4 138.874Z" fill="#262262"/>
<path d="M150.544 142.838L150.314 143.415" stroke="#262262" stroke-width="0.5" stroke-miterlimit="10"/>
<path d="M145.674 139.105L148.703 142.915L148.55 143.3L143.756 143.915L140.765 140.067L140.918 139.72L145.674 139.105ZM145.75 138.874L140.765 139.528L140.535 140.105L143.679 144.108L148.703 143.453L148.934 142.876L145.75 138.874Z" fill="#262262"/>
<path d="M140.841 139.913L143.794 143.607L143.871 143.684H143.986L148.665 143.107L148.55 143.261L143.756 143.877L140.765 140.028L140.841 139.913ZM140.765 139.528L140.535 140.105L143.679 144.108L148.703 143.453L148.934 142.876L143.91 143.492L140.765 139.528Z" fill="#262262"/>
<path d="M143.91 143.492L143.679 144.069" stroke="#262262" stroke-width="0.5" stroke-miterlimit="10"/>
<path d="M139.078 139.721L142.107 143.531L141.954 143.916L137.16 144.531L134.169 140.683L134.322 140.337L139.078 139.721ZM139.154 139.528L134.169 140.183L133.938 140.76L137.083 144.762L142.107 144.108L142.337 143.531L139.154 139.528Z" fill="#262262"/>
<path d="M134.207 140.528L137.16 144.223L137.236 144.3H137.351L142.03 143.722L141.954 143.915L137.16 144.531L134.168 140.682L134.207 140.528ZM134.13 140.182L133.9 140.759L137.045 144.762L142.069 144.107L142.299 143.53L137.275 144.146L134.13 140.182Z" fill="#262262"/>
<path d="M137.313 144.108L137.083 144.685" stroke="#262262" stroke-width="0.5" stroke-miterlimit="10"/>
<path d="M132.443 140.375L135.472 144.185L135.319 144.57L130.525 145.185L127.534 141.337L127.687 140.99L132.443 140.375ZM132.519 140.182L127.534 140.836L127.303 141.414L130.448 145.416L135.472 144.762L135.702 144.185L132.519 140.182Z" fill="#262262"/>
<path d="M127.572 141.182L130.525 144.877L130.602 144.954H130.717L135.396 144.377L135.319 144.569L130.525 145.185L127.534 141.336L127.572 141.182ZM127.534 140.798L127.303 141.375L130.448 145.377L135.472 144.723L135.702 144.146L130.678 144.762L127.534 140.798Z" fill="#262262"/>
<path d="M130.678 144.762L130.448 145.339" stroke="#262262" stroke-width="0.5" stroke-miterlimit="10"/>
<path d="M125.808 140.99L128.838 144.8L128.684 145.185L123.89 145.801L120.899 141.952L121.052 141.606L125.808 140.99ZM125.885 140.798L120.899 141.452L120.669 142.029L123.814 146.032L128.838 145.378L129.068 144.8L125.885 140.798Z" fill="#262262"/>
<path d="M120.937 141.837L123.89 145.531L123.967 145.608H124.082L128.761 145.031L128.684 145.223L123.89 145.839L120.899 141.991L120.937 141.837ZM120.899 141.452L120.669 142.029L123.814 146.032L128.838 145.377L129.068 144.8L124.044 145.416L120.899 141.452Z" fill="#262262"/>
<path d="M124.044 145.416L123.814 145.955" stroke="#262262" stroke-width="0.5" stroke-miterlimit="10"/>
<path d="M148.129 133.178L151.158 136.988L151.005 137.373L146.211 137.989L143.22 134.14L143.373 133.794L148.129 133.178ZM148.205 132.947L143.22 133.602L142.989 134.179L146.134 138.181L151.158 137.527L151.388 136.95L148.205 132.947Z" fill="#262262"/>
<path d="M143.258 133.986L146.211 137.681L146.287 137.758H146.402L151.081 137.18L151.005 137.373L146.211 137.988L143.219 134.14L143.258 133.986ZM143.181 133.601L142.951 134.179L146.096 138.181L151.12 137.527L151.35 136.949L146.326 137.565L143.181 133.601Z" fill="#262262"/>
<path d="M146.364 137.565L146.134 138.104" stroke="#262262" stroke-width="0.5" stroke-miterlimit="10"/>
<path d="M141.494 133.794L144.523 137.604L144.37 137.989L139.576 138.604L136.585 134.756L136.738 134.41L141.494 133.794ZM141.57 133.601L136.585 134.256L136.354 134.833L139.499 138.835L144.523 138.181L144.753 137.604L141.57 133.601Z" fill="#262262"/>
<path d="M136.623 134.602L139.576 138.296L139.653 138.373H139.768L144.447 137.796L144.37 137.989L139.576 138.604L136.585 134.756L136.623 134.602ZM136.585 134.217L136.354 134.794L139.499 138.797L144.523 138.142L144.753 137.565L139.729 138.181L136.585 134.217Z" fill="#262262"/>
<path d="M139.729 138.181L139.499 138.758" stroke="#262262" stroke-width="0.5" stroke-miterlimit="10"/>
<path d="M134.859 134.448L137.888 138.258L137.735 138.643L132.941 139.258L129.95 135.41L130.103 135.063L134.859 134.448ZM134.935 134.217L129.95 134.871L129.72 135.448L132.864 139.451L137.888 138.797L138.119 138.219L134.935 134.217Z" fill="#262262"/>
<path d="M129.988 135.256L132.941 138.95L133.018 139.027H133.133L137.812 138.45L137.735 138.642L132.941 139.258L129.95 135.41L129.988 135.256ZM129.95 134.871L129.72 135.448L132.864 139.451L137.888 138.796L138.119 138.219L133.095 138.835L129.95 134.871Z" fill="#262262"/>
<path d="M133.095 138.835L132.864 139.374" stroke="#262262" stroke-width="0.5" stroke-miterlimit="10"/>
<path d="M128.224 135.064L131.254 138.874L131.101 139.259L126.307 139.874L123.315 136.026L123.469 135.68L128.224 135.064ZM128.339 134.871L123.354 135.526L123.124 136.103L126.268 140.105L131.292 139.451L131.522 138.874L128.339 134.871Z" fill="#262262"/>
<path d="M123.392 135.871L126.345 139.566L126.421 139.643H126.536L131.215 139.066L131.139 139.258L126.345 139.874L123.353 136.025L123.392 135.871ZM123.315 135.487L123.085 136.064L126.23 140.066L131.254 139.412L131.484 138.835L126.46 139.451L123.315 135.487Z" fill="#262262"/>
<path d="M126.46 139.451L126.23 140.028" stroke="#262262" stroke-width="0.5" stroke-miterlimit="10"/>
<path d="M121.628 135.718L124.657 139.528L124.504 139.913L119.71 140.529L116.719 136.68L116.872 136.334L121.628 135.718ZM121.704 135.487L116.719 136.141L116.489 136.719L119.633 140.721L124.657 140.067L124.887 139.49L121.704 135.487Z" fill="#262262"/>
<path d="M116.757 136.526L119.71 140.22L119.787 140.297H119.902L124.581 139.72L124.504 139.913L119.71 140.528L116.719 136.68L116.757 136.526ZM116.719 136.141L116.489 136.718L119.633 140.721L124.657 140.067L124.887 139.489L119.863 140.105L116.719 136.141Z" fill="#262262"/>
<path d="M119.863 140.105L119.633 140.683" stroke="#262262" stroke-width="0.5" stroke-miterlimit="10"/>
<path d="M143.91 127.867L146.939 131.677L146.786 132.062L141.992 132.678L139.001 128.829L139.154 128.483L143.91 127.867ZM143.986 127.675L139.001 128.329L138.77 128.906L141.915 132.909L146.939 132.254L147.169 131.677L143.986 127.675Z" fill="#262262"/>
<path d="M139.039 128.675L141.992 132.37L142.069 132.447H142.184L146.863 131.869L146.786 132.062L141.992 132.678L139.001 128.829L139.039 128.675ZM139.001 128.29L138.77 128.868L141.915 132.87L146.939 132.216L147.169 131.638L142.145 132.254L139.001 128.29Z" fill="#262262"/>
<path d="M142.145 132.254L141.915 132.831" stroke="#262262" stroke-width="0.5" stroke-miterlimit="10"/>
<path d="M137.275 128.483L140.305 132.293L140.151 132.678L135.357 133.293L132.366 129.445L132.519 129.098L137.275 128.483ZM137.352 128.29L132.366 128.945L132.136 129.522L135.281 133.524L140.305 132.87L140.535 132.293L137.352 128.29Z" fill="#262262"/>
<path d="M132.443 129.29L135.396 132.985L135.472 133.062H135.587L140.266 132.485L140.19 132.677L135.396 133.293L132.404 129.444L132.443 129.29ZM132.366 128.944L132.136 129.521L135.281 133.524L140.305 132.87L140.535 132.292L135.511 132.908L132.366 128.944Z" fill="#262262"/>
<path d="M135.511 132.909L135.281 133.447" stroke="#262262" stroke-width="0.5" stroke-miterlimit="10"/>
<path d="M130.679 129.137L133.708 132.947L133.555 133.332L128.761 133.948L125.77 130.099L125.923 129.753L130.679 129.137ZM130.755 128.945L125.77 129.599L125.54 130.176L128.684 134.179L133.708 133.524L133.939 132.947L130.755 128.945Z" fill="#262262"/>
<path d="M125.808 129.945L128.761 133.64L128.838 133.717H128.953L133.631 133.139L133.555 133.332L128.761 133.948L125.769 130.099L125.808 129.945ZM125.731 129.56L125.501 130.138L128.646 134.14L133.67 133.486L133.9 132.909L128.876 133.524L125.731 129.56Z" fill="#262262"/>
<path d="M128.914 133.524L128.684 134.102" stroke="#262262" stroke-width="0.5" stroke-miterlimit="10"/>
<path d="M124.044 129.791L127.073 133.601L126.92 133.986L122.126 134.602L119.135 130.754L119.288 130.407L124.044 129.791ZM124.12 129.561L119.135 130.215L118.905 130.792L122.049 134.795L127.073 134.14L127.304 133.563L124.12 129.561Z" fill="#262262"/>
<path d="M119.173 130.599L122.126 134.294L122.203 134.371H122.318L126.997 133.793L126.92 133.986L122.126 134.602L119.135 130.753L119.173 130.599ZM119.135 130.214L118.905 130.792L122.049 134.794L127.073 134.14L127.304 133.563L122.279 134.178L119.135 130.214Z" fill="#262262"/>
<path d="M122.28 134.178L122.049 134.717" stroke="#262262" stroke-width="0.5" stroke-miterlimit="10"/>
<path d="M117.409 130.407L120.439 134.217L120.285 134.602L115.491 135.217L112.5 131.369L112.653 131.023L117.409 130.407ZM117.486 130.214L112.5 130.869L112.27 131.446L115.415 135.448L120.439 134.794L120.669 134.217L117.486 130.214Z" fill="#262262"/>
<path d="M112.538 131.215L115.491 134.91L115.568 134.987H115.683L120.362 134.409L120.285 134.602L115.491 135.217L112.5 131.369L112.538 131.215ZM112.5 130.83L112.27 131.407L115.415 135.41L120.439 134.756L120.669 134.178L115.645 134.794L112.5 130.83Z" fill="#262262"/>
<path d="M115.645 134.794L115.415 135.371" stroke="#262262" stroke-width="0.5" stroke-miterlimit="10"/>
<path d="M139.73 122.556L142.759 126.366L142.606 126.751L137.812 127.367L134.821 123.518L134.974 123.172L139.73 122.556ZM139.806 122.364L134.821 123.018L134.59 123.595L137.735 127.598L142.759 126.944L142.989 126.366L139.806 122.364Z" fill="#262262"/>
<path d="M134.859 123.364L137.812 127.059L137.888 127.136H138.003L142.682 126.559L142.606 126.751L137.812 127.367L134.82 123.518L134.859 123.364ZM134.782 122.979L134.552 123.557L137.697 127.559L142.721 126.905L142.951 126.328L137.927 126.943L134.782 122.979Z" fill="#262262"/>
<path d="M137.965 126.944L137.735 127.521" stroke="#262262" stroke-width="0.5" stroke-miterlimit="10"/>
<path d="M133.095 123.21L136.124 127.02L135.971 127.405L131.177 128.021L128.186 124.173L128.339 123.826L133.095 123.21ZM133.171 122.979L128.186 123.634L127.955 124.211L131.1 128.213L136.124 127.559L136.354 126.982L133.171 122.979Z" fill="#262262"/>
<path d="M128.224 124.018L131.177 127.713L131.254 127.79H131.369L136.048 127.212L135.971 127.405L131.177 128.021L128.186 124.172L128.224 124.018ZM128.186 123.633L127.955 124.211L131.1 128.213L136.124 127.559L136.354 126.982L131.33 127.597L128.186 123.633Z" fill="#262262"/>
<path d="M131.33 127.597L131.1 128.175" stroke="#262262" stroke-width="0.5" stroke-miterlimit="10"/>
<path d="M126.46 123.826L129.49 127.636L129.336 128.021L124.542 128.637L121.551 124.788L121.704 124.442L126.46 123.826ZM126.536 123.634L121.551 124.288L121.321 124.865L124.466 128.868L129.49 128.213L129.72 127.636L126.536 123.634Z" fill="#262262"/>
<path d="M121.589 124.634L124.542 128.329L124.619 128.406H124.734L129.413 127.829L129.336 128.021L124.542 128.637L121.551 124.788L121.589 124.634ZM121.551 124.288L121.321 124.865L124.466 128.868L129.49 128.213L129.72 127.636L124.696 128.252L121.551 124.288Z" fill="#262262"/>
<path d="M124.696 128.213L124.466 128.79" stroke="#262262" stroke-width="0.5" stroke-miterlimit="10"/>
<path d="M119.825 124.481L122.855 128.291L122.702 128.675L117.908 129.291L114.916 125.443L115.07 125.096L119.825 124.481ZM119.94 124.288L114.955 124.942L114.725 125.52L117.869 129.522L122.893 128.868L123.123 128.291L119.94 124.288Z" fill="#262262"/>
<path d="M114.993 125.289L117.946 128.983L118.023 129.06H118.138L122.816 128.483L122.74 128.675L117.946 129.291L114.954 125.443L114.993 125.289ZM114.916 124.904L114.686 125.481L117.831 129.483L122.855 128.829L123.085 128.252L118.061 128.868L114.916 124.904Z" fill="#262262"/>
<path d="M118.061 128.868L117.869 129.445" stroke="#262262" stroke-width="0.5" stroke-miterlimit="10"/>
<path d="M113.229 125.096L116.258 128.906L116.105 129.291L111.311 129.907L108.32 126.058L108.473 125.712L113.229 125.096ZM113.305 124.904L108.32 125.558L108.09 126.135L111.234 130.138L116.258 129.483L116.488 128.906L113.305 124.904Z" fill="#262262"/>
<path d="M108.358 125.904L111.311 129.598L111.388 129.675H111.503L116.182 129.098L116.105 129.291L111.311 129.906L108.32 126.058L108.358 125.904ZM108.32 125.558L108.09 126.135L111.234 130.137L116.258 129.483L116.488 128.906L111.464 129.521L108.32 125.558Z" fill="#262262"/>
<path d="M111.464 129.522L111.234 130.06" stroke="#262262" stroke-width="0.5" stroke-miterlimit="10"/>
<path d="M135.511 117.284L138.54 121.094L138.387 121.479L133.593 122.094L130.602 118.246L130.755 117.899L135.511 117.284ZM135.587 117.053L130.602 117.707L130.372 118.284L133.516 122.287L138.54 121.632L138.771 121.055L135.587 117.053Z" fill="#262262"/>
<path d="M130.64 118.092L133.593 121.786L133.67 121.863H133.785L138.464 121.286L138.387 121.478L133.593 122.094L130.602 118.246L130.64 118.092ZM130.602 117.707L130.372 118.284L133.516 122.287L138.54 121.632L138.771 121.055L133.747 121.671L130.602 117.707Z" fill="#262262"/>
<path d="M133.746 121.671L133.516 122.21" stroke="#262262" stroke-width="0.5" stroke-miterlimit="10"/>
<path d="M128.876 117.899L131.906 121.709L131.752 122.094L126.959 122.71L123.967 118.862L124.121 118.515L128.876 117.899ZM128.991 117.707L124.006 118.361L123.775 118.939L126.92 122.941L131.944 122.287L132.174 121.709L128.991 117.707Z" fill="#262262"/>
<path d="M124.044 118.707L126.997 122.402L127.073 122.479H127.188L131.867 121.902L131.791 122.094L126.997 122.71L124.005 118.861L124.044 118.707ZM123.967 118.323L123.737 118.9L126.882 122.902L131.906 122.248L132.136 121.671L127.112 122.287L123.967 118.323Z" fill="#262262"/>
<path d="M127.112 122.287L126.882 122.864" stroke="#262262" stroke-width="0.5" stroke-miterlimit="10"/>
<path d="M122.28 118.554L125.31 122.364L125.156 122.749L120.362 123.364L117.371 119.516L117.524 119.169L122.28 118.554ZM122.356 118.323L117.371 118.977L117.141 119.554L120.286 123.557L125.31 122.903L125.54 122.325L122.356 118.323Z" fill="#262262"/>
<path d="M117.409 119.362L120.362 123.056L120.439 123.133H120.554L125.233 122.556L125.156 122.748L120.362 123.364L117.371 119.516L117.409 119.362ZM117.332 118.977L117.102 119.554L120.247 123.556L125.271 122.902L125.501 122.325L120.477 122.941L117.332 118.977Z" fill="#262262"/>
<path d="M120.515 122.941L120.285 123.48" stroke="#262262" stroke-width="0.5" stroke-miterlimit="10"/>
<path d="M115.645 119.169L118.674 122.98L118.521 123.364L113.727 123.98L110.736 120.132L110.889 119.785L115.645 119.169ZM115.721 118.977L110.736 119.631L110.506 120.209L113.65 124.211L118.674 123.557L118.905 122.98L115.721 118.977Z" fill="#262262"/>
<path d="M110.774 119.978L113.727 123.672L113.804 123.749H113.919L118.598 123.172L118.521 123.364L113.727 123.98L110.736 120.132L110.774 119.978ZM110.736 119.593L110.506 120.17L113.65 124.172L118.674 123.518L118.905 122.941L113.881 123.557L110.736 119.593Z" fill="#262262"/>
<path d="M113.881 123.557L113.65 124.134" stroke="#262262" stroke-width="0.5" stroke-miterlimit="10"/>
<path d="M109.01 119.823L112.04 123.634L111.886 124.018L107.092 124.634L104.101 120.786L104.254 120.439L109.01 119.823ZM109.087 119.593L104.101 120.247L103.871 120.824L107.016 124.827L112.04 124.172L112.27 123.595L109.087 119.593Z" fill="#262262"/>
<path d="M104.139 120.632L107.092 124.326L107.169 124.403H107.284L111.963 123.826L111.886 124.018L107.092 124.634L104.101 120.786L104.139 120.632ZM104.101 120.247L103.871 120.824L107.016 124.827L112.04 124.172L112.27 123.595L107.246 124.211L104.101 120.247Z" fill="#262262"/>
<path d="M107.246 124.211L107.016 124.788" stroke="#262262" stroke-width="0.5" stroke-miterlimit="10"/>
<path d="M131.331 111.973L134.36 115.783L134.207 116.168L129.413 116.783L126.422 112.935L126.575 112.588L131.331 111.973ZM131.407 111.78L126.422 112.435L126.192 113.012L129.336 117.014L134.36 116.36L134.59 115.783L131.407 111.78Z" fill="#262262"/>
<path d="M126.46 112.78L129.413 116.475L129.489 116.552H129.605L134.283 115.975L134.207 116.167L129.413 116.783L126.421 112.934L126.46 112.78ZM126.383 112.396L126.153 112.973L129.298 116.975L134.322 116.321L134.552 115.744L129.528 116.36L126.383 112.396Z" fill="#262262"/>
<path d="M129.566 116.36L129.336 116.937" stroke="#262262" stroke-width="0.5" stroke-miterlimit="10"/>
<path d="M124.696 112.588L127.725 116.398L127.572 116.783L122.778 117.399L119.787 113.551L119.94 113.204L124.696 112.588ZM124.772 112.396L119.787 113.05L119.557 113.628L122.701 117.63L127.725 116.976L127.956 116.398L124.772 112.396Z" fill="#262262"/>
<path d="M119.825 113.397L122.778 117.091L122.855 117.168H122.97L127.649 116.591L127.572 116.784L122.778 117.399L119.787 113.551L119.825 113.397ZM119.787 113.05L119.557 113.628L122.701 117.63L127.725 116.976L127.956 116.399L122.932 117.014L119.787 113.05Z" fill="#262262"/>
<path d="M122.931 117.014L122.701 117.553" stroke="#262262" stroke-width="0.5" stroke-miterlimit="10"/>
<path d="M118.061 113.242L121.091 117.053L120.937 117.437L116.143 118.053L113.152 114.205L113.305 113.858L118.061 113.242ZM118.138 113.05L113.152 113.704L112.922 114.282L116.067 118.284L121.091 117.63L121.321 117.053L118.138 113.05Z" fill="#262262"/>
<path d="M113.19 114.051L116.143 117.745L116.22 117.822H116.335L121.014 117.245L120.937 117.437L116.143 118.053L113.152 114.205L113.19 114.051ZM113.152 113.666L112.922 114.243L116.067 118.246L121.091 117.591L121.321 117.014L116.297 117.63L113.152 113.666Z" fill="#262262"/>
<path d="M116.297 117.63L116.067 118.207" stroke="#262262" stroke-width="0.5" stroke-miterlimit="10"/>
<path d="M111.426 113.897L114.456 117.707L114.303 118.092L109.509 118.707L106.517 114.859L106.671 114.512L111.426 113.897ZM111.541 113.666L106.556 114.32L106.326 114.897L109.47 118.9L114.494 118.246L114.725 117.668L111.541 113.666Z" fill="#262262"/>
<path d="M106.594 114.704L109.547 118.399L109.624 118.476H109.739L114.417 117.899L114.341 118.091L109.547 118.707L106.555 114.858L106.594 114.704ZM106.517 114.32L106.287 114.897L109.432 118.899L114.456 118.245L114.686 117.668L109.662 118.284L106.517 114.32Z" fill="#262262"/>
<path d="M109.7 118.284L109.47 118.823" stroke="#262262" stroke-width="0.5" stroke-miterlimit="10"/>
<path d="M104.83 114.512L107.859 118.323L107.706 118.707L102.912 119.323L99.9208 115.475L100.074 115.128L104.83 114.512ZM104.906 114.32L99.9208 114.974L99.6906 115.552L102.835 119.554L107.859 118.9L108.09 118.323L104.906 114.32Z" fill="#262262"/>
<path d="M99.9591 115.32L102.912 119.015L102.989 119.092H103.104L107.783 118.515L107.706 118.707L102.912 119.323L99.9208 115.474L99.9591 115.32ZM99.9208 114.936L99.6906 115.513L102.835 119.515L107.859 118.861L108.09 118.284L103.066 118.899L99.9208 114.936Z" fill="#262262"/>
<path d="M103.065 118.9L102.835 119.477" stroke="#262262" stroke-width="0.5" stroke-miterlimit="10"/>
<path d="M187.4 118.477L174.475 150.342C174.092 151.266 172.865 151.458 172.213 150.689L134.514 104.006C134.207 103.621 134.13 103.121 134.322 102.659L147.553 70.1005C147.936 69.1384 149.202 68.9845 149.816 69.7927L187.246 117.13C187.515 117.514 187.592 118.015 187.4 118.477Z" fill="#F5D2A3" stroke="#262262" stroke-width="0.5" stroke-miterlimit="10"/>
<path d="M175.127 161.08L174.207 163.312C173.9 164.082 173.21 164.582 172.404 164.697L126.728 170.586C125.654 170.74 124.619 170.278 123.967 169.47L82.3176 116.591C81.6656 115.744 81.5122 114.628 81.8957 113.666L83.0462 110.818C82.8928 111.357 83.0079 111.973 83.4681 112.588L125.539 165.39C126.345 166.429 127.649 166.93 128.914 166.776L175.127 161.08Z" fill="#F5D2A3" stroke="#262262" stroke-width="0.5" stroke-miterlimit="10"/>
<path d="M47.5 292C73.1812 292 94 282.371 94 270.494C94 258.616 73.1812 248.988 47.5 248.988C21.8187 248.988 1 258.616 1 270.494C1 282.371 21.8187 292 47.5 292Z" fill="#F0512F" stroke="#262262" stroke-width="0.5" stroke-miterlimit="10"/>
<path d="M257.5 66.2216C269.374 66.2216 279 61.7289 279 56.187C279 50.645 269.374 46.1523 257.5 46.1523C245.626 46.1523 236 50.645 236 56.187C236 61.7289 245.626 66.2216 257.5 66.2216Z" fill="#F0512F" stroke="#262262" stroke-width="0.5" stroke-miterlimit="10"/>
<path d="M268.364 45.2101C268.364 45.234 268.364 45.2579 268.364 45.2579C268.316 46.5493 266.481 47.6971 263.717 48.4145C261.263 46.1666 258.618 41.6231 257.212 34.0186C259.475 39.6861 266.196 44.5405 268.364 45.2101Z" fill="#F5D2A3" stroke="#262262" stroke-width="0.5" stroke-miterlimit="10"/>
<path d="M257.235 34.0186C255.853 42.0774 253.327 46.1187 251.468 48.5818C248.275 47.9122 246.13 46.6687 246.083 45.2578C246.083 45.2339 246.083 45.21 246.083 45.21C248.156 44.3013 254.566 40.4034 257.235 34.0186Z" fill="#F5D2A3" stroke="#262262" stroke-width="0.5" stroke-miterlimit="10"/>
<path d="M251.468 48.6059C248.513 48.6059 246.13 47.1233 246.083 45.282C246.13 46.6928 248.275 47.9124 251.468 48.6059Z" fill="#F5D2A3" stroke="#262262" stroke-width="0.5" stroke-miterlimit="10"/>
<path d="M251.468 48.6057V57.5255C248.228 56.7603 246.083 55.3494 246.083 53.7232V45.21C246.083 45.2339 246.083 45.2578 246.083 45.2578C246.13 47.1231 248.513 48.6057 251.468 48.6057Z" fill="#F5D2A3" stroke="#262262" stroke-width="0.5" stroke-miterlimit="10"/>
<path d="M263.717 48.4146C261.882 48.869 259.642 49.156 257.212 49.156C255.091 49.156 253.137 48.9407 251.445 48.582C253.303 46.1189 255.829 42.0775 257.212 34.0186C258.618 41.6231 261.263 46.1907 263.717 48.4146Z" fill="#F5D2A3" stroke="#262262" stroke-width="0.5" stroke-miterlimit="10"/>
<path d="M263.717 48.4385C262.287 49.2516 260.858 49.5386 257.259 49.5386C254.066 49.5386 252.469 49.1799 251.445 48.6059C253.137 48.9646 255.091 49.1799 257.212 49.1799C259.642 49.1559 261.882 48.8929 263.717 48.4385Z" fill="#F5D2A3" stroke="#262262" stroke-width="0.5" stroke-miterlimit="10"/>
<path d="M263.717 48.4385V57.3344C261.882 57.8605 259.642 58.1714 257.212 58.1714C255.091 58.1714 253.137 57.9323 251.445 57.5257V48.6059C252.446 49.1798 254.066 49.5385 257.259 49.5385C260.858 49.5146 262.287 49.2276 263.717 48.4385Z" fill="#F5D2A3" stroke="#262262" stroke-width="0.5" stroke-miterlimit="10"/>
<path d="M268.364 45.282C268.316 47.0276 266.267 48.4384 263.717 48.4384C266.505 47.7211 268.316 46.5733 268.364 45.282Z" fill="#F5D2A3" stroke="#262262" stroke-width="0.5" stroke-miterlimit="10"/>
<path d="M268.364 45.21V53.7232C268.364 55.2059 266.529 56.5211 263.717 57.3342V48.4383C266.267 48.4383 268.316 47.0274 268.364 45.2817C268.364 45.2578 268.364 45.2339 268.364 45.21Z" fill="#F5D2A3" stroke="#262262" stroke-width="0.5" stroke-miterlimit="10"/>
<path d="M257.235 34.019V33.2058" stroke="#262262" stroke-width="0.5" stroke-miterlimit="10"/>
<path d="M261.382 31.173C259.618 31.4839 259.309 32.9426 257.212 33.2057V30.0969C257.378 30.5274 259.332 30.91 261.382 31.173Z" fill="#F5D2A3" stroke="#262262" stroke-width="0.5" stroke-miterlimit="10"/>
<path d="M257.235 33.2058C257.211 33.2058 257.211 33.2058 257.235 33.2058V33.2058Z" fill="#F5D2A3"/>
<path d="M257.235 33.2058C257.211 33.2058 257.211 33.2058 257.235 33.2058" stroke="#262262" stroke-width="0.5" stroke-miterlimit="10"/>
<path d="M191.5 29.0935C199.086 29.0935 205.236 26.2232 205.236 22.6825C205.236 19.1418 199.086 16.2715 191.5 16.2715C183.914 16.2715 177.764 19.1418 177.764 22.6825C177.764 26.2232 183.914 29.0935 191.5 29.0935Z" fill="#F0512F" stroke="#262262" stroke-width="0.5" stroke-miterlimit="10"/>
<path d="M198.441 15.6698C198.441 15.6851 198.441 15.7003 198.441 15.7003C198.41 16.5254 197.238 17.2587 195.472 17.7171C193.904 16.2809 192.214 13.378 191.316 8.51953C192.762 12.1405 197.055 15.242 198.441 15.6698Z" fill="#F5D2A3" stroke="#262262" stroke-width="0.5" stroke-miterlimit="10"/>
<path d="M191.331 8.51953C190.448 13.6683 188.834 16.2503 187.646 17.824C185.606 17.3962 184.236 16.6017 184.206 15.7003C184.206 15.685 184.206 15.6698 184.206 15.6698C185.53 15.0892 189.626 12.5988 191.331 8.51953Z" fill="#F5D2A3" stroke="#262262" stroke-width="0.5" stroke-miterlimit="10"/>
<path d="M187.647 17.8391C185.759 17.8391 184.236 16.8918 184.206 15.7153C184.236 16.6168 185.606 17.396 187.647 17.8391Z" fill="#F5D2A3" stroke="#262262" stroke-width="0.5" stroke-miterlimit="10"/>
<path d="M187.647 17.8389V23.5377C185.576 23.0488 184.206 22.1474 184.206 21.1085V15.6694C184.206 15.6847 184.206 15.7 184.206 15.7C184.236 16.8917 185.759 17.8389 187.647 17.8389Z" fill="#F5D2A3" stroke="#262262" stroke-width="0.5" stroke-miterlimit="10"/>
<path d="M195.472 17.7169C194.3 18.0072 192.869 18.1905 191.316 18.1905C189.961 18.1905 188.712 18.053 187.631 17.8239C188.819 16.2502 190.433 13.6682 191.316 8.51953C192.214 13.3779 193.904 16.2961 195.472 17.7169Z" fill="#F5D2A3" stroke="#262262" stroke-width="0.5" stroke-miterlimit="10"/>
<path d="M195.472 17.7322C194.559 18.2514 193.645 18.4347 191.346 18.4347C189.306 18.4347 188.286 18.2056 187.631 17.8391C188.712 18.0682 189.961 18.2056 191.316 18.2056C192.869 18.1904 194.3 18.0224 195.472 17.7322Z" fill="#F5D2A3" stroke="#262262" stroke-width="0.5" stroke-miterlimit="10"/>
<path d="M195.472 17.7322V23.4157C194.3 23.7519 192.869 23.9505 191.316 23.9505C189.961 23.9505 188.712 23.7977 187.631 23.538V17.8391C188.271 18.2058 189.306 18.435 191.346 18.435C193.645 18.4197 194.559 18.2364 195.472 17.7322Z" fill="#F5D2A3" stroke="#262262" stroke-width="0.5" stroke-miterlimit="10"/>
<path d="M198.441 15.7153C198.41 16.8307 197.101 17.7321 195.472 17.7321C197.253 17.2737 198.41 16.5404 198.441 15.7153Z" fill="#F5D2A3" stroke="#262262" stroke-width="0.5" stroke-miterlimit="10"/>
<path d="M198.441 15.6694V21.1084C198.441 22.0557 197.269 22.896 195.472 23.4154V17.732C197.101 17.732 198.41 16.8306 198.441 15.7153C198.441 15.7 198.441 15.6847 198.441 15.6694Z" fill="#F5D2A3" stroke="#262262" stroke-width="0.5" stroke-miterlimit="10"/>
<path d="M191.331 8.51932V8" stroke="#262262" stroke-width="0.5" stroke-miterlimit="10"/>
<path d="M193.98 6.70118C192.853 6.8998 192.656 7.83176 191.316 7.99981V6.01367C191.422 6.28868 192.671 6.53312 193.98 6.70118Z" fill="#F5D2A3" stroke="#262262" stroke-width="0.5" stroke-miterlimit="10"/>
<path d="M191.331 8C191.316 8 191.316 8 191.331 8V8Z" fill="#F5D2A3"/>
<path d="M191.331 8C191.316 8 191.316 8 191.331 8" stroke="#262262" stroke-width="0.5" stroke-miterlimit="10"/>
<path d="M71.0388 246.475C71.0388 246.527 71.0388 246.579 71.0388 246.579C70.9355 249.377 66.9599 251.864 60.9705 253.418C55.6524 248.548 49.9212 238.703 46.875 222.227C51.78 234.507 66.3403 245.025 71.0388 246.475Z" fill="#F5D2A3" stroke="#262262" stroke-width="0.5" stroke-miterlimit="10"/>
<path d="M46.9266 222.227C43.9319 239.688 38.4589 248.444 34.4316 253.781C27.5129 252.33 22.8661 249.636 22.7628 246.579C22.7628 246.527 22.7628 246.475 22.7628 246.475C27.2548 244.506 41.1438 236.061 46.9266 222.227Z" fill="#F5D2A3" stroke="#262262" stroke-width="0.5" stroke-miterlimit="10"/>
<path d="M34.4316 253.833C28.0293 253.833 22.8661 250.62 22.7628 246.631C22.8661 249.688 27.5129 252.33 34.4316 253.833Z" fill="#F5D2A3" stroke="#262262" stroke-width="0.5" stroke-miterlimit="10"/>
<path d="M34.4316 253.833V273.159C27.4097 271.501 22.7628 268.444 22.7628 264.921V246.476C22.7628 246.527 22.7628 246.579 22.7628 246.579C22.8661 250.621 28.0293 253.833 34.4316 253.833Z" fill="#F5D2A3" stroke="#262262" stroke-width="0.5" stroke-miterlimit="10"/>
<path d="M60.9706 253.418C56.9949 254.403 52.1415 255.025 46.875 255.025C42.2797 255.025 38.0459 254.558 34.38 253.781C38.4073 248.444 43.8803 239.688 46.875 222.227C49.9213 238.704 55.6525 248.6 60.9706 253.418Z" fill="#F5D2A3" stroke="#262262" stroke-width="0.5" stroke-miterlimit="10"/>
<path d="M60.9706 253.47C57.8727 255.232 54.7747 255.854 46.9782 255.854C40.0595 255.854 36.6002 255.077 34.38 253.833C38.0459 254.61 42.2797 255.077 46.875 255.077C52.1415 255.025 56.9949 254.455 60.9706 253.47Z" fill="#F5D2A3" stroke="#262262" stroke-width="0.5" stroke-miterlimit="10"/>
<path d="M60.9706 253.47V272.745C56.9949 273.885 52.1415 274.558 46.875 274.558C42.2797 274.558 38.0459 274.04 34.38 273.159V253.833C36.5486 255.077 40.0595 255.854 46.9782 255.854C54.7747 255.802 57.8727 255.18 60.9706 253.47Z" fill="#F5D2A3" stroke="#262262" stroke-width="0.5" stroke-miterlimit="10"/>
<path d="M71.0388 246.631C70.9355 250.413 66.4952 253.47 60.9706 253.47C67.0115 251.916 70.9355 249.429 71.0388 246.631Z" fill="#F5D2A3" stroke="#262262" stroke-width="0.5" stroke-miterlimit="10"/>
<path d="M71.0388 246.476V264.921C71.0388 268.133 67.0631 270.983 60.9706 272.745V253.47C66.4952 253.47 70.9355 250.413 71.0388 246.631C71.0388 246.579 71.0388 246.527 71.0388 246.476Z" fill="#F5D2A3" stroke="#262262" stroke-width="0.5" stroke-miterlimit="10"/>
<path d="M46.9266 222.227V220.466" stroke="#262262" stroke-width="0.5" stroke-miterlimit="10"/>
<path d="M55.9106 216.062C52.0898 216.735 51.4186 219.896 46.875 220.466V213.73C47.2364 214.663 51.4702 215.492 55.9106 216.062Z" fill="#F5D2A3" stroke="#262262" stroke-width="0.5" stroke-miterlimit="10"/>
<path d="M46.9264 220.466C46.875 220.466 46.875 220.466 46.9264 220.466V220.466Z" fill="#F5D2A3"/>
<path d="M46.9264 220.466C46.875 220.466 46.875 220.466 46.9264 220.466" stroke="#262262" stroke-width="0.5" stroke-miterlimit="10"/>
<path d="M34.5 54.4554C53.0015 54.4554 68 47.4528 68 38.8146C68 30.1764 53.0015 23.1738 34.5 23.1738C15.9985 23.1738 1 30.1764 1 38.8146C1 47.4528 15.9985 54.4554 34.5 54.4554Z" fill="#F0512F" stroke="#262262" stroke-width="0.5" stroke-miterlimit="10"/>
<path d="M50.5347 23.6227C50.5347 23.6508 50.5347 23.6789 50.5347 23.707C50.4506 25.5628 47.8448 27.1936 43.866 28.2059C40.3635 25.0004 36.5808 18.4771 34.5634 7.62354C37.8137 15.7215 47.4245 22.6385 50.5347 23.6227Z" fill="#F5D2A3" stroke="#262262" stroke-width="0.5" stroke-miterlimit="10"/>
<path d="M34.5914 7.59521C32.63 19.1236 29.0155 24.8878 26.3536 28.4306C21.7863 27.4465 18.7322 25.7032 18.6481 23.6787C18.6481 23.6506 18.6481 23.6225 18.6481 23.5943C21.6182 22.2728 30.7807 16.7054 34.5914 7.59521Z" fill="#F5D2A3" stroke="#262262" stroke-width="0.5" stroke-miterlimit="10"/>
<path d="M26.3536 28.459C22.1226 28.459 18.7041 26.3503 18.6481 23.7073C18.7322 25.7036 21.7863 27.4749 26.3536 28.459Z" fill="#F5D2A3" stroke="#262262" stroke-width="0.5" stroke-miterlimit="10"/>
<path d="M26.3536 28.4588V41.2243C21.7303 40.1278 18.6481 38.1033 18.6481 35.7976V23.6226C18.6481 23.6507 18.6481 23.6788 18.6481 23.7069C18.7041 26.3219 22.1226 28.4588 26.3536 28.4588Z" fill="#F5D2A3" stroke="#262262" stroke-width="0.5" stroke-miterlimit="10"/>
<path d="M43.894 28.2058C41.2882 28.8806 38.0659 29.2743 34.5914 29.2743C31.5653 29.2743 28.7633 28.965 26.3536 28.4588C29.0155 24.916 32.63 19.1518 34.5914 7.62354C36.5808 18.477 40.3915 25.0004 43.894 28.2058Z" fill="#F5D2A3" stroke="#262262" stroke-width="0.5" stroke-miterlimit="10"/>
<path d="M43.894 28.2061C41.8486 29.3585 39.8031 29.7801 34.6755 29.7801C30.1082 29.7801 27.8106 29.2741 26.3536 28.459C28.7633 28.9649 31.5653 29.2741 34.5914 29.2741C38.0659 29.246 41.2601 28.8525 43.894 28.2061Z" fill="#F5D2A3" stroke="#262262" stroke-width="0.5" stroke-miterlimit="10"/>
<path d="M43.894 28.2061V40.9434C41.2882 41.7025 38.0659 42.1243 34.5914 42.1243C31.5653 42.1243 28.7633 41.7869 26.3536 41.2245V28.4591C27.8106 29.2745 30.1082 29.7806 34.6755 29.7806C39.8031 29.7525 41.8486 29.3589 43.894 28.2061Z" fill="#F5D2A3" stroke="#262262" stroke-width="0.5" stroke-miterlimit="10"/>
<path d="M50.5347 23.7073C50.4787 26.2097 47.5086 28.206 43.866 28.206C47.8728 27.1938 50.4787 25.563 50.5347 23.7073Z" fill="#F5D2A3" stroke="#262262" stroke-width="0.5" stroke-miterlimit="10"/>
<path d="M50.5347 23.6226V35.7976C50.5347 37.9345 47.9009 39.7903 43.866 40.9431V28.2058C47.5086 28.2058 50.4507 26.2094 50.5347 23.7069C50.5347 23.6788 50.5347 23.6507 50.5347 23.6226Z" fill="#F5D2A3" stroke="#262262" stroke-width="0.5" stroke-miterlimit="10"/>
<path d="M34.5914 7.59542V6.41455" stroke="#262262" stroke-width="0.5" stroke-miterlimit="10"/>
<path d="M40.5596 3.51835C38.0098 3.96823 37.5895 6.04894 34.5914 6.44259V2C34.8155 2.59047 37.6175 3.1247 40.5596 3.51835Z" fill="#F5D2A3" stroke="#262262" stroke-width="0.5" stroke-miterlimit="10"/>
<path d="M34.5914 6.41455C34.5914 6.41455 34.5634 6.41455 34.5914 6.41455V6.41455Z" fill="#F5D2A3"/>
<path d="M34.5914 6.41455C34.5914 6.41455 34.5634 6.41455 34.5914 6.41455" stroke="#262262" stroke-width="0.5" stroke-miterlimit="10"/>
<path d="M110 94.9705C109.924 96.321 109.582 98.0187 108.859 99.5621C106.235 105.157 102.127 109.285 96.6121 111.986C96.1937 112.179 95.8514 112.179 95.4331 111.986C89.6519 109.092 85.2781 104.771 82.8439 98.636C81.9691 96.3982 81.6268 94.0831 82.5396 91.7295C84.6315 86.2119 91.8579 84.9772 95.5852 89.4916C95.9275 89.916 96.0797 89.9546 96.46 89.4916C98.5518 86.945 101.937 86.0576 105.018 87.2151C107.984 88.3726 110 91.3436 110 94.9705Z" fill="#F0512F" stroke="#262262" stroke-width="0.5" stroke-miterlimit="10"/>
<path d="M261 231.392C260.812 231.795 260.624 232.225 260.409 232.682C256.458 240.665 245.68 255.528 240.197 257.786C233.209 255.528 228.29 252.034 227 247.975C228.102 247.975 240.546 241.767 245.76 232.574" stroke="#262262" stroke-width="0.5" stroke-miterlimit="10"/>
<path d="M246 232.369C240.808 241.705 228.418 248.01 227.321 248.01C227.107 247.328 227 246.618 227 245.881C227 239.849 234.814 234.635 246 232.369Z" fill="#F0512F" stroke="#262262" stroke-width="0.5" stroke-miterlimit="10"/>
<path d="M275.168 233.794C279.412 240.59 286.302 247.004 289 247.004C288.45 251.399 283.865 255.247 277.002 257.786C274.644 254.538 261.257 241.354 260 232.702C260.21 232.238 260.419 231.801 260.576 231.392" stroke="#262262" stroke-width="0.5" stroke-miterlimit="10"/>
<path d="M259.872 232.369C261.139 240.777 274.625 253.588 277 256.744C271.722 258.627 265.124 259.741 257.946 259.741C251.269 259.741 245.093 258.786 240 257.142C245.41 254.914 255.993 240.247 259.872 232.369Z" fill="#F0512F" stroke="#262262" stroke-width="0.5" stroke-miterlimit="10"/>
<path d="M289 246.1C289 246.411 288.974 246.722 288.947 247.033C286.226 247.033 279.279 240.388 275 233.347C275.37 233.46 275.74 233.601 276.083 233.715C280.996 235.468 284.826 237.899 287.019 240.727C288.313 242.424 289 244.233 289 246.1Z" fill="#F0512F" stroke="#262262" stroke-width="0.5" stroke-miterlimit="10"/>
<path d="M261.945 209.478C261.84 208.585 261.84 206.771 260.4 206.666" stroke="#262262" stroke-width="0.5" stroke-miterlimit="10"/>
<path d="M258.907 208.479C258.907 207.481 259.273 206.693 260.4 206.693" stroke="#262262" stroke-width="0.5" stroke-miterlimit="10"/>
<path d="M258.907 209.373V217.416" stroke="#262262" stroke-width="0.5" stroke-miterlimit="10"/>
<path d="M255.947 216.364V206.298" stroke="#262262" stroke-width="0.5" stroke-miterlimit="10"/>
<path d="M258.907 208.48V209.373" stroke="#262262" stroke-width="0.5" stroke-miterlimit="10"/>
<path d="M252.987 216.889V205.509" stroke="#262262" stroke-width="0.5" stroke-miterlimit="10"/>
<path d="M252.987 205.51C252.987 204.301 253.328 203.381 254.454 203.328" stroke="#262262" stroke-width="0.5" stroke-miterlimit="10"/>
<path d="M255.947 206.297C255.947 205.141 256.314 204.195 257.492 204.195" stroke="#262262" stroke-width="0.5" stroke-miterlimit="10"/>
<path d="M259.038 207.507C259.038 204.826 258.409 204.195 257.492 204.195" stroke="#262262" stroke-width="0.5" stroke-miterlimit="10"/>
<path d="M256.078 205.325C256.078 203.722 255.423 203.328 254.48 203.328" stroke="#262262" stroke-width="0.5" stroke-miterlimit="10"/>
<path d="M253.014 205.325C252.778 204.774 252.359 204.485 251.547 204.485" stroke="#262262" stroke-width="0.5" stroke-miterlimit="10"/>
<path d="M250.106 206.535C250.106 205.194 250.552 204.458 251.547 204.458" stroke="#262262" stroke-width="0.5" stroke-miterlimit="10"/>
<path d="M250.106 206.535V216.023" stroke="#262262" stroke-width="0.5" stroke-miterlimit="10"/>
<path d="M247.854 225.117C247.854 222.383 246.885 219.072 245.733 216.706C245.471 216.154 245.209 215.55 245.235 214.919C245.261 214.288 245.654 213.657 246.23 213.395C246.885 213.105 247.644 213.316 248.221 213.736C249.006 214.314 249.478 215.234 250.08 215.97C250.08 218.835 249.766 221.174 249.373 221.174" stroke="#262262" stroke-width="0.5" stroke-miterlimit="10"/>
<path d="M261.945 209.479C262.285 216.364 263.176 223.54 261.185 230.242C261.028 230.741 260.818 231.319 260.53 231.95" stroke="#262262" stroke-width="0.5" stroke-miterlimit="10"/>
<path d="M247.854 225.116C247.906 227.955 247.042 230.636 245.654 233.106" stroke="#262262" stroke-width="0.5" stroke-miterlimit="10"/>
<path d="M260.845 206.666C260.845 205.431 261.473 204.458 262.233 204.458" stroke="#262262" stroke-width="0.5" stroke-miterlimit="10"/>
<path d="M263.464 205.352C263.464 205.115 263.333 204.433 262.259 204.485" stroke="#262262" stroke-width="0.5" stroke-miterlimit="10"/>
<path d="M266.79 205.642C266.842 204.065 266.266 203.434 265.245 203.434C263.961 203.434 263.28 204.985 263.28 206.904L263.071 215.261" stroke="#262262" stroke-width="0.5" stroke-miterlimit="10"/>
<path d="M269.75 217.678C269.854 217.678 269.959 212.395 269.959 207.506C269.959 206.324 269.252 204.957 268.152 204.957C266.816 204.957 266.476 205.509 266.24 209.215L265.69 216.232" stroke="#262262" stroke-width="0.5" stroke-miterlimit="10"/>
<path d="M267.445 220.307C267.916 220.517 268.754 219.203 269.75 217.679C271.164 215.497 272.866 212.869 274.254 213.631C275.826 214.42 275.381 216.075 274.254 217.757C272.84 219.808 271.583 221.017 271.583 225.064C271.583 227.771 273.023 231.083 275.119 234.289" stroke="#262262" stroke-width="0.5" stroke-miterlimit="10"/>
<path d="M241.012 196.2L241.618 197.819L243 198.068L242.006 199.313L242.248 201.088L241.012 200.247L239.776 201.088L239.994 199.313L239 198.068L240.382 197.819L241.012 196.2Z" fill="#F0512F" stroke="#262262" stroke-width="0.5" stroke-miterlimit="10"/>
<path d="M273.5 192.29L274.595 194.86L277 195.279L275.262 197.29L275.667 200.11L273.5 198.77L271.333 200.11L271.762 197.29L270 195.279L272.429 194.86L273.5 192.29Z" fill="#F0512F" stroke="#262262" stroke-width="0.5" stroke-miterlimit="10"/>
<path d="M280.5 209.886L280.96 210.855L282 211.004L281.25 211.75L281.419 212.818L280.5 212.321L279.581 212.818L279.75 211.75L279 211.004L280.04 210.855L280.5 209.886Z" fill="#F0512F" stroke="#262262" stroke-width="0.5" stroke-miterlimit="10"/>
<path d="M224 248.01H159.905C154.993 248.01 151 243.929 151 238.881V203.043" stroke="#262262" stroke-width="0.5" stroke-miterlimit="10"/>
<path d="M74 38.8148H139.328C143.004 38.8148 146 41.6939 146 45.2345V54.4556" stroke="#262262" stroke-width="0.5" stroke-miterlimit="10"/>
</svg>
