<svg width="140" height="204" viewBox="0 0 140 204" fill="none" xmlns="http://www.w3.org/2000/svg">
<path d="M218.695 170.368C218.695 170.429 214.226 168.807 210.461 170.612C207.339 172.51 205.411 176.274 203.758 180.62C200.422 189.433 198.218 200.634 189.556 203.358C183.985 205.622 175.476 201.705 170.854 194.636C149.337 159.81 127.636 119.567 105.078 86.1174C89.682 62.7367 48.6674 43.6098 52.9525 54.5045C55.8602 66.5315 90.1412 120.27 115.576 162.319C111.934 161.003 108.598 159.718 104.925 163.39C103.425 165.226 102.231 167.216 101.252 169.235V169.266C96.4464 178.998 95.8649 189.739 84.999 191.851C78.6938 193.136 71.807 187.75 65.869 176.978L14.7843 91.626C-18.9762 29.8078 13.3764 6.24344 30.1189 2.20384C74.2862 -9.11929 124.116 25.554 145.297 53.6782C157.785 67.7556 210.859 156.474 218.695 170.368Z" fill="#EE7D50"/>
<path d="M101.221 169.204C102.231 167.185 103.394 165.195 104.894 163.359C108.597 159.656 111.933 160.972 115.545 162.288C117.32 163.359 106.026 161.554 101.221 169.204Z" fill="#EF4136"/>
</svg>
