<svg width="184" height="171" viewBox="0 0 184 171" fill="none" xmlns="http://www.w3.org/2000/svg">
<path d="M167.248 84.5467L108.972 140.04C108.766 140.231 108.545 140.419 108.343 140.596C114.37 133.557 114.825 127.761 114.406 124.913C111.317 113.323 93.5852 116.424 76.9703 112.595C76.9921 112.4 77.0898 112.21 77.2987 112.066L126.686 68.9417C110.626 70.0844 97.2809 80.2593 90.6082 85.9185L46.5777 125.623C42.7171 129.107 39.2878 132.537 36.0775 134.93C40.0678 130.909 45.9697 120.962 43.6418 115.295C40.6859 107.496 14.7556 106.479 7.82853 105.085C7.86714 104.771 8.06911 104.424 8.5103 104.048L62.4556 57.8304C97.483 29.4901 125.466 23.8301 155.098 32.3998C183.06 40.9812 180.368 70.4633 167.248 84.5467Z" fill="#262262"/>
<path d="M36.0775 134.93C32.7353 137.41 29.6209 138.762 26.4564 137.844C11.4091 133.358 24.9291 113.171 8.60642 106.377C8.3474 106.307 7.71358 105.795 7.82855 105.085C14.7739 106.469 40.7003 107.5 43.6418 115.295C45.9697 120.962 40.0534 130.905 36.0775 134.93Z" fill="#00A79D"/>
<path d="M108.347 140.581C108.347 140.581 108.343 140.596 108.329 140.592C103.77 144.659 100.646 147.075 96.3417 145.803C82.8888 142.273 91.5098 121.472 78.7495 114.467C77.7341 114.053 76.9075 113.227 76.9781 112.566C93.5931 116.395 111.311 113.29 114.414 124.884C114.825 127.761 114.37 133.557 108.347 140.581Z" fill="#00A79D"/>
</svg>
