<svg width="404" height="720" viewBox="0 0 404 720" fill="none" xmlns="http://www.w3.org/2000/svg">
<path d="M128.6 539.9C117.5 529.9 106.6 520.7 96.3 513.7C94 517.8 91.7 521.9 89.4 526.1C81.5 540.3 73.9 553.9 67.2 567.1C76 576.9 86.4 587.4 97.5 598.2C105.2 582.1 115 564.4 125.2 546.1C126.4 543.9 127.5 541.9 128.6 539.9Z" fill="#6DA99E"/>
<path d="M174.1 666.6C185.3 652 195.7 634.7 205.8 616.9C197.4 606.7 187.2 596.1 176.5 585.5C165.4 605.5 154 625.3 142.4 640.7C153.6 650.8 164.2 659.8 174.1 666.6Z" fill="#6DA99E"/>
<path d="M217.9 501.3C213.3 515.5 205.6 531.6 196.9 548.1C207.4 558.2 217.6 568.5 227 578.7C248.7 538.9 267.7 499.2 262.3 467.4C252.1 485.6 238.1 498.2 217.9 501.3Z" fill="#6DA99E"/>
<path d="M97.1 662.5C92.3 659.8 86.1 655.6 84.1 651C83 648.3 82.8 644.6 83.2 641.1C71.3 629.6 59.7 618.6 49.3 607.8C36.1 645.7 38.7 676.9 77.3 698.4C103.5 713 125.5 709.7 144.9 696.1C133.7 687.8 122.3 677.9 110.4 666.9C107.9 666.9 103.7 666.1 97.1 662.5Z" fill="#6DA99E"/>
<path d="M177.9 417.1C177.7 425.4 178 432.9 179 439.4C179.8 444.3 181.4 450.9 184.6 454.3C185.6 455.3 186.9 456.2 188.4 457C189.8 456.3 191.3 455.7 192.7 455.5C197.7 454.7 204.5 457.8 209.4 460.5C209.8 460.7 210.1 460.9 210.4 461.1C214.3 460.7 216.2 459.6 217 459.1C220.8 456.8 224.8 451.5 228.4 444C230.7 439.2 232.8 433.8 234.7 428C233 426.9 231.2 425.8 229.3 424.8C209.7 413.8 192.9 412.1 177.9 417.1Z" fill="#6DA99E"/>
<path d="M160 487.2C148.1 477.6 141.7 463.9 138.8 447.2C131.4 456.2 124.2 466.7 117 478.3C127.8 485.4 138.7 494.1 149.5 503.7C153 497.8 156.5 492.3 160 487.2Z" fill="#6DA99E"/>
<path d="M205.8 616.8C211.5 623.8 216.4 630.6 220 637.1C224.1 644.4 226.1 650.7 225.8 655.1C225.7 656.6 225.4 661.2 217.8 669.1C214 673.1 208.3 678 203.3 678.8C198.7 679.5 192.4 677 187.9 674.8C183.5 672.6 178.8 669.8 174 666.5C164.8 678.5 155.2 688.7 144.8 696C181.1 722.9 214.4 731.9 247.3 697.5C284.5 658.7 262.9 618.4 226.8 578.7C223.5 584.7 220.2 590.8 216.8 596.8C213.2 603.5 209.5 610.2 205.8 616.8Z" fill="#F0502C"/>
<path d="M97.6 598.1C91.1 611.9 86.1 624.4 84 635C83.6 636.8 83.3 638.9 83.1 641C83.4 641.3 83.7 641.6 84 641.8C93 650.5 101.8 658.9 110.4 666.8C111.5 666.8 112.3 666.6 112.7 666.6C117.1 665.7 122.6 662.2 128.7 656.4C133.3 652 137.8 646.6 142.4 640.6C132.7 631.8 122.7 622.2 112.4 612.3C107.4 607.5 102.4 602.8 97.6 598.1Z" fill="#F0502C"/>
<path d="M149.5 503.6C142.7 514.8 135.7 527.2 128.7 539.9C138 548.3 147.3 557.3 156.6 566.2C163.3 572.6 170 579 176.5 585.4C178.1 582.6 179.6 579.8 181.2 576.9C186.5 567.3 191.9 557.6 197 548.1C193 544.3 189 540.4 185 536.6C173.2 525.4 161.3 514 149.5 503.6Z" fill="#F0502C"/>
<path d="M46.6 539.3C44.2 534.9 41.5 528.7 42 524.1C42.5 519.1 47.2 513.2 51.1 509.2C58.7 501.3 63.3 500.8 64.8 500.7C69.2 500.2 75.6 502 83.1 505.8C87.4 508 91.9 510.7 96.4 513.8C103.4 501.3 110.2 489.4 117 478.3C84 456.5 51.5 449.7 21.5 480.9C-19 523.1 5.9 562.9 49.2 607.7C53.7 594.9 59.9 581.3 67.3 567C58.4 557.1 51.2 547.8 46.6 539.3Z" fill="#F0502C"/>
<path d="M196.9 548.1C191.9 557.6 186.5 567.3 181.1 576.9C179.5 579.7 178 582.5 176.4 585.4C187.2 596 197.4 606.6 205.7 616.8C209.5 610.2 213.2 603.5 216.9 596.8C220.2 590.8 223.6 584.7 226.9 578.7C217.6 568.5 207.4 558.3 196.9 548.1Z" fill="#6DA99E"/>
<path d="M83.1 641C83.3 638.9 83.6 636.8 84 635C86.1 624.4 91 611.8 97.6 598.1C86.5 587.3 76.1 576.9 67.3 567C60 581.3 53.7 594.8 49.2 607.7C59.7 618.5 71.2 629.6 83.1 641Z" fill="#6DA99E"/>
<path d="M174.1 666.6C164.3 659.8 153.6 650.8 142.4 640.6C137.9 646.6 133.3 652 128.7 656.4C122.6 662.2 117.1 665.7 112.7 666.6C112.2 666.7 111.5 666.8 110.4 666.8C122.2 677.7 133.7 687.7 144.9 696C155.3 688.8 164.9 678.6 174.1 666.6Z" fill="#EE7D50"/>
<path d="M128.6 539.9C135.7 527.2 142.6 514.8 149.4 503.6C138.6 494.1 127.7 485.4 116.9 478.2C110.1 489.2 103.2 501.2 96.3 513.7C106.7 520.7 117.6 529.9 128.6 539.9Z" fill="#EE7D50"/>
<path d="M373.5 13.6999C312.4 -26.0001 273.9 33.2999 227.1 105.3C196.5 152.4 169.4 194.1 171.6 228.5C182.4 206.3 198.2 192.1 223.4 190.7C232.7 172 246.8 150.3 261.5 127.7C282.7 95.0999 302.7 64.2999 320.8 49.4999C324.7 46.2999 330.2 42.4999 334.9 42.0999C340 41.6999 346.6 45.1999 351.2 48.1999C360.4 54.1999 361.7 58.5999 362.2 60.0999C363.5 64.3999 363 70.8999 360.7 78.9999C353.9 102.8 334.2 133.2 315.1 162.6C304.1 179.6 292.8 197 281.6 211.6C291.4 222.8 296.4 238 298.3 255.5C316.3 236 333 210.2 349.5 184.9C391.1 120.5 434.7 53.3999 373.5 13.6999Z" fill="#EE7D50"/>
<path d="M225.4 241.9C222.5 240 219.1 237.5 216.5 234.7C213.3 237.5 210.6 242.1 208.7 245.8C205 253.3 201.8 262.8 199.1 273.6C200.4 274.5 201.7 275.4 203 276.3C223 289.3 241.1 290.8 257.9 284.8C258.4 274.3 258.2 264.7 257 256.3C256.1 250.1 254.6 245 252.7 241.5C248.1 244.8 243.9 246.7 240.6 247.1C239.2 247.3 234.6 247.9 225.4 241.9Z" fill="#EE7D50"/>
<path d="M258 284.8C257 305.1 253.4 328.4 249.9 351.2C245.7 378.4 241.4 406.3 234.5 427.8C251.1 438.5 259.5 452.1 262.1 467.4C277.7 439.3 284.1 397.9 290.3 357.3C295.8 321.5 301.4 284.9 298.2 255.2C285.6 269 272.3 279.7 258 284.8Z" fill="#0B2C5D"/>
<path d="M213.2 229.5C213.8 231.3 215 233.1 216.6 234.7C217.2 234.1 217.9 233.7 218.6 233.3C223 230.8 230.5 231.3 236 232.2C246.8 233.9 249.9 237.4 250.9 238.5C251.6 239.3 252.3 240.3 252.9 241.5C254.3 240.5 255.8 239.3 257.4 238C265.4 231.3 273.5 222.1 281.7 211.4C272.9 201.3 260.2 194.4 242.3 191.6C235.6 190.6 229.3 190.2 223.6 190.6C219.5 198.9 216.3 206.6 214.4 213.6C212.9 218.5 211.7 225.1 213.2 229.5Z" fill="#0B2C5D"/>
<path d="M177.9 417.1C178.5 395.8 182.6 369.2 186.8 341.6C190.6 316.9 194.3 293.1 199.2 273.7C180.9 260.6 172.7 245.5 171.7 228.6C158.7 255.3 152.8 293.5 146.4 335.4C139.8 378.5 133.8 417.7 138.9 447.3C150.9 432.5 163.6 421.8 177.9 417.1Z" fill="#0B2C5D"/>
<path d="M200.8 460.6C196.9 460 192 458.9 188.3 457C184.9 458.7 181.6 461.5 179 463.9C172.7 469.8 166.4 477.8 159.9 487.3C168.4 494.1 179.7 498.9 194.5 501.2C203.1 502.5 210.8 502.5 217.8 501.5C219 497.7 220 494.1 220.7 490.6C222.4 482.4 222.5 475.8 220.9 471.7C220.4 470.3 218.8 466.3 210.1 461.2C208 461.2 204.9 461.2 200.8 460.6Z" fill="#0B2C5D"/>
<path d="M234.6 427.9C232.7 433.8 230.7 439.2 228.3 443.9C224.6 451.5 220.7 456.7 216.9 459C216.1 459.5 214.2 460.6 210.3 461C219 466.1 220.5 470.1 221.1 471.5C222.7 475.7 222.6 482.2 220.9 490.4C220.2 493.9 219.2 497.5 218 501.3C238.3 498.2 252.2 485.6 262.3 467.5C259.5 452.1 251.2 438.6 234.6 427.9Z" fill="#1C2F5C"/>
<path d="M160 487.2C166.5 477.7 172.8 469.7 179.1 463.8C181.6 461.4 185 458.6 188.4 456.9C186.9 456.1 185.6 455.3 184.6 454.2C181.4 450.8 179.8 444.2 179 439.3C178 432.8 177.7 425.3 177.9 417C163.6 421.7 150.9 432.4 138.8 447.1C141.7 463.9 148.1 477.6 160 487.2Z" fill="#6DA99E"/>
<path d="M257.3 238C255.8 239.3 254.3 240.4 252.8 241.5C254.7 245 256.2 250.1 257.1 256.3C258.3 264.6 258.5 274.3 258 284.8C272.3 279.7 285.6 269.1 298.3 255.3C296.4 237.8 291.4 222.7 281.6 211.4C273.4 222.1 265.3 231.3 257.3 238Z" fill="#F0502C"/>
<path d="M199.1 273.6C201.8 262.8 204.9 253.3 208.7 245.8C210.6 242.1 213.3 237.5 216.5 234.7C215 233 213.8 231.3 213.1 229.5C211.6 225.1 212.8 218.4 214.1 213.6C216 206.6 219.2 198.9 223.3 190.6C198.1 192 182.3 206.2 171.5 228.4C172.7 245.4 180.8 260.5 199.1 273.6Z" fill="#EE7D50"/>
</svg>
