<svg width="434" height="90" viewBox="0 0 434 90" fill="none" xmlns="http://www.w3.org/2000/svg">
<path d="M152.499 29.2791C152.499 29.9176 152.371 30.55 152.123 31.1399C151.875 31.7299 151.511 32.2659 151.053 32.7175C150.594 33.169 150.05 33.5272 149.45 33.7715C148.851 34.0159 148.209 34.1417 147.561 34.1417H127.732C127.083 34.1417 126.441 34.0159 125.842 33.7715C125.243 33.5272 124.698 33.169 124.24 32.7175C123.781 32.2659 123.417 31.7299 123.169 31.1399C122.921 30.55 122.793 29.9176 122.793 29.2791V4.98527C122.793 4.3467 122.921 3.71439 123.169 3.12443C123.417 2.53448 123.781 1.99843 124.24 1.5469C124.698 1.09537 125.243 0.737193 125.842 0.492826C126.441 0.248458 127.083 0.122681 127.732 0.122681H147.555C148.204 0.122502 148.846 0.248155 149.445 0.492459C150.044 0.736763 150.589 1.09493 151.047 1.5465C151.506 1.99807 151.87 2.53419 152.118 3.12423C152.366 3.71426 152.494 4.34665 152.493 4.98527V9.78919H146.872V5.02483H128.555V29.3759H146.877V24.4642H152.503L152.499 29.2791Z" fill="#0B2C5D"/>
<path d="M207.556 34.1458H201.928V0.126831H207.556V34.1458Z" fill="#0B2C5D"/>
<path d="M244.888 34.1458H225.184C224.535 34.1461 223.892 34.0205 223.292 33.776C222.692 33.5316 222.148 33.1731 221.689 32.7211C221.23 32.2691 220.866 31.7324 220.618 31.1418C220.37 30.5512 220.242 29.9182 220.243 29.2791V4.98527C220.243 3.69563 220.763 2.45881 221.689 1.5469C222.615 0.634988 223.871 0.122681 225.181 0.122681H244.885C245.534 0.122502 246.176 0.248155 246.775 0.492459C247.375 0.736763 247.919 1.09493 248.378 1.5465C248.836 1.99807 249.2 2.53419 249.448 3.12423C249.696 3.71426 249.824 4.34665 249.824 4.98527V29.2791C249.824 30.5685 249.304 31.8051 248.378 32.717C247.452 33.6288 246.196 34.1413 244.887 34.1417L244.888 34.1458ZM244.195 29.3705V5.02483H225.873V29.3759L244.195 29.3705Z" fill="#0B2C5D"/>
<path d="M19.0196 0.126404V29.3756H5.67016V24.4639H0.0443726V29.2978C0.0771689 30.5719 0.606858 31.7846 1.52355 32.6845C2.44024 33.5843 3.67356 34.102 4.96763 34.1304H19.7235C20.4035 34.1156 21.0717 33.9523 21.6798 33.6524C22.288 33.3526 22.821 32.9235 23.2404 32.3963C24.0777 31.5595 24.5776 30.4515 24.6468 29.2787V0.126404H19.0196Z" fill="#0B2C5D"/>
<path d="M61.8102 0.126831V29.2491H43.4931V0.126831H37.8604V29.2791C37.8604 30.5666 38.3796 31.8014 39.3038 32.7122C40.228 33.623 41.4816 34.1352 42.7892 34.1363H67.4374V0.126831H61.8102Z" fill="#0B2C5D"/>
<path d="M189.498 0.193634H163.458H162.8V5.09033H163.464H173.665V34.2072H179.292V5.09033H189.498H190.152V0.193634H189.498Z" fill="#0B2C5D"/>
<path d="M104.476 0.128189V25.3839V28.8616H103.768L90.4589 -6.10352e-05H86.1633H80.5264V13.1196V34.1417H86.1536V13.1196V8.75777V5.28002H86.8575L100.221 34.1417H104.476H110.103V0.128189H104.476Z" fill="#0B2C5D"/>
<path d="M286.602 0.128189V25.3839V28.8616H285.894L272.585 -6.10352e-05H268.289H262.652V13.1196V34.1417H268.279V13.1196V8.75777V5.28002H268.983L282.347 34.1417H286.602H292.229V0.128189H286.602Z" fill="#0B2C5D"/>
<path d="M341.571 5.5884V14.4076H341.538C341.561 14.585 341.572 14.7637 341.571 14.9425V14.9848C341.572 15.7106 341.403 16.4269 341.077 17.0777C340.678 17.8749 340.061 18.5464 339.295 19.0165C338.529 19.4866 337.645 19.7366 336.742 19.7382H326.592V28.1686H341.571V32.963C341.571 33.1398 341.562 33.3165 341.542 33.4923H326.006C324.728 33.4866 323.503 32.9839 322.599 32.0937C321.695 31.2035 321.184 29.9978 321.179 28.7389V19.7341H321.192C321.183 19.6209 321.179 19.5076 321.179 19.3889V19.1624C321.18 18.3906 321.372 17.6306 321.738 16.9482C322.104 16.2658 322.634 15.6813 323.281 15.2454C324.079 14.6944 325.031 14.4004 326.006 14.4035H336.158V6.10414H321.179V1.18015C321.177 1.04346 321.184 0.90681 321.198 0.770844H336.163V0.826787H336.748C338.027 0.83362 339.252 1.33787 340.155 2.22972C341.059 3.12157 341.568 4.32877 341.571 5.5884Z" stroke="#0B2C5D" stroke-width="1.41757" stroke-linejoin="round"/>
<path d="M367.343 0.773529H355.888C353.238 0.773529 351.089 2.88889 351.089 5.49831V28.8548C351.089 31.4642 353.238 33.5796 355.888 33.5796H367.343C369.993 33.5796 372.142 31.4642 372.142 28.8548V5.49831C372.142 2.88889 369.993 0.773529 367.343 0.773529Z" stroke="#0B2C5D" stroke-width="1.41757" stroke-linecap="round" stroke-linejoin="round"/>
<path d="M357.231 5.76163H365.999C366.096 5.75964 366.193 5.77652 366.283 5.81131C366.374 5.84609 366.457 5.8981 366.527 5.96436C366.597 6.03063 366.653 6.10985 366.692 6.1975C366.731 6.28515 366.752 6.37951 366.754 6.47519V27.7783C366.752 27.874 366.731 27.9684 366.692 28.056C366.653 28.1437 366.597 28.2229 366.527 28.2892C366.457 28.3554 366.374 28.4074 366.283 28.4422C366.193 28.477 366.096 28.4939 365.999 28.4919H357.231C357.133 28.4939 357.037 28.477 356.946 28.4422C356.856 28.4074 356.773 28.3554 356.703 28.2892C356.633 28.2229 356.577 28.1437 356.538 28.056C356.499 27.9684 356.477 27.874 356.475 27.7783V6.47519C356.477 6.37951 356.499 6.28515 356.538 6.1975C356.577 6.10985 356.633 6.03063 356.703 5.96436C356.773 5.8981 356.856 5.84609 356.946 5.81131C357.037 5.77652 357.133 5.75964 357.231 5.76163V5.76163Z" stroke="#0B2C5D" stroke-width="1.41757" stroke-linecap="round" stroke-linejoin="round"/>
<path d="M402.125 5.5884V14.4076H402.092C402.115 14.585 402.126 14.7637 402.125 14.9425V14.9848C402.126 15.7106 401.957 16.4269 401.63 17.0777C401.231 17.8749 400.614 18.5464 399.848 19.0165C399.082 19.4866 398.198 19.7366 397.296 19.7382H387.146V28.1686H402.125V32.963C402.125 33.1398 402.115 33.3165 402.096 33.4923H386.56C385.281 33.4866 384.057 32.9839 383.152 32.0937C382.248 31.2035 381.738 29.9978 381.732 28.7389V19.7341H381.746C381.736 19.6209 381.732 19.5076 381.732 19.3889V19.1624C381.733 18.3906 381.925 17.6306 382.292 16.9482C382.658 16.2658 383.187 15.6813 383.834 15.2454C384.633 14.6944 385.585 14.4004 386.56 14.4035H396.711V6.10414H381.732V1.18015C381.731 1.04346 381.737 0.90681 381.751 0.770844H396.717V0.826787H397.301C398.581 0.83362 399.805 1.33787 400.709 2.22972C401.612 3.12157 402.121 4.32877 402.125 5.5884V5.5884Z" stroke="#0B2C5D" stroke-width="1.41757" stroke-linejoin="round"/>
<path d="M427.896 0.773529H416.441C413.791 0.773529 411.643 2.88889 411.643 5.49831V28.8548C411.643 31.4642 413.791 33.5796 416.441 33.5796H427.896C430.547 33.5796 432.695 31.4642 432.695 28.8548V5.49831C432.695 2.88889 430.547 0.773529 427.896 0.773529Z" stroke="#0B2C5D" stroke-width="1.41757" stroke-linecap="round" stroke-linejoin="round"/>
<path d="M417.784 5.76163H426.552C426.65 5.75964 426.746 5.77652 426.837 5.81131C426.927 5.84609 427.01 5.8981 427.08 5.96436C427.15 6.03063 427.206 6.10985 427.246 6.1975C427.285 6.28515 427.306 6.37951 427.308 6.47519V27.7783C427.306 27.874 427.285 27.9684 427.246 28.056C427.206 28.1437 427.15 28.2229 427.08 28.2892C427.01 28.3554 426.927 28.4074 426.837 28.4422C426.746 28.477 426.65 28.4939 426.552 28.4919H417.784C417.687 28.4939 417.59 28.477 417.5 28.4422C417.409 28.4074 417.326 28.3554 417.256 28.2892C417.186 28.2229 417.13 28.1437 417.091 28.056C417.052 27.9684 417.031 27.874 417.029 27.7783V6.47519C417.031 6.37951 417.052 6.28515 417.091 6.1975C417.13 6.10985 417.186 6.03063 417.256 5.96436C417.326 5.8981 417.409 5.84609 417.5 5.81131C417.59 5.77652 417.687 5.75964 417.784 5.76163V5.76163Z" stroke="#0B2C5D" stroke-width="1.41757" stroke-linecap="round" stroke-linejoin="round"/>
<path d="M120.879 81.608C124.895 81.608 128.318 80.176 130.589 77.5215L127.655 74.7273C125.873 76.6832 123.673 77.6263 121.123 77.6263C116.059 77.6263 112.391 74.0636 112.391 69.034C112.391 64.0045 116.059 60.4418 121.123 60.4418C123.673 60.4418 125.873 61.3849 127.655 63.3059L130.589 60.5466C128.318 57.8921 124.895 56.4601 120.914 56.4601C113.404 56.4601 107.816 61.7342 107.816 69.034C107.816 76.3339 113.404 81.608 120.879 81.608ZM145.849 81.608C153.428 81.608 159.017 76.299 159.017 69.034C159.017 61.7691 153.428 56.4601 145.849 56.4601C138.27 56.4601 132.681 61.804 132.681 69.034C132.681 76.2641 138.27 81.608 145.849 81.608ZM145.849 77.6263C140.924 77.6263 137.257 74.0287 137.257 69.034C137.257 64.0394 140.924 60.4418 145.849 60.4418C150.774 60.4418 154.441 64.0394 154.441 69.034C154.441 74.0287 150.774 77.6263 145.849 77.6263ZM181.049 56.8094V73.3651L167.567 56.8094H163.83V81.2587H168.335V64.703L181.817 81.2587H185.555V56.8094H181.049ZM209.325 56.8094V73.3651L195.843 56.8094H192.106V81.2587H196.612V64.703L210.094 81.2587H213.831V56.8094H209.325ZM224.923 77.4516V70.7106H236.729V66.9733H224.923V60.6165H238.23V56.8094H220.382V81.2587H238.719V77.4516H224.923ZM254.995 81.608C259.012 81.608 262.435 80.176 264.705 77.5215L261.771 74.7273C259.99 76.6832 257.79 77.6263 255.24 77.6263C250.175 77.6263 246.508 74.0636 246.508 69.034C246.508 64.0045 250.175 60.4418 255.24 60.4418C257.79 60.4418 259.99 61.3849 261.771 63.3059L264.705 60.5466C262.435 57.8921 259.012 56.4601 255.03 56.4601C247.521 56.4601 241.933 61.7342 241.933 69.034C241.933 76.3339 247.521 81.608 254.995 81.608ZM273.743 81.2587H278.283V60.6514H286.387V56.8094H265.64V60.6514H273.743V81.2587ZM294.335 77.4516V70.7106H306.14V66.9733H294.335V60.6165H307.642V56.8094H289.794V81.2587H308.131V77.4516H294.335ZM313.193 81.2587H323.881C331.81 81.2587 337.223 76.3689 337.223 69.034C337.223 61.6992 331.81 56.8094 323.881 56.8094H313.193V81.2587ZM317.734 77.4167V60.6514H323.671C329.12 60.6514 332.648 63.9695 332.648 69.034C332.648 74.0986 329.12 77.4167 323.671 77.4167H317.734Z" fill="#F44E2C"/>
</svg>
