<svg width="82" height="82" viewBox="0 0 82 82" fill="none" xmlns="http://www.w3.org/2000/svg">
<path d="M48.6274 62.6956L41.3977 55.4659C36.6313 50.6994 38.0292 41.5391 44.5162 35.0571L54.8644 24.7115L59.1932 29.0403L48.85 39.386C44.8888 43.3472 43.4334 48.8364 45.7316 51.1396L52.9588 58.3668L48.6274 62.6956ZM54.8644 27.7074L46.0141 36.5576C40.3549 42.2168 38.9545 50.0292 42.8957 53.9704L48.6274 59.6997L49.9629 58.3643L44.2311 52.6325C41.0276 49.4265 42.4255 42.8145 47.3496 37.878L56.1998 29.0278L54.8644 27.7074Z" fill="#232323"/>
<path d="M28.9014 59.3346L24.5726 54.9957L34.9207 44.6475C37.9017 41.6666 41.5453 39.646 45.1739 38.9308C46.0801 38.753 47.0012 38.6617 47.9247 38.6582C50.8756 38.6582 53.4264 39.6585 55.307 41.5316L62.8393 48.7613L58.5105 53.0901L51.0007 45.8679C50.0279 44.8951 48.3424 44.565 46.3518 44.9501C43.8985 45.4253 41.3777 46.8582 39.2521 48.9839L28.9014 59.3346ZM27.5685 54.9957L28.9039 56.3311L37.7466 47.4934C40.1674 45.0752 43.0782 43.4297 45.9391 42.877C46.5915 42.7474 47.2547 42.6804 47.9197 42.6769C49.7978 42.6769 51.3783 43.2621 52.4886 44.375L58.523 50.1067L59.8584 48.7713L53.8241 43.0395C52.3511 41.5666 50.323 40.7889 47.9372 40.7889C47.1462 40.7929 46.3574 40.8725 45.5815 41.0264C42.353 41.6541 39.097 43.4772 36.4112 46.1605L27.5685 54.9957Z" fill="#232323"/>
<path d="M26.0605 56.5262L21.7417 52.1949L32.0899 41.8492C36.0511 37.888 37.5616 32.4538 35.3234 30.2156L28.2087 23.1035L32.545 18.7721L39.6597 25.8843C44.3636 30.5883 42.9107 39.6911 36.4262 46.178L26.0605 56.5262ZM24.7251 52.1974L26.0605 53.5328L34.9107 44.6826C40.57 39.0233 42.0229 31.2635 38.1442 27.3848L32.535 21.768L31.2021 23.1035L36.8163 28.7177C39.9573 31.8586 38.5068 38.4207 33.5828 43.3472L24.7251 52.1974Z" fill="#232323"/>
<path d="M32.9527 42.5894C30.0318 42.5894 27.5285 41.6291 25.713 39.8136L18.6008 32.6989L22.9296 28.3701L30.0443 35.4898C30.8945 36.34 32.1074 36.5201 32.9777 36.5201C35.7135 36.5201 39.047 34.8871 41.6779 32.2563L52.0235 21.9131L56.3524 26.2369L45.9992 36.5801C42.248 40.3412 37.364 42.5894 32.9527 42.5894ZM21.5967 32.7014L27.2134 38.3156C28.6238 39.7261 30.6095 40.4688 32.9652 40.4688C36.8264 40.4688 41.1452 38.4532 44.5212 35.0771L53.3589 26.2369L52.0235 24.9015L43.1683 33.7392C40.1674 36.7401 36.2462 38.6232 32.9702 38.6232C31.1521 38.6232 29.6192 38.053 28.5388 36.9777L22.9221 31.3635L21.5967 32.7014Z" fill="#232323"/>
<path d="M69.0812 20.1151L71.2344 17.9619C69.0394 15.03 66.4364 12.4271 63.5045 10.232L61.3514 12.3852C64.313 14.5457 66.9208 17.1534 69.0812 20.1151Z" fill="#232323"/>
<path d="M12.3788 61.3527L10.2206 63.4983C12.4162 66.4314 15.02 69.0352 17.953 71.2307L20.1062 69.0776C17.146 66.9182 14.5391 64.3122 12.3788 61.3527Z" fill="#232323"/>
<path d="M40.73 7.93378C47.5395 7.92693 54.1803 10.0519 59.7209 14.0107L61.3514 12.3801C55.3656 8.0114 48.1468 5.6572 40.7363 5.6572C33.3258 5.6572 26.107 8.0114 20.1212 12.3801L21.7517 14.0107C27.2888 10.0544 33.9248 7.92954 40.73 7.93378Z" fill="#232323"/>
<path d="M5.65431 40.7414C5.64809 48.1542 8.00349 55.3764 12.3789 61.3602L14.0094 59.7297C10.0542 54.1876 7.92825 47.5488 7.92825 40.7401C7.92825 33.9314 10.0542 27.2927 14.0094 21.7506L12.3839 20.1151C8.00504 26.1003 5.64777 33.3254 5.65431 40.7414Z" fill="#232323"/>
<path d="M40.73 73.534C33.9214 73.5403 27.2816 71.4153 21.7417 67.4571L20.1112 69.0876C26.0985 73.4594 33.3202 75.8154 40.7338 75.8154C48.1473 75.8154 55.3691 73.4594 61.3564 69.0876L59.7259 67.4571C54.1838 71.4165 47.5412 73.5415 40.73 73.534Z" fill="#232323"/>
<path d="M75.8059 40.7414C75.8121 33.3285 73.4567 26.1064 69.0813 20.1225L67.4508 21.7355C71.4037 27.2767 73.5284 33.9135 73.5284 40.7201C73.5284 47.5267 71.4037 54.1635 67.4508 59.7047L69.0813 61.3352C73.452 55.3584 75.8071 48.1457 75.8059 40.7414Z" fill="#232323"/>
<path d="M81.4625 40.7414C81.4693 31.8291 78.537 23.1633 73.12 16.0863L71.2394 17.9669C76.1582 24.5405 78.8164 32.53 78.8164 40.7401C78.8164 48.9503 76.1582 56.9398 71.2394 63.5134L73.12 65.3939C78.5365 58.3176 81.4687 49.6528 81.4625 40.7414Z" fill="#232323"/>
<path d="M40.73 78.8231C32.5177 78.8342 24.524 76.1767 17.953 71.2507L16.0775 73.1313C23.16 78.5437 31.8262 81.4759 40.74 81.4759C49.6538 81.4759 58.3201 78.5437 65.4026 73.1313L63.5195 71.2507C56.945 76.1791 48.9466 78.8368 40.73 78.8231Z" fill="#232323"/>
<path d="M16.0775 8.33889L17.9605 10.2195C24.5341 5.30067 32.5236 2.64243 40.7338 2.64243C48.9439 2.64243 56.9334 5.30067 63.507 10.2195L65.3876 8.33889C58.3064 2.93013 49.6431 0 40.7325 0C31.822 0 23.1586 2.93013 16.0775 8.33889Z" fill="#232323"/>
<path d="M1.57759e-05 40.7414C-0.00784812 49.6553 2.92447 58.3231 8.34258 65.4014L10.2232 63.5209C5.30081 56.9459 2.6405 48.9535 2.6405 40.7401C2.6405 32.5267 5.30081 24.5343 10.2232 17.9594L8.34758 16.0788C2.92716 23.1572 -0.00696305 31.826 1.57759e-05 40.7414Z" fill="#232323"/>
<path d="M10.2382 17.9494L12.3913 20.1025C14.5534 17.1405 17.1628 14.5328 20.1262 12.3726L17.968 10.2195C15.0361 12.4144 12.4331 15.0174 10.2382 17.9494Z" fill="#232323"/>
<path d="M71.2569 63.4984L69.1038 61.3452C66.9438 64.3087 64.336 66.9182 61.3739 69.0801L63.5046 71.2508C66.4462 69.0508 69.057 66.44 71.2569 63.4984Z" fill="#232323"/>
</svg>
