<svg width="152" height="32" viewBox="0 0 152 32" fill="none" xmlns="http://www.w3.org/2000/svg">
<path d="M53.2085 10.3782C53.2085 10.6046 53.1639 10.8287 53.0773 11.0378C52.9907 11.2469 52.8637 11.437 52.7037 11.597C52.5436 11.7571 52.3536 11.884 52.1445 11.9706C51.9354 12.0573 51.7112 12.1018 51.4849 12.1018H44.5644C44.3381 12.1018 44.1139 12.0573 43.9048 11.9706C43.6957 11.884 43.5057 11.7571 43.3456 11.597C43.1856 11.437 43.0586 11.2469 42.972 11.0378C42.8854 10.8287 42.8408 10.6046 42.8408 10.3782V1.76705C42.8408 1.5407 42.8854 1.31657 42.972 1.10746C43.0586 0.898343 43.1856 0.708336 43.3456 0.548286C43.5057 0.388235 43.6957 0.261277 43.9048 0.174659C44.1139 0.08804 44.3381 0.0434571 44.5644 0.0434571H51.483C51.7093 0.0433936 51.9335 0.0879326 52.1426 0.174529C52.3518 0.261125 52.5418 0.388081 52.7019 0.548144C52.8619 0.708207 52.9889 0.898241 53.0755 1.10739C53.1621 1.31653 53.2066 1.54069 53.2066 1.76705V3.46985H51.2445V1.78107H44.8517V10.4126H51.2465V8.67157H53.2099L53.2085 10.3782Z" fill="#F5D2A2"/>
<path d="M72.4238 12.1033H70.4598V0.0449219H72.4238V12.1033Z" fill="#F5D2A2"/>
<path d="M85.4532 12.1033H78.5762C78.3497 12.1034 78.1253 12.0589 77.916 11.9722C77.7067 11.8856 77.5165 11.7585 77.3563 11.5983C77.1962 11.4381 77.0692 11.2478 76.9826 11.0385C76.896 10.8292 76.8515 10.6048 76.8517 10.3782V1.76705C76.8517 1.30992 77.0333 0.871522 77.3565 0.548286C77.6797 0.22505 78.1181 0.0434571 78.5753 0.0434571H85.4522C85.6786 0.0433936 85.9028 0.0879326 86.1119 0.174529C86.321 0.261125 86.5111 0.388081 86.6711 0.548144C86.8312 0.708207 86.9582 0.898241 87.0448 1.10739C87.1314 1.31653 87.1759 1.54069 87.1758 1.76705V10.3782C87.1758 10.8353 86.9943 11.2736 86.6712 11.5968C86.348 11.9201 85.9098 12.1017 85.4527 12.1018L85.4532 12.1033ZM85.2114 10.4106V1.78107H78.8166V10.4126L85.2114 10.4106Z" fill="#F5D2A2"/>
<path d="M6.62258 0.0457764V10.4134H1.96346V8.67244H0V10.3859C0.0114463 10.8375 0.196314 11.2674 0.516249 11.5863C0.836184 11.9052 1.26663 12.0888 1.71827 12.0988H6.86825C7.10558 12.0936 7.33877 12.0357 7.55102 11.9294C7.76328 11.8231 7.9493 11.671 8.09566 11.4842C8.38791 11.1875 8.56237 10.7948 8.58652 10.3791V0.0457764H6.62258Z" fill="#F5D2A2"/>
<path d="M21.557 0.0449219V10.3676H15.1641V0.0449219H13.1982V10.3783C13.1982 10.8346 13.3794 11.2723 13.702 11.5951C14.0246 11.918 14.4621 12.0995 14.9184 12.0999H23.5209V0.0449219H21.557Z" fill="#F5D2A2"/>
<path d="M66.1213 0.0686035H57.0333H56.8036V1.80429H57.0352H60.5956V12.125H62.5595V1.80429H66.1213H66.3496V0.0686035H66.1213Z" fill="#F5D2A2"/>
<path d="M36.4479 0.0454595V8.99759V10.2303H36.2007L31.5556 0H30.0564H28.0891V4.65041V12.1019H30.0531V4.65041V3.1043V1.87158H30.2987L34.9627 12.1019H36.4479H38.4118V0.0454595H36.4479Z" fill="#F5D2A2"/>
<path d="M100.012 0.0454595V8.99759V10.2303H99.7647L95.1196 0H93.6204H91.6531V4.65041V12.1019H93.617V4.65041V3.1043V1.87158H93.8627L98.5266 12.1019H100.012H101.976V0.0454595H100.012Z" fill="#F5D2A2"/>
<path d="M119.197 1.98083V5.10689H119.185C119.193 5.16976 119.197 5.23309 119.197 5.29647V5.31146C119.197 5.56875 119.138 5.82265 119.024 6.05332C118.885 6.33588 118.669 6.57392 118.402 6.74055C118.135 6.90719 117.826 6.99579 117.511 6.99636H113.969V9.9846H119.197V11.684C119.197 11.7467 119.193 11.8093 119.187 11.8717H113.764C113.318 11.8696 112.891 11.6914 112.575 11.3759C112.26 11.0604 112.081 10.633 112.079 10.1868V6.99491H112.084C112.081 6.95477 112.079 6.91463 112.079 6.87256V6.79228C112.08 6.51869 112.147 6.24932 112.275 6.00742C112.403 5.76552 112.587 5.55836 112.813 5.40383C113.092 5.20855 113.424 5.10431 113.764 5.10544H117.307V2.16363H112.079V0.418277C112.079 0.369827 112.081 0.321388 112.086 0.273193H117.309V0.293023H117.513C117.96 0.295445 118.387 0.474182 118.703 0.790307C119.018 1.10643 119.195 1.53434 119.197 1.98083V1.98083Z" stroke="#F5D2A2" stroke-width="0.502472" stroke-linejoin="round"/>
<path d="M128.191 0.27417H124.193C123.268 0.27417 122.519 1.02398 122.519 1.94892V10.2279C122.519 11.1528 123.268 11.9026 124.193 11.9026H128.191C129.116 11.9026 129.866 11.1528 129.866 10.2279V1.94892C129.866 1.02398 129.116 0.27417 128.191 0.27417Z" stroke="#F5D2A2" stroke-width="0.502472" stroke-linecap="round" stroke-linejoin="round"/>
<path d="M124.662 2.04229H127.722C127.756 2.04159 127.79 2.04757 127.822 2.0599C127.853 2.07223 127.882 2.09066 127.906 2.11415C127.931 2.13764 127.951 2.16572 127.964 2.19679C127.978 2.22786 127.985 2.2613 127.986 2.29522V9.84633C127.985 9.88025 127.978 9.91369 127.964 9.94476C127.951 9.97583 127.931 10.0039 127.906 10.0274C127.882 10.0509 127.853 10.0693 127.822 10.0817C127.79 10.094 127.756 10.1 127.722 10.0993H124.662C124.628 10.1 124.594 10.094 124.563 10.0817C124.531 10.0693 124.502 10.0509 124.478 10.0274C124.453 10.0039 124.434 9.97583 124.42 9.94476C124.407 9.91369 124.399 9.88025 124.398 9.84633V2.29522C124.399 2.2613 124.407 2.22786 124.42 2.19679C124.434 2.16572 124.453 2.13764 124.478 2.11415C124.502 2.09066 124.531 2.07223 124.563 2.0599C124.594 2.04757 124.628 2.04159 124.662 2.04229V2.04229Z" stroke="#F5D2A2" stroke-width="0.502472" stroke-linecap="round" stroke-linejoin="round"/>
<path d="M140.331 1.98083V5.10689H140.319C140.327 5.16976 140.331 5.23309 140.331 5.29647V5.31146C140.331 5.56875 140.272 5.82265 140.158 6.05332C140.019 6.33588 139.803 6.57392 139.536 6.74055C139.269 6.90719 138.96 6.99579 138.645 6.99636H135.103V9.9846H140.331V11.684C140.331 11.7467 140.327 11.8093 140.32 11.8717H134.898C134.452 11.8696 134.025 11.6914 133.709 11.3759C133.394 11.0604 133.215 10.633 133.213 10.1868V6.99491H133.218C133.215 6.95477 133.213 6.91463 133.213 6.87256V6.79228C133.214 6.51869 133.281 6.24932 133.409 6.00742C133.536 5.76552 133.721 5.55836 133.947 5.40383C134.226 5.20855 134.558 5.10431 134.898 5.10544H138.441V2.16363H133.213V0.418277C133.213 0.369827 133.215 0.321388 133.22 0.273193H138.443V0.293023H138.647C139.094 0.295445 139.521 0.474182 139.836 0.790307C140.152 1.10643 140.329 1.53434 140.331 1.98083V1.98083Z" stroke="#F5D2A2" stroke-width="0.502472" stroke-linejoin="round"/>
<path d="M149.325 0.27417H145.327C144.402 0.27417 143.652 1.02398 143.652 1.94892V10.2279C143.652 11.1528 144.402 11.9026 145.327 11.9026H149.325C150.25 11.9026 151 11.1528 151 10.2279V1.94892C151 1.02398 150.25 0.27417 149.325 0.27417Z" stroke="#F5D2A2" stroke-width="0.502472" stroke-linecap="round" stroke-linejoin="round"/>
<path d="M145.796 2.04229H148.856C148.89 2.04159 148.924 2.04757 148.955 2.0599C148.987 2.07223 149.016 2.09066 149.04 2.11415C149.065 2.13764 149.084 2.16572 149.098 2.19679C149.112 2.22786 149.119 2.2613 149.12 2.29522V9.84633C149.119 9.88025 149.112 9.91369 149.098 9.94476C149.084 9.97583 149.065 10.0039 149.04 10.0274C149.016 10.0509 148.987 10.0693 148.955 10.0817C148.924 10.094 148.89 10.1 148.856 10.0993H145.796C145.762 10.1 145.728 10.094 145.697 10.0817C145.665 10.0693 145.636 10.0509 145.612 10.0274C145.587 10.0039 145.568 9.97583 145.554 9.94476C145.54 9.91369 145.533 9.88025 145.532 9.84633V2.29522C145.533 2.2613 145.54 2.22786 145.554 2.19679C145.568 2.16572 145.587 2.13764 145.612 2.11415C145.636 2.09066 145.665 2.07223 145.697 2.0599C145.728 2.04757 145.762 2.04159 145.796 2.04229V2.04229Z" stroke="#F5D2A2" stroke-width="0.502472" stroke-linecap="round" stroke-linejoin="round"/>
<path d="M42.2521 28.8751C43.6758 28.8751 44.8891 28.3675 45.6938 27.4266L44.6539 26.4362C44.0225 27.1295 43.2425 27.4638 42.3387 27.4638C40.5436 27.4638 39.2436 26.201 39.2436 24.4182C39.2436 22.6354 40.5436 21.3726 42.3387 21.3726C43.2425 21.3726 44.0225 21.7069 44.6539 22.3878L45.6938 21.4097C44.8891 20.4688 43.6758 19.9612 42.2644 19.9612C39.6026 19.9612 37.6218 21.8307 37.6218 24.4182C37.6218 27.0057 39.6026 28.8751 42.2521 28.8751ZM51.103 28.8751C53.7896 28.8751 55.7705 26.9933 55.7705 24.4182C55.7705 21.843 53.7896 19.9612 51.103 19.9612C48.4165 19.9612 46.4356 21.8554 46.4356 24.4182C46.4356 26.9809 48.4165 28.8751 51.103 28.8751ZM51.103 27.4638C49.3574 27.4638 48.0574 26.1886 48.0574 24.4182C48.0574 22.6478 49.3574 21.3726 51.103 21.3726C52.8487 21.3726 54.1486 22.6478 54.1486 24.4182C54.1486 26.1886 52.8487 27.4638 51.103 27.4638ZM63.58 20.085V25.9534L58.8012 20.085H57.4764V28.7513H59.0735V22.883L63.8524 28.7513H65.1771V20.085H63.58ZM73.6029 20.085V25.9534L68.824 20.085H67.4993V28.7513H69.0964V22.883L73.8752 28.7513H75.1999V20.085H73.6029ZM79.1316 27.4019V25.0124H83.3162V23.6877H79.1316V21.4345H83.8486V20.085H77.5221V28.7513H84.0219V27.4019H79.1316ZM89.7911 28.8751C91.2148 28.8751 92.4281 28.3675 93.2328 27.4266L92.1929 26.4362C91.5615 27.1295 90.7815 27.4638 89.8777 27.4638C88.0826 27.4638 86.7826 26.201 86.7826 24.4182C86.7826 22.6354 88.0826 21.3726 89.8777 21.3726C90.7815 21.3726 91.5615 21.7069 92.1929 22.3878L93.2328 21.4097C92.4281 20.4688 91.2148 19.9612 89.8035 19.9612C87.1417 19.9612 85.1608 21.8307 85.1608 24.4182C85.1608 27.0057 87.1417 28.8751 89.7911 28.8751ZM96.4363 28.7513H98.0458V21.4469H100.918V20.085H93.564V21.4469H96.4363V28.7513ZM103.735 27.4019V25.0124H107.92V23.6877H103.735V21.4345H108.452V20.085H102.126V28.7513H108.626V27.4019H103.735ZM110.42 28.7513H114.208C117.019 28.7513 118.938 27.0181 118.938 24.4182C118.938 21.8183 117.019 20.085 114.208 20.085H110.42V28.7513ZM112.029 27.3895V21.4469H114.134C116.065 21.4469 117.316 22.623 117.316 24.4182C117.316 26.2133 116.065 27.3895 114.134 27.3895H112.029Z" fill="#F44E2C"/>
</svg>
