<svg width="31" height="35" viewBox="0 0 31 35" fill="none" xmlns="http://www.w3.org/2000/svg">
<path d="M30.4022 29.9255C30.4022 31.2434 29.8787 32.5073 28.9468 33.4392C28.0149 34.3711 26.7509 34.8947 25.433 34.8947H5.481C4.16309 34.8947 2.89915 34.3711 1.96725 33.4392C1.03535 32.5073 0.511803 31.2434 0.511803 29.9255V5.09464C0.511803 4.44208 0.640339 3.79591 0.890063 3.19302C1.13979 2.59013 1.50582 2.04233 1.96725 1.5809C2.42868 1.11947 2.97648 0.75344 3.57937 0.503715C4.18226 0.25399 4.82844 0.125458 5.481 0.125458H25.428C26.0806 0.125458 26.7267 0.25399 27.3296 0.503715C27.9325 0.75344 28.4803 1.11947 28.9417 1.5809C29.4032 2.04233 29.7692 2.59013 30.0189 3.19302C30.2686 3.79591 30.3972 4.44208 30.3972 5.09464V10.0036H24.7403V5.1348H6.30919V30.0209H24.7454V25.0015H30.4072L30.4022 29.9255Z" fill="#232323"/>
</svg>
