<svg width="31" height="35" viewBox="0 0 31 35" fill="none" xmlns="http://www.w3.org/2000/svg">
<path d="M25.3661 34.8947H5.53954C4.22163 34.8947 2.95769 34.3711 2.02579 33.4392C1.09389 32.5073 0.570358 31.2434 0.570358 29.9255V5.09464C0.570358 3.77673 1.09389 2.5128 2.02579 1.5809C2.95769 0.648995 4.22163 0.125458 5.53954 0.125458H25.3661C26.0186 0.125458 26.6648 0.25399 27.2677 0.503715C27.8706 0.75344 28.4184 1.11947 28.8798 1.5809C29.3413 2.04233 29.7073 2.59013 29.957 3.19302C30.2067 3.79591 30.3353 4.44208 30.3353 5.09464V29.9255C30.3353 31.2434 29.8117 32.5073 28.8798 33.4392C27.9479 34.3711 26.684 34.8947 25.3661 34.8947ZM24.6684 30.0209V5.1348H6.23221V30.0209H24.6684Z" fill="#232323"/>
</svg>
